<?xml version="1.0" encoding="utf-8" standalone="no"?>
<!DOCTYPE svg PUBLIC "-//W3C//DTD SVG 1.1//EN"
  "http://www.w3.org/Graphics/SVG/1.1/DTD/svg11.dtd">
<svg xmlns:xlink="http://www.w3.org/1999/xlink" width="608.98125pt" height="392.514375pt" viewBox="0 0 608.98125 392.514375" xmlns="http://www.w3.org/2000/svg" version="1.1">
 <metadata>
  <rdf:RDF xmlns:dc="http://purl.org/dc/elements/1.1/" xmlns:cc="http://creativecommons.org/ns#" xmlns:rdf="http://www.w3.org/1999/02/22-rdf-syntax-ns#">
   <cc:Work>
    <dc:type rdf:resource="http://purl.org/dc/dcmitype/StillImage"/>
    <dc:date>2025-03-05T17:44:32.402023</dc:date>
    <dc:format>image/svg+xml</dc:format>
    <dc:creator>
     <cc:Agent>
      <dc:title>Matplotlib v3.10.0, https://matplotlib.org/</dc:title>
     </cc:Agent>
    </dc:creator>
   </cc:Work>
  </rdf:RDF>
 </metadata>
 <defs>
  <style type="text/css">*{stroke-linejoin: round; stroke-linecap: butt}</style>
 </defs>
 <g id="figure_1">
  <g id="patch_1">
   <path d="M 0 392.514375 
L 608.98125 392.514375 
L 608.98125 0 
L 0 0 
z
" style="fill: #ffffff"/>
  </g>
  <g id="axes_1">
   <g id="patch_2">
    <path d="M 43.78125 354.958125 
L 601.78125 354.958125 
L 601.78125 22.318125 
L 43.78125 22.318125 
z
" style="fill: #ffffff"/>
   </g>
   <g id="matplotlib.axis_1">
    <g id="xtick_1">
     <g id="line2d_1">
      <path d="M 66.582903 354.958125 
L 66.582903 22.318125 
" clip-path="url(#p58b7e9ea5c)" style="fill: none; stroke: #b0b0b0; stroke-width: 0.8; stroke-linecap: square"/>
     </g>
     <g id="line2d_2">
      <defs>
       <path id="m330b2a7489" d="M 0 0 
L 0 3.5 
" style="stroke: #000000; stroke-width: 0.8"/>
      </defs>
      <g>
       <use xlink:href="#m330b2a7489" x="66.582903" y="354.958125" style="stroke: #000000; stroke-width: 0.8"/>
      </g>
     </g>
     <g id="text_1">
      <!-- 0 -->
      <g transform="translate(63.401653 369.556562) scale(0.1 -0.1)">
       <defs>
        <path id="DejaVuSans-30" d="M 2034 4250 
Q 1547 4250 1301 3770 
Q 1056 3291 1056 2328 
Q 1056 1369 1301 889 
Q 1547 409 2034 409 
Q 2525 409 2770 889 
Q 3016 1369 3016 2328 
Q 3016 3291 2770 3770 
Q 2525 4250 2034 4250 
z
M 2034 4750 
Q 2819 4750 3233 4129 
Q 3647 3509 3647 2328 
Q 3647 1150 3233 529 
Q 2819 -91 2034 -91 
Q 1250 -91 836 529 
Q 422 1150 422 2328 
Q 422 3509 836 4129 
Q 1250 4750 2034 4750 
z
" transform="scale(0.015625)"/>
       </defs>
       <use xlink:href="#DejaVuSans-30"/>
      </g>
     </g>
    </g>
    <g id="xtick_2">
     <g id="line2d_3">
      <path d="M 135.697539 354.958125 
L 135.697539 22.318125 
" clip-path="url(#p58b7e9ea5c)" style="fill: none; stroke: #b0b0b0; stroke-width: 0.8; stroke-linecap: square"/>
     </g>
     <g id="line2d_4">
      <g>
       <use xlink:href="#m330b2a7489" x="135.697539" y="354.958125" style="stroke: #000000; stroke-width: 0.8"/>
      </g>
     </g>
     <g id="text_2">
      <!-- 1 -->
      <g transform="translate(132.516289 369.556562) scale(0.1 -0.1)">
       <defs>
        <path id="DejaVuSans-31" d="M 794 531 
L 1825 531 
L 1825 4091 
L 703 3866 
L 703 4441 
L 1819 4666 
L 2450 4666 
L 2450 531 
L 3481 531 
L 3481 0 
L 794 0 
L 794 531 
z
" transform="scale(0.015625)"/>
       </defs>
       <use xlink:href="#DejaVuSans-31"/>
      </g>
     </g>
    </g>
    <g id="xtick_3">
     <g id="line2d_5">
      <path d="M 204.812176 354.958125 
L 204.812176 22.318125 
" clip-path="url(#p58b7e9ea5c)" style="fill: none; stroke: #b0b0b0; stroke-width: 0.8; stroke-linecap: square"/>
     </g>
     <g id="line2d_6">
      <g>
       <use xlink:href="#m330b2a7489" x="204.812176" y="354.958125" style="stroke: #000000; stroke-width: 0.8"/>
      </g>
     </g>
     <g id="text_3">
      <!-- 2 -->
      <g transform="translate(201.630926 369.556562) scale(0.1 -0.1)">
       <defs>
        <path id="DejaVuSans-32" d="M 1228 531 
L 3431 531 
L 3431 0 
L 469 0 
L 469 531 
Q 828 903 1448 1529 
Q 2069 2156 2228 2338 
Q 2531 2678 2651 2914 
Q 2772 3150 2772 3378 
Q 2772 3750 2511 3984 
Q 2250 4219 1831 4219 
Q 1534 4219 1204 4116 
Q 875 4013 500 3803 
L 500 4441 
Q 881 4594 1212 4672 
Q 1544 4750 1819 4750 
Q 2544 4750 2975 4387 
Q 3406 4025 3406 3419 
Q 3406 3131 3298 2873 
Q 3191 2616 2906 2266 
Q 2828 2175 2409 1742 
Q 1991 1309 1228 531 
z
" transform="scale(0.015625)"/>
       </defs>
       <use xlink:href="#DejaVuSans-32"/>
      </g>
     </g>
    </g>
    <g id="xtick_4">
     <g id="line2d_7">
      <path d="M 273.926812 354.958125 
L 273.926812 22.318125 
" clip-path="url(#p58b7e9ea5c)" style="fill: none; stroke: #b0b0b0; stroke-width: 0.8; stroke-linecap: square"/>
     </g>
     <g id="line2d_8">
      <g>
       <use xlink:href="#m330b2a7489" x="273.926812" y="354.958125" style="stroke: #000000; stroke-width: 0.8"/>
      </g>
     </g>
     <g id="text_4">
      <!-- 3 -->
      <g transform="translate(270.745562 369.556562) scale(0.1 -0.1)">
       <defs>
        <path id="DejaVuSans-33" d="M 2597 2516 
Q 3050 2419 3304 2112 
Q 3559 1806 3559 1356 
Q 3559 666 3084 287 
Q 2609 -91 1734 -91 
Q 1441 -91 1130 -33 
Q 819 25 488 141 
L 488 750 
Q 750 597 1062 519 
Q 1375 441 1716 441 
Q 2309 441 2620 675 
Q 2931 909 2931 1356 
Q 2931 1769 2642 2001 
Q 2353 2234 1838 2234 
L 1294 2234 
L 1294 2753 
L 1863 2753 
Q 2328 2753 2575 2939 
Q 2822 3125 2822 3475 
Q 2822 3834 2567 4026 
Q 2313 4219 1838 4219 
Q 1578 4219 1281 4162 
Q 984 4106 628 3988 
L 628 4550 
Q 988 4650 1302 4700 
Q 1616 4750 1894 4750 
Q 2613 4750 3031 4423 
Q 3450 4097 3450 3541 
Q 3450 3153 3228 2886 
Q 3006 2619 2597 2516 
z
" transform="scale(0.015625)"/>
       </defs>
       <use xlink:href="#DejaVuSans-33"/>
      </g>
     </g>
    </g>
    <g id="xtick_5">
     <g id="line2d_9">
      <path d="M 343.041448 354.958125 
L 343.041448 22.318125 
" clip-path="url(#p58b7e9ea5c)" style="fill: none; stroke: #b0b0b0; stroke-width: 0.8; stroke-linecap: square"/>
     </g>
     <g id="line2d_10">
      <g>
       <use xlink:href="#m330b2a7489" x="343.041448" y="354.958125" style="stroke: #000000; stroke-width: 0.8"/>
      </g>
     </g>
     <g id="text_5">
      <!-- 4 -->
      <g transform="translate(339.860198 369.556562) scale(0.1 -0.1)">
       <defs>
        <path id="DejaVuSans-34" d="M 2419 4116 
L 825 1625 
L 2419 1625 
L 2419 4116 
z
M 2253 4666 
L 3047 4666 
L 3047 1625 
L 3713 1625 
L 3713 1100 
L 3047 1100 
L 3047 0 
L 2419 0 
L 2419 1100 
L 313 1100 
L 313 1709 
L 2253 4666 
z
" transform="scale(0.015625)"/>
       </defs>
       <use xlink:href="#DejaVuSans-34"/>
      </g>
     </g>
    </g>
    <g id="xtick_6">
     <g id="line2d_11">
      <path d="M 412.156084 354.958125 
L 412.156084 22.318125 
" clip-path="url(#p58b7e9ea5c)" style="fill: none; stroke: #b0b0b0; stroke-width: 0.8; stroke-linecap: square"/>
     </g>
     <g id="line2d_12">
      <g>
       <use xlink:href="#m330b2a7489" x="412.156084" y="354.958125" style="stroke: #000000; stroke-width: 0.8"/>
      </g>
     </g>
     <g id="text_6">
      <!-- 5 -->
      <g transform="translate(408.974834 369.556562) scale(0.1 -0.1)">
       <defs>
        <path id="DejaVuSans-35" d="M 691 4666 
L 3169 4666 
L 3169 4134 
L 1269 4134 
L 1269 2991 
Q 1406 3038 1543 3061 
Q 1681 3084 1819 3084 
Q 2600 3084 3056 2656 
Q 3513 2228 3513 1497 
Q 3513 744 3044 326 
Q 2575 -91 1722 -91 
Q 1428 -91 1123 -41 
Q 819 9 494 109 
L 494 744 
Q 775 591 1075 516 
Q 1375 441 1709 441 
Q 2250 441 2565 725 
Q 2881 1009 2881 1497 
Q 2881 1984 2565 2268 
Q 2250 2553 1709 2553 
Q 1456 2553 1204 2497 
Q 953 2441 691 2322 
L 691 4666 
z
" transform="scale(0.015625)"/>
       </defs>
       <use xlink:href="#DejaVuSans-35"/>
      </g>
     </g>
    </g>
    <g id="xtick_7">
     <g id="line2d_13">
      <path d="M 481.270721 354.958125 
L 481.270721 22.318125 
" clip-path="url(#p58b7e9ea5c)" style="fill: none; stroke: #b0b0b0; stroke-width: 0.8; stroke-linecap: square"/>
     </g>
     <g id="line2d_14">
      <g>
       <use xlink:href="#m330b2a7489" x="481.270721" y="354.958125" style="stroke: #000000; stroke-width: 0.8"/>
      </g>
     </g>
     <g id="text_7">
      <!-- 6 -->
      <g transform="translate(478.089471 369.556562) scale(0.1 -0.1)">
       <defs>
        <path id="DejaVuSans-36" d="M 2113 2584 
Q 1688 2584 1439 2293 
Q 1191 2003 1191 1497 
Q 1191 994 1439 701 
Q 1688 409 2113 409 
Q 2538 409 2786 701 
Q 3034 994 3034 1497 
Q 3034 2003 2786 2293 
Q 2538 2584 2113 2584 
z
M 3366 4563 
L 3366 3988 
Q 3128 4100 2886 4159 
Q 2644 4219 2406 4219 
Q 1781 4219 1451 3797 
Q 1122 3375 1075 2522 
Q 1259 2794 1537 2939 
Q 1816 3084 2150 3084 
Q 2853 3084 3261 2657 
Q 3669 2231 3669 1497 
Q 3669 778 3244 343 
Q 2819 -91 2113 -91 
Q 1303 -91 875 529 
Q 447 1150 447 2328 
Q 447 3434 972 4092 
Q 1497 4750 2381 4750 
Q 2619 4750 2861 4703 
Q 3103 4656 3366 4563 
z
" transform="scale(0.015625)"/>
       </defs>
       <use xlink:href="#DejaVuSans-36"/>
      </g>
     </g>
    </g>
    <g id="xtick_8">
     <g id="line2d_15">
      <path d="M 550.385357 354.958125 
L 550.385357 22.318125 
" clip-path="url(#p58b7e9ea5c)" style="fill: none; stroke: #b0b0b0; stroke-width: 0.8; stroke-linecap: square"/>
     </g>
     <g id="line2d_16">
      <g>
       <use xlink:href="#m330b2a7489" x="550.385357" y="354.958125" style="stroke: #000000; stroke-width: 0.8"/>
      </g>
     </g>
     <g id="text_8">
      <!-- 7 -->
      <g transform="translate(547.204107 369.556562) scale(0.1 -0.1)">
       <defs>
        <path id="DejaVuSans-37" d="M 525 4666 
L 3525 4666 
L 3525 4397 
L 1831 0 
L 1172 0 
L 2766 4134 
L 525 4134 
L 525 4666 
z
" transform="scale(0.015625)"/>
       </defs>
       <use xlink:href="#DejaVuSans-37"/>
      </g>
     </g>
    </g>
    <g id="text_9">
     <!-- Pseudotime -->
     <g transform="translate(293.474219 383.234687) scale(0.1 -0.1)">
      <defs>
       <path id="DejaVuSans-50" d="M 1259 4147 
L 1259 2394 
L 2053 2394 
Q 2494 2394 2734 2622 
Q 2975 2850 2975 3272 
Q 2975 3691 2734 3919 
Q 2494 4147 2053 4147 
L 1259 4147 
z
M 628 4666 
L 2053 4666 
Q 2838 4666 3239 4311 
Q 3641 3956 3641 3272 
Q 3641 2581 3239 2228 
Q 2838 1875 2053 1875 
L 1259 1875 
L 1259 0 
L 628 0 
L 628 4666 
z
" transform="scale(0.015625)"/>
       <path id="DejaVuSans-73" d="M 2834 3397 
L 2834 2853 
Q 2591 2978 2328 3040 
Q 2066 3103 1784 3103 
Q 1356 3103 1142 2972 
Q 928 2841 928 2578 
Q 928 2378 1081 2264 
Q 1234 2150 1697 2047 
L 1894 2003 
Q 2506 1872 2764 1633 
Q 3022 1394 3022 966 
Q 3022 478 2636 193 
Q 2250 -91 1575 -91 
Q 1294 -91 989 -36 
Q 684 19 347 128 
L 347 722 
Q 666 556 975 473 
Q 1284 391 1588 391 
Q 1994 391 2212 530 
Q 2431 669 2431 922 
Q 2431 1156 2273 1281 
Q 2116 1406 1581 1522 
L 1381 1569 
Q 847 1681 609 1914 
Q 372 2147 372 2553 
Q 372 3047 722 3315 
Q 1072 3584 1716 3584 
Q 2034 3584 2315 3537 
Q 2597 3491 2834 3397 
z
" transform="scale(0.015625)"/>
       <path id="DejaVuSans-65" d="M 3597 1894 
L 3597 1613 
L 953 1613 
Q 991 1019 1311 708 
Q 1631 397 2203 397 
Q 2534 397 2845 478 
Q 3156 559 3463 722 
L 3463 178 
Q 3153 47 2828 -22 
Q 2503 -91 2169 -91 
Q 1331 -91 842 396 
Q 353 884 353 1716 
Q 353 2575 817 3079 
Q 1281 3584 2069 3584 
Q 2775 3584 3186 3129 
Q 3597 2675 3597 1894 
z
M 3022 2063 
Q 3016 2534 2758 2815 
Q 2500 3097 2075 3097 
Q 1594 3097 1305 2825 
Q 1016 2553 972 2059 
L 3022 2063 
z
" transform="scale(0.015625)"/>
       <path id="DejaVuSans-75" d="M 544 1381 
L 544 3500 
L 1119 3500 
L 1119 1403 
Q 1119 906 1312 657 
Q 1506 409 1894 409 
Q 2359 409 2629 706 
Q 2900 1003 2900 1516 
L 2900 3500 
L 3475 3500 
L 3475 0 
L 2900 0 
L 2900 538 
Q 2691 219 2414 64 
Q 2138 -91 1772 -91 
Q 1169 -91 856 284 
Q 544 659 544 1381 
z
M 1991 3584 
L 1991 3584 
z
" transform="scale(0.015625)"/>
       <path id="DejaVuSans-64" d="M 2906 2969 
L 2906 4863 
L 3481 4863 
L 3481 0 
L 2906 0 
L 2906 525 
Q 2725 213 2448 61 
Q 2172 -91 1784 -91 
Q 1150 -91 751 415 
Q 353 922 353 1747 
Q 353 2572 751 3078 
Q 1150 3584 1784 3584 
Q 2172 3584 2448 3432 
Q 2725 3281 2906 2969 
z
M 947 1747 
Q 947 1113 1208 752 
Q 1469 391 1925 391 
Q 2381 391 2643 752 
Q 2906 1113 2906 1747 
Q 2906 2381 2643 2742 
Q 2381 3103 1925 3103 
Q 1469 3103 1208 2742 
Q 947 2381 947 1747 
z
" transform="scale(0.015625)"/>
       <path id="DejaVuSans-6f" d="M 1959 3097 
Q 1497 3097 1228 2736 
Q 959 2375 959 1747 
Q 959 1119 1226 758 
Q 1494 397 1959 397 
Q 2419 397 2687 759 
Q 2956 1122 2956 1747 
Q 2956 2369 2687 2733 
Q 2419 3097 1959 3097 
z
M 1959 3584 
Q 2709 3584 3137 3096 
Q 3566 2609 3566 1747 
Q 3566 888 3137 398 
Q 2709 -91 1959 -91 
Q 1206 -91 779 398 
Q 353 888 353 1747 
Q 353 2609 779 3096 
Q 1206 3584 1959 3584 
z
" transform="scale(0.015625)"/>
       <path id="DejaVuSans-74" d="M 1172 4494 
L 1172 3500 
L 2356 3500 
L 2356 3053 
L 1172 3053 
L 1172 1153 
Q 1172 725 1289 603 
Q 1406 481 1766 481 
L 2356 481 
L 2356 0 
L 1766 0 
Q 1100 0 847 248 
Q 594 497 594 1153 
L 594 3053 
L 172 3053 
L 172 3500 
L 594 3500 
L 594 4494 
L 1172 4494 
z
" transform="scale(0.015625)"/>
       <path id="DejaVuSans-69" d="M 603 3500 
L 1178 3500 
L 1178 0 
L 603 0 
L 603 3500 
z
M 603 4863 
L 1178 4863 
L 1178 4134 
L 603 4134 
L 603 4863 
z
" transform="scale(0.015625)"/>
       <path id="DejaVuSans-6d" d="M 3328 2828 
Q 3544 3216 3844 3400 
Q 4144 3584 4550 3584 
Q 5097 3584 5394 3201 
Q 5691 2819 5691 2113 
L 5691 0 
L 5113 0 
L 5113 2094 
Q 5113 2597 4934 2840 
Q 4756 3084 4391 3084 
Q 3944 3084 3684 2787 
Q 3425 2491 3425 1978 
L 3425 0 
L 2847 0 
L 2847 2094 
Q 2847 2600 2669 2842 
Q 2491 3084 2119 3084 
Q 1678 3084 1418 2786 
Q 1159 2488 1159 1978 
L 1159 0 
L 581 0 
L 581 3500 
L 1159 3500 
L 1159 2956 
Q 1356 3278 1631 3431 
Q 1906 3584 2284 3584 
Q 2666 3584 2933 3390 
Q 3200 3197 3328 2828 
z
" transform="scale(0.015625)"/>
      </defs>
      <use xlink:href="#DejaVuSans-50"/>
      <use xlink:href="#DejaVuSans-73" transform="translate(58.552734 0)"/>
      <use xlink:href="#DejaVuSans-65" transform="translate(110.652344 0)"/>
      <use xlink:href="#DejaVuSans-75" transform="translate(172.175781 0)"/>
      <use xlink:href="#DejaVuSans-64" transform="translate(235.554688 0)"/>
      <use xlink:href="#DejaVuSans-6f" transform="translate(299.03125 0)"/>
      <use xlink:href="#DejaVuSans-74" transform="translate(360.212891 0)"/>
      <use xlink:href="#DejaVuSans-69" transform="translate(399.421875 0)"/>
      <use xlink:href="#DejaVuSans-6d" transform="translate(427.205078 0)"/>
      <use xlink:href="#DejaVuSans-65" transform="translate(524.617188 0)"/>
     </g>
    </g>
   </g>
   <g id="matplotlib.axis_2">
    <g id="ytick_1">
     <g id="line2d_17">
      <path d="M 43.78125 339.838125 
L 601.78125 339.838125 
" clip-path="url(#p58b7e9ea5c)" style="fill: none; stroke: #b0b0b0; stroke-width: 0.8; stroke-linecap: square"/>
     </g>
     <g id="line2d_18">
      <defs>
       <path id="mf3d7bfd8ad" d="M 0 0 
L -3.5 0 
" style="stroke: #000000; stroke-width: 0.8"/>
      </defs>
      <g>
       <use xlink:href="#mf3d7bfd8ad" x="43.78125" y="339.838125" style="stroke: #000000; stroke-width: 0.8"/>
      </g>
     </g>
     <g id="text_10">
      <!-- 0.0 -->
      <g transform="translate(20.878125 343.637344) scale(0.1 -0.1)">
       <defs>
        <path id="DejaVuSans-2e" d="M 684 794 
L 1344 794 
L 1344 0 
L 684 0 
L 684 794 
z
" transform="scale(0.015625)"/>
       </defs>
       <use xlink:href="#DejaVuSans-30"/>
       <use xlink:href="#DejaVuSans-2e" transform="translate(63.623047 0)"/>
       <use xlink:href="#DejaVuSans-30" transform="translate(95.410156 0)"/>
      </g>
     </g>
    </g>
    <g id="ytick_2">
     <g id="line2d_19">
      <path d="M 43.78125 279.358125 
L 601.78125 279.358125 
" clip-path="url(#p58b7e9ea5c)" style="fill: none; stroke: #b0b0b0; stroke-width: 0.8; stroke-linecap: square"/>
     </g>
     <g id="line2d_20">
      <g>
       <use xlink:href="#mf3d7bfd8ad" x="43.78125" y="279.358125" style="stroke: #000000; stroke-width: 0.8"/>
      </g>
     </g>
     <g id="text_11">
      <!-- 0.2 -->
      <g transform="translate(20.878125 283.157344) scale(0.1 -0.1)">
       <use xlink:href="#DejaVuSans-30"/>
       <use xlink:href="#DejaVuSans-2e" transform="translate(63.623047 0)"/>
       <use xlink:href="#DejaVuSans-32" transform="translate(95.410156 0)"/>
      </g>
     </g>
    </g>
    <g id="ytick_3">
     <g id="line2d_21">
      <path d="M 43.78125 218.878125 
L 601.78125 218.878125 
" clip-path="url(#p58b7e9ea5c)" style="fill: none; stroke: #b0b0b0; stroke-width: 0.8; stroke-linecap: square"/>
     </g>
     <g id="line2d_22">
      <g>
       <use xlink:href="#mf3d7bfd8ad" x="43.78125" y="218.878125" style="stroke: #000000; stroke-width: 0.8"/>
      </g>
     </g>
     <g id="text_12">
      <!-- 0.4 -->
      <g transform="translate(20.878125 222.677344) scale(0.1 -0.1)">
       <use xlink:href="#DejaVuSans-30"/>
       <use xlink:href="#DejaVuSans-2e" transform="translate(63.623047 0)"/>
       <use xlink:href="#DejaVuSans-34" transform="translate(95.410156 0)"/>
      </g>
     </g>
    </g>
    <g id="ytick_4">
     <g id="line2d_23">
      <path d="M 43.78125 158.398125 
L 601.78125 158.398125 
" clip-path="url(#p58b7e9ea5c)" style="fill: none; stroke: #b0b0b0; stroke-width: 0.8; stroke-linecap: square"/>
     </g>
     <g id="line2d_24">
      <g>
       <use xlink:href="#mf3d7bfd8ad" x="43.78125" y="158.398125" style="stroke: #000000; stroke-width: 0.8"/>
      </g>
     </g>
     <g id="text_13">
      <!-- 0.6 -->
      <g transform="translate(20.878125 162.197344) scale(0.1 -0.1)">
       <use xlink:href="#DejaVuSans-30"/>
       <use xlink:href="#DejaVuSans-2e" transform="translate(63.623047 0)"/>
       <use xlink:href="#DejaVuSans-36" transform="translate(95.410156 0)"/>
      </g>
     </g>
    </g>
    <g id="ytick_5">
     <g id="line2d_25">
      <path d="M 43.78125 97.918125 
L 601.78125 97.918125 
" clip-path="url(#p58b7e9ea5c)" style="fill: none; stroke: #b0b0b0; stroke-width: 0.8; stroke-linecap: square"/>
     </g>
     <g id="line2d_26">
      <g>
       <use xlink:href="#mf3d7bfd8ad" x="43.78125" y="97.918125" style="stroke: #000000; stroke-width: 0.8"/>
      </g>
     </g>
     <g id="text_14">
      <!-- 0.8 -->
      <g transform="translate(20.878125 101.717344) scale(0.1 -0.1)">
       <defs>
        <path id="DejaVuSans-38" d="M 2034 2216 
Q 1584 2216 1326 1975 
Q 1069 1734 1069 1313 
Q 1069 891 1326 650 
Q 1584 409 2034 409 
Q 2484 409 2743 651 
Q 3003 894 3003 1313 
Q 3003 1734 2745 1975 
Q 2488 2216 2034 2216 
z
M 1403 2484 
Q 997 2584 770 2862 
Q 544 3141 544 3541 
Q 544 4100 942 4425 
Q 1341 4750 2034 4750 
Q 2731 4750 3128 4425 
Q 3525 4100 3525 3541 
Q 3525 3141 3298 2862 
Q 3072 2584 2669 2484 
Q 3125 2378 3379 2068 
Q 3634 1759 3634 1313 
Q 3634 634 3220 271 
Q 2806 -91 2034 -91 
Q 1263 -91 848 271 
Q 434 634 434 1313 
Q 434 1759 690 2068 
Q 947 2378 1403 2484 
z
M 1172 3481 
Q 1172 3119 1398 2916 
Q 1625 2713 2034 2713 
Q 2441 2713 2670 2916 
Q 2900 3119 2900 3481 
Q 2900 3844 2670 4047 
Q 2441 4250 2034 4250 
Q 1625 4250 1398 4047 
Q 1172 3844 1172 3481 
z
" transform="scale(0.015625)"/>
       </defs>
       <use xlink:href="#DejaVuSans-30"/>
       <use xlink:href="#DejaVuSans-2e" transform="translate(63.623047 0)"/>
       <use xlink:href="#DejaVuSans-38" transform="translate(95.410156 0)"/>
      </g>
     </g>
    </g>
    <g id="ytick_6">
     <g id="line2d_27">
      <path d="M 43.78125 37.438125 
L 601.78125 37.438125 
" clip-path="url(#p58b7e9ea5c)" style="fill: none; stroke: #b0b0b0; stroke-width: 0.8; stroke-linecap: square"/>
     </g>
     <g id="line2d_28">
      <g>
       <use xlink:href="#mf3d7bfd8ad" x="43.78125" y="37.438125" style="stroke: #000000; stroke-width: 0.8"/>
      </g>
     </g>
     <g id="text_15">
      <!-- 1.0 -->
      <g transform="translate(20.878125 41.237344) scale(0.1 -0.1)">
       <use xlink:href="#DejaVuSans-31"/>
       <use xlink:href="#DejaVuSans-2e" transform="translate(63.623047 0)"/>
       <use xlink:href="#DejaVuSans-30" transform="translate(95.410156 0)"/>
      </g>
     </g>
    </g>
    <g id="text_16">
     <!-- Feature Value -->
     <g transform="translate(14.798438 222.848281) rotate(-90) scale(0.1 -0.1)">
      <defs>
       <path id="DejaVuSans-46" d="M 628 4666 
L 3309 4666 
L 3309 4134 
L 1259 4134 
L 1259 2759 
L 3109 2759 
L 3109 2228 
L 1259 2228 
L 1259 0 
L 628 0 
L 628 4666 
z
" transform="scale(0.015625)"/>
       <path id="DejaVuSans-61" d="M 2194 1759 
Q 1497 1759 1228 1600 
Q 959 1441 959 1056 
Q 959 750 1161 570 
Q 1363 391 1709 391 
Q 2188 391 2477 730 
Q 2766 1069 2766 1631 
L 2766 1759 
L 2194 1759 
z
M 3341 1997 
L 3341 0 
L 2766 0 
L 2766 531 
Q 2569 213 2275 61 
Q 1981 -91 1556 -91 
Q 1019 -91 701 211 
Q 384 513 384 1019 
Q 384 1609 779 1909 
Q 1175 2209 1959 2209 
L 2766 2209 
L 2766 2266 
Q 2766 2663 2505 2880 
Q 2244 3097 1772 3097 
Q 1472 3097 1187 3025 
Q 903 2953 641 2809 
L 641 3341 
Q 956 3463 1253 3523 
Q 1550 3584 1831 3584 
Q 2591 3584 2966 3190 
Q 3341 2797 3341 1997 
z
" transform="scale(0.015625)"/>
       <path id="DejaVuSans-72" d="M 2631 2963 
Q 2534 3019 2420 3045 
Q 2306 3072 2169 3072 
Q 1681 3072 1420 2755 
Q 1159 2438 1159 1844 
L 1159 0 
L 581 0 
L 581 3500 
L 1159 3500 
L 1159 2956 
Q 1341 3275 1631 3429 
Q 1922 3584 2338 3584 
Q 2397 3584 2469 3576 
Q 2541 3569 2628 3553 
L 2631 2963 
z
" transform="scale(0.015625)"/>
       <path id="DejaVuSans-20" transform="scale(0.015625)"/>
       <path id="DejaVuSans-56" d="M 1831 0 
L 50 4666 
L 709 4666 
L 2188 738 
L 3669 4666 
L 4325 4666 
L 2547 0 
L 1831 0 
z
" transform="scale(0.015625)"/>
       <path id="DejaVuSans-6c" d="M 603 4863 
L 1178 4863 
L 1178 0 
L 603 0 
L 603 4863 
z
" transform="scale(0.015625)"/>
      </defs>
      <use xlink:href="#DejaVuSans-46"/>
      <use xlink:href="#DejaVuSans-65" transform="translate(52.019531 0)"/>
      <use xlink:href="#DejaVuSans-61" transform="translate(113.542969 0)"/>
      <use xlink:href="#DejaVuSans-74" transform="translate(174.822266 0)"/>
      <use xlink:href="#DejaVuSans-75" transform="translate(214.03125 0)"/>
      <use xlink:href="#DejaVuSans-72" transform="translate(277.410156 0)"/>
      <use xlink:href="#DejaVuSans-65" transform="translate(316.273438 0)"/>
      <use xlink:href="#DejaVuSans-20" transform="translate(377.796875 0)"/>
      <use xlink:href="#DejaVuSans-56" transform="translate(409.583984 0)"/>
      <use xlink:href="#DejaVuSans-61" transform="translate(470.242188 0)"/>
      <use xlink:href="#DejaVuSans-6c" transform="translate(531.521484 0)"/>
      <use xlink:href="#DejaVuSans-75" transform="translate(559.304688 0)"/>
      <use xlink:href="#DejaVuSans-65" transform="translate(622.683594 0)"/>
     </g>
    </g>
   </g>
   <g id="line2d_29">
    <path d="M 69.144886 156.835058 
L 74.268853 127.499326 
L 79.39282 77.503944 
L 84.516787 80.161102 
L 89.640754 45.470012 
L 94.764721 44.931784 
L 99.888688 37.438125 
L 105.012655 54.37823 
L 110.136622 75.993723 
L 115.260589 92.732695 
L 120.384556 92.355473 
L 125.508523 102.313273 
L 130.63249 109.395198 
L 135.756457 104.346677 
L 140.880424 102.358069 
L 146.00439 111.343377 
L 151.128357 117.13115 
L 156.252324 120.581605 
L 161.376291 124.103765 
L 166.500258 128.805499 
L 171.624225 128.8011 
L 176.748192 131.045275 
L 181.872159 132.827143 
L 186.996126 136.781875 
L 192.120093 139.25117 
L 197.24406 142.497753 
L 202.368027 141.927873 
L 207.491994 144.54154 
L 212.615961 148.747835 
L 217.739928 152.143006 
L 222.863895 157.239616 
L 227.987862 162.302848 
L 233.111829 167.091362 
L 238.235795 169.36997 
L 243.359762 174.005935 
L 248.483729 178.235329 
L 253.607696 186.134091 
L 258.731663 189.591991 
L 263.85563 196.974403 
L 268.979597 203.659999 
L 274.103564 212.496846 
L 279.227531 218.754197 
L 284.351498 231.67906 
L 289.475465 239.16931 
L 294.599432 247.784505 
L 299.723399 256.071705 
L 304.847366 262.816853 
L 309.971333 269.816154 
L 315.0953 280.963569 
L 320.219267 289.361688 
L 325.343233 295.685991 
L 330.4672 305.313823 
L 335.591167 312.571292 
L 340.715134 316.539555 
L 345.839101 319.107891 
L 350.963068 321.750607 
L 356.087035 320.756634 
L 361.211002 318.253098 
L 366.334969 318.820628 
L 371.458936 325.705477 
L 376.582903 324.420518 
L 381.70687 326.632686 
L 386.830837 331.50797 
L 391.954804 339.838125 
L 397.078771 331.386788 
L 402.202738 328.926959 
L 407.326705 327.238542 
L 412.450671 322.152874 
L 417.574638 309.081647 
L 422.698605 300.772181 
L 427.822572 301.291879 
L 432.946539 300.247735 
L 438.070506 311.801781 
L 443.194473 310.233281 
L 448.31844 316.795685 
L 453.442407 307.44294 
L 458.566374 310.642273 
L 463.690341 290.643686 
L 468.814308 273.851683 
L 473.938275 266.594424 
L 479.062242 267.254355 
L 484.186209 269.653856 
L 489.310176 261.018699 
L 494.434143 260.927941 
L 499.55811 249.970064 
L 504.682076 231.108115 
L 509.806043 205.366525 
L 514.93001 193.594686 
L 520.053977 193.067188 
L 525.177944 187.86599 
L 530.301911 197.086973 
L 535.425878 195.992418 
L 540.549845 204.78287 
L 545.673812 205.310367 
L 550.797779 187.29469 
L 555.921746 187.29469 
L 561.045713 188.389246 
L 566.16968 188.389246 
L 571.293647 193.863566 
L 576.417614 222.554763 
" clip-path="url(#p58b7e9ea5c)" style="fill: none; stroke: #1f77b4; stroke-width: 1.5; stroke-linecap: square"/>
    <defs>
     <path id="m0a73260e8d" d="M 0 1.5 
C 0.397805 1.5 0.77937 1.341951 1.06066 1.06066 
C 1.341951 0.77937 1.5 0.397805 1.5 0 
C 1.5 -0.397805 1.341951 -0.77937 1.06066 -1.06066 
C 0.77937 -1.341951 0.397805 -1.5 0 -1.5 
C -0.397805 -1.5 -0.77937 -1.341951 -1.06066 -1.06066 
C -1.341951 -0.77937 -1.5 -0.397805 -1.5 0 
C -1.5 0.397805 -1.341951 0.77937 -1.06066 1.06066 
C -0.77937 1.341951 -0.397805 1.5 0 1.5 
z
" style="stroke: #1f77b4"/>
    </defs>
    <g clip-path="url(#p58b7e9ea5c)">
     <use xlink:href="#m0a73260e8d" x="69.144886" y="156.835058" style="fill: #1f77b4; stroke: #1f77b4"/>
     <use xlink:href="#m0a73260e8d" x="74.268853" y="127.499326" style="fill: #1f77b4; stroke: #1f77b4"/>
     <use xlink:href="#m0a73260e8d" x="79.39282" y="77.503944" style="fill: #1f77b4; stroke: #1f77b4"/>
     <use xlink:href="#m0a73260e8d" x="84.516787" y="80.161102" style="fill: #1f77b4; stroke: #1f77b4"/>
     <use xlink:href="#m0a73260e8d" x="89.640754" y="45.470012" style="fill: #1f77b4; stroke: #1f77b4"/>
     <use xlink:href="#m0a73260e8d" x="94.764721" y="44.931784" style="fill: #1f77b4; stroke: #1f77b4"/>
     <use xlink:href="#m0a73260e8d" x="99.888688" y="37.438125" style="fill: #1f77b4; stroke: #1f77b4"/>
     <use xlink:href="#m0a73260e8d" x="105.012655" y="54.37823" style="fill: #1f77b4; stroke: #1f77b4"/>
     <use xlink:href="#m0a73260e8d" x="110.136622" y="75.993723" style="fill: #1f77b4; stroke: #1f77b4"/>
     <use xlink:href="#m0a73260e8d" x="115.260589" y="92.732695" style="fill: #1f77b4; stroke: #1f77b4"/>
     <use xlink:href="#m0a73260e8d" x="120.384556" y="92.355473" style="fill: #1f77b4; stroke: #1f77b4"/>
     <use xlink:href="#m0a73260e8d" x="125.508523" y="102.313273" style="fill: #1f77b4; stroke: #1f77b4"/>
     <use xlink:href="#m0a73260e8d" x="130.63249" y="109.395198" style="fill: #1f77b4; stroke: #1f77b4"/>
     <use xlink:href="#m0a73260e8d" x="135.756457" y="104.346677" style="fill: #1f77b4; stroke: #1f77b4"/>
     <use xlink:href="#m0a73260e8d" x="140.880424" y="102.358069" style="fill: #1f77b4; stroke: #1f77b4"/>
     <use xlink:href="#m0a73260e8d" x="146.00439" y="111.343377" style="fill: #1f77b4; stroke: #1f77b4"/>
     <use xlink:href="#m0a73260e8d" x="151.128357" y="117.13115" style="fill: #1f77b4; stroke: #1f77b4"/>
     <use xlink:href="#m0a73260e8d" x="156.252324" y="120.581605" style="fill: #1f77b4; stroke: #1f77b4"/>
     <use xlink:href="#m0a73260e8d" x="161.376291" y="124.103765" style="fill: #1f77b4; stroke: #1f77b4"/>
     <use xlink:href="#m0a73260e8d" x="166.500258" y="128.805499" style="fill: #1f77b4; stroke: #1f77b4"/>
     <use xlink:href="#m0a73260e8d" x="171.624225" y="128.8011" style="fill: #1f77b4; stroke: #1f77b4"/>
     <use xlink:href="#m0a73260e8d" x="176.748192" y="131.045275" style="fill: #1f77b4; stroke: #1f77b4"/>
     <use xlink:href="#m0a73260e8d" x="181.872159" y="132.827143" style="fill: #1f77b4; stroke: #1f77b4"/>
     <use xlink:href="#m0a73260e8d" x="186.996126" y="136.781875" style="fill: #1f77b4; stroke: #1f77b4"/>
     <use xlink:href="#m0a73260e8d" x="192.120093" y="139.25117" style="fill: #1f77b4; stroke: #1f77b4"/>
     <use xlink:href="#m0a73260e8d" x="197.24406" y="142.497753" style="fill: #1f77b4; stroke: #1f77b4"/>
     <use xlink:href="#m0a73260e8d" x="202.368027" y="141.927873" style="fill: #1f77b4; stroke: #1f77b4"/>
     <use xlink:href="#m0a73260e8d" x="207.491994" y="144.54154" style="fill: #1f77b4; stroke: #1f77b4"/>
     <use xlink:href="#m0a73260e8d" x="212.615961" y="148.747835" style="fill: #1f77b4; stroke: #1f77b4"/>
     <use xlink:href="#m0a73260e8d" x="217.739928" y="152.143006" style="fill: #1f77b4; stroke: #1f77b4"/>
     <use xlink:href="#m0a73260e8d" x="222.863895" y="157.239616" style="fill: #1f77b4; stroke: #1f77b4"/>
     <use xlink:href="#m0a73260e8d" x="227.987862" y="162.302848" style="fill: #1f77b4; stroke: #1f77b4"/>
     <use xlink:href="#m0a73260e8d" x="233.111829" y="167.091362" style="fill: #1f77b4; stroke: #1f77b4"/>
     <use xlink:href="#m0a73260e8d" x="238.235795" y="169.36997" style="fill: #1f77b4; stroke: #1f77b4"/>
     <use xlink:href="#m0a73260e8d" x="243.359762" y="174.005935" style="fill: #1f77b4; stroke: #1f77b4"/>
     <use xlink:href="#m0a73260e8d" x="248.483729" y="178.235329" style="fill: #1f77b4; stroke: #1f77b4"/>
     <use xlink:href="#m0a73260e8d" x="253.607696" y="186.134091" style="fill: #1f77b4; stroke: #1f77b4"/>
     <use xlink:href="#m0a73260e8d" x="258.731663" y="189.591991" style="fill: #1f77b4; stroke: #1f77b4"/>
     <use xlink:href="#m0a73260e8d" x="263.85563" y="196.974403" style="fill: #1f77b4; stroke: #1f77b4"/>
     <use xlink:href="#m0a73260e8d" x="268.979597" y="203.659999" style="fill: #1f77b4; stroke: #1f77b4"/>
     <use xlink:href="#m0a73260e8d" x="274.103564" y="212.496846" style="fill: #1f77b4; stroke: #1f77b4"/>
     <use xlink:href="#m0a73260e8d" x="279.227531" y="218.754197" style="fill: #1f77b4; stroke: #1f77b4"/>
     <use xlink:href="#m0a73260e8d" x="284.351498" y="231.67906" style="fill: #1f77b4; stroke: #1f77b4"/>
     <use xlink:href="#m0a73260e8d" x="289.475465" y="239.16931" style="fill: #1f77b4; stroke: #1f77b4"/>
     <use xlink:href="#m0a73260e8d" x="294.599432" y="247.784505" style="fill: #1f77b4; stroke: #1f77b4"/>
     <use xlink:href="#m0a73260e8d" x="299.723399" y="256.071705" style="fill: #1f77b4; stroke: #1f77b4"/>
     <use xlink:href="#m0a73260e8d" x="304.847366" y="262.816853" style="fill: #1f77b4; stroke: #1f77b4"/>
     <use xlink:href="#m0a73260e8d" x="309.971333" y="269.816154" style="fill: #1f77b4; stroke: #1f77b4"/>
     <use xlink:href="#m0a73260e8d" x="315.0953" y="280.963569" style="fill: #1f77b4; stroke: #1f77b4"/>
     <use xlink:href="#m0a73260e8d" x="320.219267" y="289.361688" style="fill: #1f77b4; stroke: #1f77b4"/>
     <use xlink:href="#m0a73260e8d" x="325.343233" y="295.685991" style="fill: #1f77b4; stroke: #1f77b4"/>
     <use xlink:href="#m0a73260e8d" x="330.4672" y="305.313823" style="fill: #1f77b4; stroke: #1f77b4"/>
     <use xlink:href="#m0a73260e8d" x="335.591167" y="312.571292" style="fill: #1f77b4; stroke: #1f77b4"/>
     <use xlink:href="#m0a73260e8d" x="340.715134" y="316.539555" style="fill: #1f77b4; stroke: #1f77b4"/>
     <use xlink:href="#m0a73260e8d" x="345.839101" y="319.107891" style="fill: #1f77b4; stroke: #1f77b4"/>
     <use xlink:href="#m0a73260e8d" x="350.963068" y="321.750607" style="fill: #1f77b4; stroke: #1f77b4"/>
     <use xlink:href="#m0a73260e8d" x="356.087035" y="320.756634" style="fill: #1f77b4; stroke: #1f77b4"/>
     <use xlink:href="#m0a73260e8d" x="361.211002" y="318.253098" style="fill: #1f77b4; stroke: #1f77b4"/>
     <use xlink:href="#m0a73260e8d" x="366.334969" y="318.820628" style="fill: #1f77b4; stroke: #1f77b4"/>
     <use xlink:href="#m0a73260e8d" x="371.458936" y="325.705477" style="fill: #1f77b4; stroke: #1f77b4"/>
     <use xlink:href="#m0a73260e8d" x="376.582903" y="324.420518" style="fill: #1f77b4; stroke: #1f77b4"/>
     <use xlink:href="#m0a73260e8d" x="381.70687" y="326.632686" style="fill: #1f77b4; stroke: #1f77b4"/>
     <use xlink:href="#m0a73260e8d" x="386.830837" y="331.50797" style="fill: #1f77b4; stroke: #1f77b4"/>
     <use xlink:href="#m0a73260e8d" x="391.954804" y="339.838125" style="fill: #1f77b4; stroke: #1f77b4"/>
     <use xlink:href="#m0a73260e8d" x="397.078771" y="331.386788" style="fill: #1f77b4; stroke: #1f77b4"/>
     <use xlink:href="#m0a73260e8d" x="402.202738" y="328.926959" style="fill: #1f77b4; stroke: #1f77b4"/>
     <use xlink:href="#m0a73260e8d" x="407.326705" y="327.238542" style="fill: #1f77b4; stroke: #1f77b4"/>
     <use xlink:href="#m0a73260e8d" x="412.450671" y="322.152874" style="fill: #1f77b4; stroke: #1f77b4"/>
     <use xlink:href="#m0a73260e8d" x="417.574638" y="309.081647" style="fill: #1f77b4; stroke: #1f77b4"/>
     <use xlink:href="#m0a73260e8d" x="422.698605" y="300.772181" style="fill: #1f77b4; stroke: #1f77b4"/>
     <use xlink:href="#m0a73260e8d" x="427.822572" y="301.291879" style="fill: #1f77b4; stroke: #1f77b4"/>
     <use xlink:href="#m0a73260e8d" x="432.946539" y="300.247735" style="fill: #1f77b4; stroke: #1f77b4"/>
     <use xlink:href="#m0a73260e8d" x="438.070506" y="311.801781" style="fill: #1f77b4; stroke: #1f77b4"/>
     <use xlink:href="#m0a73260e8d" x="443.194473" y="310.233281" style="fill: #1f77b4; stroke: #1f77b4"/>
     <use xlink:href="#m0a73260e8d" x="448.31844" y="316.795685" style="fill: #1f77b4; stroke: #1f77b4"/>
     <use xlink:href="#m0a73260e8d" x="453.442407" y="307.44294" style="fill: #1f77b4; stroke: #1f77b4"/>
     <use xlink:href="#m0a73260e8d" x="458.566374" y="310.642273" style="fill: #1f77b4; stroke: #1f77b4"/>
     <use xlink:href="#m0a73260e8d" x="463.690341" y="290.643686" style="fill: #1f77b4; stroke: #1f77b4"/>
     <use xlink:href="#m0a73260e8d" x="468.814308" y="273.851683" style="fill: #1f77b4; stroke: #1f77b4"/>
     <use xlink:href="#m0a73260e8d" x="473.938275" y="266.594424" style="fill: #1f77b4; stroke: #1f77b4"/>
     <use xlink:href="#m0a73260e8d" x="479.062242" y="267.254355" style="fill: #1f77b4; stroke: #1f77b4"/>
     <use xlink:href="#m0a73260e8d" x="484.186209" y="269.653856" style="fill: #1f77b4; stroke: #1f77b4"/>
     <use xlink:href="#m0a73260e8d" x="489.310176" y="261.018699" style="fill: #1f77b4; stroke: #1f77b4"/>
     <use xlink:href="#m0a73260e8d" x="494.434143" y="260.927941" style="fill: #1f77b4; stroke: #1f77b4"/>
     <use xlink:href="#m0a73260e8d" x="499.55811" y="249.970064" style="fill: #1f77b4; stroke: #1f77b4"/>
     <use xlink:href="#m0a73260e8d" x="504.682076" y="231.108115" style="fill: #1f77b4; stroke: #1f77b4"/>
     <use xlink:href="#m0a73260e8d" x="509.806043" y="205.366525" style="fill: #1f77b4; stroke: #1f77b4"/>
     <use xlink:href="#m0a73260e8d" x="514.93001" y="193.594686" style="fill: #1f77b4; stroke: #1f77b4"/>
     <use xlink:href="#m0a73260e8d" x="520.053977" y="193.067188" style="fill: #1f77b4; stroke: #1f77b4"/>
     <use xlink:href="#m0a73260e8d" x="525.177944" y="187.86599" style="fill: #1f77b4; stroke: #1f77b4"/>
     <use xlink:href="#m0a73260e8d" x="530.301911" y="197.086973" style="fill: #1f77b4; stroke: #1f77b4"/>
     <use xlink:href="#m0a73260e8d" x="535.425878" y="195.992418" style="fill: #1f77b4; stroke: #1f77b4"/>
     <use xlink:href="#m0a73260e8d" x="540.549845" y="204.78287" style="fill: #1f77b4; stroke: #1f77b4"/>
     <use xlink:href="#m0a73260e8d" x="545.673812" y="205.310367" style="fill: #1f77b4; stroke: #1f77b4"/>
     <use xlink:href="#m0a73260e8d" x="550.797779" y="187.29469" style="fill: #1f77b4; stroke: #1f77b4"/>
     <use xlink:href="#m0a73260e8d" x="555.921746" y="187.29469" style="fill: #1f77b4; stroke: #1f77b4"/>
     <use xlink:href="#m0a73260e8d" x="561.045713" y="188.389246" style="fill: #1f77b4; stroke: #1f77b4"/>
     <use xlink:href="#m0a73260e8d" x="566.16968" y="188.389246" style="fill: #1f77b4; stroke: #1f77b4"/>
     <use xlink:href="#m0a73260e8d" x="571.293647" y="193.863566" style="fill: #1f77b4; stroke: #1f77b4"/>
     <use xlink:href="#m0a73260e8d" x="576.417614" y="222.554763" style="fill: #1f77b4; stroke: #1f77b4"/>
    </g>
   </g>
   <g id="line2d_30">
    <path d="M 69.144886 42.180536 
L 74.268853 111.754153 
L 79.39282 242.295992 
L 84.516787 247.459479 
L 89.640754 249.212101 
L 94.764721 230.91657 
L 99.888688 235.622955 
L 105.012655 166.377791 
L 110.136622 175.99435 
L 115.260589 176.47613 
L 120.384556 195.196068 
L 125.508523 178.368699 
L 130.63249 157.145424 
L 135.756457 174.821206 
L 140.880424 171.088595 
L 146.00439 180.137974 
L 151.128357 173.142289 
L 156.252324 179.542728 
L 161.376291 151.114978 
L 166.500258 151.66118 
L 171.624225 118.970636 
L 176.748192 111.688805 
L 181.872159 121.600662 
L 186.996126 86.254054 
L 192.120093 64.129131 
L 197.24406 84.699743 
L 202.368027 97.226472 
L 207.491994 77.266895 
L 212.615961 95.768719 
L 217.739928 120.094766 
L 222.863895 110.873821 
L 227.987862 108.480676 
L 233.111829 122.532549 
L 238.235795 124.618333 
L 243.359762 96.988862 
L 248.483729 89.028764 
L 253.607696 76.62006 
L 258.731663 81.967472 
L 263.85563 60.929435 
L 268.979597 69.186336 
L 274.103564 86.595251 
L 279.227531 99.631507 
L 284.351498 94.522961 
L 289.475465 98.182215 
L 294.599432 105.882027 
L 299.723399 99.419924 
L 304.847366 86.594785 
L 309.971333 78.188781 
L 315.0953 91.163117 
L 320.219267 83.104683 
L 325.343233 66.960591 
L 330.4672 65.4675 
L 335.591167 65.608847 
L 340.715134 48.795591 
L 345.839101 57.309818 
L 350.963068 89.951414 
L 356.087035 96.234025 
L 361.211002 112.278596 
L 366.334969 132.621703 
L 371.458936 131.683712 
L 376.582903 122.21604 
L 381.70687 138.003895 
L 386.830837 146.431843 
L 391.954804 144.120624 
L 397.078771 186.726002 
L 402.202738 207.779308 
L 407.326705 235.834632 
L 412.450671 248.233879 
L 417.574638 276.251812 
L 422.698605 230.271879 
L 427.822572 194.428879 
L 432.946539 152.177663 
L 438.070506 99.993256 
L 443.194473 103.642838 
L 448.31844 105.289408 
L 453.442407 130.440964 
L 458.566374 199.837574 
L 463.690341 324.41295 
L 468.814308 295.373893 
L 473.938275 278.080513 
L 479.062242 272.043987 
L 484.186209 243.237534 
L 489.310176 189.378229 
L 494.434143 194.245313 
L 499.55811 224.172519 
L 504.682076 216.493043 
L 509.806043 188.442482 
L 514.93001 145.59625 
L 520.053977 124.566635 
L 525.177944 248.479923 
L 530.301911 255.363389 
L 535.425878 313.785715 
L 540.549845 318.80851 
L 545.673812 339.838125 
L 550.797779 236.288941 
L 555.921746 236.288941 
L 561.045713 177.866615 
L 566.16968 177.866615 
L 571.293647 117.834422 
L 576.417614 37.438125 
" clip-path="url(#p58b7e9ea5c)" style="fill: none; stroke: #ff7f0e; stroke-width: 1.5; stroke-linecap: square"/>
    <defs>
     <path id="m2ddee262e8" d="M 0 1.5 
C 0.397805 1.5 0.77937 1.341951 1.06066 1.06066 
C 1.341951 0.77937 1.5 0.397805 1.5 0 
C 1.5 -0.397805 1.341951 -0.77937 1.06066 -1.06066 
C 0.77937 -1.341951 0.397805 -1.5 0 -1.5 
C -0.397805 -1.5 -0.77937 -1.341951 -1.06066 -1.06066 
C -1.341951 -0.77937 -1.5 -0.397805 -1.5 0 
C -1.5 0.397805 -1.341951 0.77937 -1.06066 1.06066 
C -0.77937 1.341951 -0.397805 1.5 0 1.5 
z
" style="stroke: #ff7f0e"/>
    </defs>
    <g clip-path="url(#p58b7e9ea5c)">
     <use xlink:href="#m2ddee262e8" x="69.144886" y="42.180536" style="fill: #ff7f0e; stroke: #ff7f0e"/>
     <use xlink:href="#m2ddee262e8" x="74.268853" y="111.754153" style="fill: #ff7f0e; stroke: #ff7f0e"/>
     <use xlink:href="#m2ddee262e8" x="79.39282" y="242.295992" style="fill: #ff7f0e; stroke: #ff7f0e"/>
     <use xlink:href="#m2ddee262e8" x="84.516787" y="247.459479" style="fill: #ff7f0e; stroke: #ff7f0e"/>
     <use xlink:href="#m2ddee262e8" x="89.640754" y="249.212101" style="fill: #ff7f0e; stroke: #ff7f0e"/>
     <use xlink:href="#m2ddee262e8" x="94.764721" y="230.91657" style="fill: #ff7f0e; stroke: #ff7f0e"/>
     <use xlink:href="#m2ddee262e8" x="99.888688" y="235.622955" style="fill: #ff7f0e; stroke: #ff7f0e"/>
     <use xlink:href="#m2ddee262e8" x="105.012655" y="166.377791" style="fill: #ff7f0e; stroke: #ff7f0e"/>
     <use xlink:href="#m2ddee262e8" x="110.136622" y="175.99435" style="fill: #ff7f0e; stroke: #ff7f0e"/>
     <use xlink:href="#m2ddee262e8" x="115.260589" y="176.47613" style="fill: #ff7f0e; stroke: #ff7f0e"/>
     <use xlink:href="#m2ddee262e8" x="120.384556" y="195.196068" style="fill: #ff7f0e; stroke: #ff7f0e"/>
     <use xlink:href="#m2ddee262e8" x="125.508523" y="178.368699" style="fill: #ff7f0e; stroke: #ff7f0e"/>
     <use xlink:href="#m2ddee262e8" x="130.63249" y="157.145424" style="fill: #ff7f0e; stroke: #ff7f0e"/>
     <use xlink:href="#m2ddee262e8" x="135.756457" y="174.821206" style="fill: #ff7f0e; stroke: #ff7f0e"/>
     <use xlink:href="#m2ddee262e8" x="140.880424" y="171.088595" style="fill: #ff7f0e; stroke: #ff7f0e"/>
     <use xlink:href="#m2ddee262e8" x="146.00439" y="180.137974" style="fill: #ff7f0e; stroke: #ff7f0e"/>
     <use xlink:href="#m2ddee262e8" x="151.128357" y="173.142289" style="fill: #ff7f0e; stroke: #ff7f0e"/>
     <use xlink:href="#m2ddee262e8" x="156.252324" y="179.542728" style="fill: #ff7f0e; stroke: #ff7f0e"/>
     <use xlink:href="#m2ddee262e8" x="161.376291" y="151.114978" style="fill: #ff7f0e; stroke: #ff7f0e"/>
     <use xlink:href="#m2ddee262e8" x="166.500258" y="151.66118" style="fill: #ff7f0e; stroke: #ff7f0e"/>
     <use xlink:href="#m2ddee262e8" x="171.624225" y="118.970636" style="fill: #ff7f0e; stroke: #ff7f0e"/>
     <use xlink:href="#m2ddee262e8" x="176.748192" y="111.688805" style="fill: #ff7f0e; stroke: #ff7f0e"/>
     <use xlink:href="#m2ddee262e8" x="181.872159" y="121.600662" style="fill: #ff7f0e; stroke: #ff7f0e"/>
     <use xlink:href="#m2ddee262e8" x="186.996126" y="86.254054" style="fill: #ff7f0e; stroke: #ff7f0e"/>
     <use xlink:href="#m2ddee262e8" x="192.120093" y="64.129131" style="fill: #ff7f0e; stroke: #ff7f0e"/>
     <use xlink:href="#m2ddee262e8" x="197.24406" y="84.699743" style="fill: #ff7f0e; stroke: #ff7f0e"/>
     <use xlink:href="#m2ddee262e8" x="202.368027" y="97.226472" style="fill: #ff7f0e; stroke: #ff7f0e"/>
     <use xlink:href="#m2ddee262e8" x="207.491994" y="77.266895" style="fill: #ff7f0e; stroke: #ff7f0e"/>
     <use xlink:href="#m2ddee262e8" x="212.615961" y="95.768719" style="fill: #ff7f0e; stroke: #ff7f0e"/>
     <use xlink:href="#m2ddee262e8" x="217.739928" y="120.094766" style="fill: #ff7f0e; stroke: #ff7f0e"/>
     <use xlink:href="#m2ddee262e8" x="222.863895" y="110.873821" style="fill: #ff7f0e; stroke: #ff7f0e"/>
     <use xlink:href="#m2ddee262e8" x="227.987862" y="108.480676" style="fill: #ff7f0e; stroke: #ff7f0e"/>
     <use xlink:href="#m2ddee262e8" x="233.111829" y="122.532549" style="fill: #ff7f0e; stroke: #ff7f0e"/>
     <use xlink:href="#m2ddee262e8" x="238.235795" y="124.618333" style="fill: #ff7f0e; stroke: #ff7f0e"/>
     <use xlink:href="#m2ddee262e8" x="243.359762" y="96.988862" style="fill: #ff7f0e; stroke: #ff7f0e"/>
     <use xlink:href="#m2ddee262e8" x="248.483729" y="89.028764" style="fill: #ff7f0e; stroke: #ff7f0e"/>
     <use xlink:href="#m2ddee262e8" x="253.607696" y="76.62006" style="fill: #ff7f0e; stroke: #ff7f0e"/>
     <use xlink:href="#m2ddee262e8" x="258.731663" y="81.967472" style="fill: #ff7f0e; stroke: #ff7f0e"/>
     <use xlink:href="#m2ddee262e8" x="263.85563" y="60.929435" style="fill: #ff7f0e; stroke: #ff7f0e"/>
     <use xlink:href="#m2ddee262e8" x="268.979597" y="69.186336" style="fill: #ff7f0e; stroke: #ff7f0e"/>
     <use xlink:href="#m2ddee262e8" x="274.103564" y="86.595251" style="fill: #ff7f0e; stroke: #ff7f0e"/>
     <use xlink:href="#m2ddee262e8" x="279.227531" y="99.631507" style="fill: #ff7f0e; stroke: #ff7f0e"/>
     <use xlink:href="#m2ddee262e8" x="284.351498" y="94.522961" style="fill: #ff7f0e; stroke: #ff7f0e"/>
     <use xlink:href="#m2ddee262e8" x="289.475465" y="98.182215" style="fill: #ff7f0e; stroke: #ff7f0e"/>
     <use xlink:href="#m2ddee262e8" x="294.599432" y="105.882027" style="fill: #ff7f0e; stroke: #ff7f0e"/>
     <use xlink:href="#m2ddee262e8" x="299.723399" y="99.419924" style="fill: #ff7f0e; stroke: #ff7f0e"/>
     <use xlink:href="#m2ddee262e8" x="304.847366" y="86.594785" style="fill: #ff7f0e; stroke: #ff7f0e"/>
     <use xlink:href="#m2ddee262e8" x="309.971333" y="78.188781" style="fill: #ff7f0e; stroke: #ff7f0e"/>
     <use xlink:href="#m2ddee262e8" x="315.0953" y="91.163117" style="fill: #ff7f0e; stroke: #ff7f0e"/>
     <use xlink:href="#m2ddee262e8" x="320.219267" y="83.104683" style="fill: #ff7f0e; stroke: #ff7f0e"/>
     <use xlink:href="#m2ddee262e8" x="325.343233" y="66.960591" style="fill: #ff7f0e; stroke: #ff7f0e"/>
     <use xlink:href="#m2ddee262e8" x="330.4672" y="65.4675" style="fill: #ff7f0e; stroke: #ff7f0e"/>
     <use xlink:href="#m2ddee262e8" x="335.591167" y="65.608847" style="fill: #ff7f0e; stroke: #ff7f0e"/>
     <use xlink:href="#m2ddee262e8" x="340.715134" y="48.795591" style="fill: #ff7f0e; stroke: #ff7f0e"/>
     <use xlink:href="#m2ddee262e8" x="345.839101" y="57.309818" style="fill: #ff7f0e; stroke: #ff7f0e"/>
     <use xlink:href="#m2ddee262e8" x="350.963068" y="89.951414" style="fill: #ff7f0e; stroke: #ff7f0e"/>
     <use xlink:href="#m2ddee262e8" x="356.087035" y="96.234025" style="fill: #ff7f0e; stroke: #ff7f0e"/>
     <use xlink:href="#m2ddee262e8" x="361.211002" y="112.278596" style="fill: #ff7f0e; stroke: #ff7f0e"/>
     <use xlink:href="#m2ddee262e8" x="366.334969" y="132.621703" style="fill: #ff7f0e; stroke: #ff7f0e"/>
     <use xlink:href="#m2ddee262e8" x="371.458936" y="131.683712" style="fill: #ff7f0e; stroke: #ff7f0e"/>
     <use xlink:href="#m2ddee262e8" x="376.582903" y="122.21604" style="fill: #ff7f0e; stroke: #ff7f0e"/>
     <use xlink:href="#m2ddee262e8" x="381.70687" y="138.003895" style="fill: #ff7f0e; stroke: #ff7f0e"/>
     <use xlink:href="#m2ddee262e8" x="386.830837" y="146.431843" style="fill: #ff7f0e; stroke: #ff7f0e"/>
     <use xlink:href="#m2ddee262e8" x="391.954804" y="144.120624" style="fill: #ff7f0e; stroke: #ff7f0e"/>
     <use xlink:href="#m2ddee262e8" x="397.078771" y="186.726002" style="fill: #ff7f0e; stroke: #ff7f0e"/>
     <use xlink:href="#m2ddee262e8" x="402.202738" y="207.779308" style="fill: #ff7f0e; stroke: #ff7f0e"/>
     <use xlink:href="#m2ddee262e8" x="407.326705" y="235.834632" style="fill: #ff7f0e; stroke: #ff7f0e"/>
     <use xlink:href="#m2ddee262e8" x="412.450671" y="248.233879" style="fill: #ff7f0e; stroke: #ff7f0e"/>
     <use xlink:href="#m2ddee262e8" x="417.574638" y="276.251812" style="fill: #ff7f0e; stroke: #ff7f0e"/>
     <use xlink:href="#m2ddee262e8" x="422.698605" y="230.271879" style="fill: #ff7f0e; stroke: #ff7f0e"/>
     <use xlink:href="#m2ddee262e8" x="427.822572" y="194.428879" style="fill: #ff7f0e; stroke: #ff7f0e"/>
     <use xlink:href="#m2ddee262e8" x="432.946539" y="152.177663" style="fill: #ff7f0e; stroke: #ff7f0e"/>
     <use xlink:href="#m2ddee262e8" x="438.070506" y="99.993256" style="fill: #ff7f0e; stroke: #ff7f0e"/>
     <use xlink:href="#m2ddee262e8" x="443.194473" y="103.642838" style="fill: #ff7f0e; stroke: #ff7f0e"/>
     <use xlink:href="#m2ddee262e8" x="448.31844" y="105.289408" style="fill: #ff7f0e; stroke: #ff7f0e"/>
     <use xlink:href="#m2ddee262e8" x="453.442407" y="130.440964" style="fill: #ff7f0e; stroke: #ff7f0e"/>
     <use xlink:href="#m2ddee262e8" x="458.566374" y="199.837574" style="fill: #ff7f0e; stroke: #ff7f0e"/>
     <use xlink:href="#m2ddee262e8" x="463.690341" y="324.41295" style="fill: #ff7f0e; stroke: #ff7f0e"/>
     <use xlink:href="#m2ddee262e8" x="468.814308" y="295.373893" style="fill: #ff7f0e; stroke: #ff7f0e"/>
     <use xlink:href="#m2ddee262e8" x="473.938275" y="278.080513" style="fill: #ff7f0e; stroke: #ff7f0e"/>
     <use xlink:href="#m2ddee262e8" x="479.062242" y="272.043987" style="fill: #ff7f0e; stroke: #ff7f0e"/>
     <use xlink:href="#m2ddee262e8" x="484.186209" y="243.237534" style="fill: #ff7f0e; stroke: #ff7f0e"/>
     <use xlink:href="#m2ddee262e8" x="489.310176" y="189.378229" style="fill: #ff7f0e; stroke: #ff7f0e"/>
     <use xlink:href="#m2ddee262e8" x="494.434143" y="194.245313" style="fill: #ff7f0e; stroke: #ff7f0e"/>
     <use xlink:href="#m2ddee262e8" x="499.55811" y="224.172519" style="fill: #ff7f0e; stroke: #ff7f0e"/>
     <use xlink:href="#m2ddee262e8" x="504.682076" y="216.493043" style="fill: #ff7f0e; stroke: #ff7f0e"/>
     <use xlink:href="#m2ddee262e8" x="509.806043" y="188.442482" style="fill: #ff7f0e; stroke: #ff7f0e"/>
     <use xlink:href="#m2ddee262e8" x="514.93001" y="145.59625" style="fill: #ff7f0e; stroke: #ff7f0e"/>
     <use xlink:href="#m2ddee262e8" x="520.053977" y="124.566635" style="fill: #ff7f0e; stroke: #ff7f0e"/>
     <use xlink:href="#m2ddee262e8" x="525.177944" y="248.479923" style="fill: #ff7f0e; stroke: #ff7f0e"/>
     <use xlink:href="#m2ddee262e8" x="530.301911" y="255.363389" style="fill: #ff7f0e; stroke: #ff7f0e"/>
     <use xlink:href="#m2ddee262e8" x="535.425878" y="313.785715" style="fill: #ff7f0e; stroke: #ff7f0e"/>
     <use xlink:href="#m2ddee262e8" x="540.549845" y="318.80851" style="fill: #ff7f0e; stroke: #ff7f0e"/>
     <use xlink:href="#m2ddee262e8" x="545.673812" y="339.838125" style="fill: #ff7f0e; stroke: #ff7f0e"/>
     <use xlink:href="#m2ddee262e8" x="550.797779" y="236.288941" style="fill: #ff7f0e; stroke: #ff7f0e"/>
     <use xlink:href="#m2ddee262e8" x="555.921746" y="236.288941" style="fill: #ff7f0e; stroke: #ff7f0e"/>
     <use xlink:href="#m2ddee262e8" x="561.045713" y="177.866615" style="fill: #ff7f0e; stroke: #ff7f0e"/>
     <use xlink:href="#m2ddee262e8" x="566.16968" y="177.866615" style="fill: #ff7f0e; stroke: #ff7f0e"/>
     <use xlink:href="#m2ddee262e8" x="571.293647" y="117.834422" style="fill: #ff7f0e; stroke: #ff7f0e"/>
     <use xlink:href="#m2ddee262e8" x="576.417614" y="37.438125" style="fill: #ff7f0e; stroke: #ff7f0e"/>
    </g>
   </g>
   <g id="patch_3">
    <path d="M 43.78125 354.958125 
L 43.78125 22.318125 
" style="fill: none; stroke: #000000; stroke-width: 0.8; stroke-linejoin: miter; stroke-linecap: square"/>
   </g>
   <g id="patch_4">
    <path d="M 601.78125 354.958125 
L 601.78125 22.318125 
" style="fill: none; stroke: #000000; stroke-width: 0.8; stroke-linejoin: miter; stroke-linecap: square"/>
   </g>
   <g id="patch_5">
    <path d="M 43.78125 354.958125 
L 601.78125 354.958125 
" style="fill: none; stroke: #000000; stroke-width: 0.8; stroke-linejoin: miter; stroke-linecap: square"/>
   </g>
   <g id="patch_6">
    <path d="M 43.78125 22.318125 
L 601.78125 22.318125 
" style="fill: none; stroke: #000000; stroke-width: 0.8; stroke-linejoin: miter; stroke-linecap: square"/>
   </g>
   <g id="text_17">
    <g id="patch_7">
     <path d="M 45.40125 355.591725 
L 150.455625 355.591725 
L 150.455625 336.057975 
L 45.40125 336.057975 
z
" style="fill: #ffffff; opacity: 0.8"/>
    </g>
    <!-- Total cells: 1000 -->
    <g transform="translate(49.36125 349.1361) scale(0.12 -0.12)">
     <defs>
      <path id="DejaVuSans-54" d="M -19 4666 
L 3928 4666 
L 3928 4134 
L 2272 4134 
L 2272 0 
L 1638 0 
L 1638 4134 
L -19 4134 
L -19 4666 
z
" transform="scale(0.015625)"/>
      <path id="DejaVuSans-63" d="M 3122 3366 
L 3122 2828 
Q 2878 2963 2633 3030 
Q 2388 3097 2138 3097 
Q 1578 3097 1268 2742 
Q 959 2388 959 1747 
Q 959 1106 1268 751 
Q 1578 397 2138 397 
Q 2388 397 2633 464 
Q 2878 531 3122 666 
L 3122 134 
Q 2881 22 2623 -34 
Q 2366 -91 2075 -91 
Q 1284 -91 818 406 
Q 353 903 353 1747 
Q 353 2603 823 3093 
Q 1294 3584 2113 3584 
Q 2378 3584 2631 3529 
Q 2884 3475 3122 3366 
z
" transform="scale(0.015625)"/>
      <path id="DejaVuSans-3a" d="M 750 794 
L 1409 794 
L 1409 0 
L 750 0 
L 750 794 
z
M 750 3309 
L 1409 3309 
L 1409 2516 
L 750 2516 
L 750 3309 
z
" transform="scale(0.015625)"/>
     </defs>
     <use xlink:href="#DejaVuSans-54"/>
     <use xlink:href="#DejaVuSans-6f" transform="translate(44.083984 0)"/>
     <use xlink:href="#DejaVuSans-74" transform="translate(105.265625 0)"/>
     <use xlink:href="#DejaVuSans-61" transform="translate(144.474609 0)"/>
     <use xlink:href="#DejaVuSans-6c" transform="translate(205.753906 0)"/>
     <use xlink:href="#DejaVuSans-20" transform="translate(233.537109 0)"/>
     <use xlink:href="#DejaVuSans-63" transform="translate(265.324219 0)"/>
     <use xlink:href="#DejaVuSans-65" transform="translate(320.304688 0)"/>
     <use xlink:href="#DejaVuSans-6c" transform="translate(381.828125 0)"/>
     <use xlink:href="#DejaVuSans-6c" transform="translate(409.611328 0)"/>
     <use xlink:href="#DejaVuSans-73" transform="translate(437.394531 0)"/>
     <use xlink:href="#DejaVuSans-3a" transform="translate(489.494141 0)"/>
     <use xlink:href="#DejaVuSans-20" transform="translate(523.185547 0)"/>
     <use xlink:href="#DejaVuSans-31" transform="translate(554.972656 0)"/>
     <use xlink:href="#DejaVuSans-30" transform="translate(618.595703 0)"/>
     <use xlink:href="#DejaVuSans-30" transform="translate(682.21875 0)"/>
     <use xlink:href="#DejaVuSans-30" transform="translate(745.841797 0)"/>
    </g>
   </g>
   <g id="text_18">
    <!-- Pseudotime vs. Feature (binned into 100 intervals) -->
    <g transform="translate(170.710313 16.318125) scale(0.12 -0.12)">
     <defs>
      <path id="DejaVuSans-76" d="M 191 3500 
L 800 3500 
L 1894 563 
L 2988 3500 
L 3597 3500 
L 2284 0 
L 1503 0 
L 191 3500 
z
" transform="scale(0.015625)"/>
      <path id="DejaVuSans-28" d="M 1984 4856 
Q 1566 4138 1362 3434 
Q 1159 2731 1159 2009 
Q 1159 1288 1364 580 
Q 1569 -128 1984 -844 
L 1484 -844 
Q 1016 -109 783 600 
Q 550 1309 550 2009 
Q 550 2706 781 3412 
Q 1013 4119 1484 4856 
L 1984 4856 
z
" transform="scale(0.015625)"/>
      <path id="DejaVuSans-62" d="M 3116 1747 
Q 3116 2381 2855 2742 
Q 2594 3103 2138 3103 
Q 1681 3103 1420 2742 
Q 1159 2381 1159 1747 
Q 1159 1113 1420 752 
Q 1681 391 2138 391 
Q 2594 391 2855 752 
Q 3116 1113 3116 1747 
z
M 1159 2969 
Q 1341 3281 1617 3432 
Q 1894 3584 2278 3584 
Q 2916 3584 3314 3078 
Q 3713 2572 3713 1747 
Q 3713 922 3314 415 
Q 2916 -91 2278 -91 
Q 1894 -91 1617 61 
Q 1341 213 1159 525 
L 1159 0 
L 581 0 
L 581 4863 
L 1159 4863 
L 1159 2969 
z
" transform="scale(0.015625)"/>
      <path id="DejaVuSans-6e" d="M 3513 2113 
L 3513 0 
L 2938 0 
L 2938 2094 
Q 2938 2591 2744 2837 
Q 2550 3084 2163 3084 
Q 1697 3084 1428 2787 
Q 1159 2491 1159 1978 
L 1159 0 
L 581 0 
L 581 3500 
L 1159 3500 
L 1159 2956 
Q 1366 3272 1645 3428 
Q 1925 3584 2291 3584 
Q 2894 3584 3203 3211 
Q 3513 2838 3513 2113 
z
" transform="scale(0.015625)"/>
      <path id="DejaVuSans-29" d="M 513 4856 
L 1013 4856 
Q 1481 4119 1714 3412 
Q 1947 2706 1947 2009 
Q 1947 1309 1714 600 
Q 1481 -109 1013 -844 
L 513 -844 
Q 928 -128 1133 580 
Q 1338 1288 1338 2009 
Q 1338 2731 1133 3434 
Q 928 4138 513 4856 
z
" transform="scale(0.015625)"/>
     </defs>
     <use xlink:href="#DejaVuSans-50"/>
     <use xlink:href="#DejaVuSans-73" transform="translate(58.552734 0)"/>
     <use xlink:href="#DejaVuSans-65" transform="translate(110.652344 0)"/>
     <use xlink:href="#DejaVuSans-75" transform="translate(172.175781 0)"/>
     <use xlink:href="#DejaVuSans-64" transform="translate(235.554688 0)"/>
     <use xlink:href="#DejaVuSans-6f" transform="translate(299.03125 0)"/>
     <use xlink:href="#DejaVuSans-74" transform="translate(360.212891 0)"/>
     <use xlink:href="#DejaVuSans-69" transform="translate(399.421875 0)"/>
     <use xlink:href="#DejaVuSans-6d" transform="translate(427.205078 0)"/>
     <use xlink:href="#DejaVuSans-65" transform="translate(524.617188 0)"/>
     <use xlink:href="#DejaVuSans-20" transform="translate(586.140625 0)"/>
     <use xlink:href="#DejaVuSans-76" transform="translate(617.927734 0)"/>
     <use xlink:href="#DejaVuSans-73" transform="translate(677.107422 0)"/>
     <use xlink:href="#DejaVuSans-2e" transform="translate(729.207031 0)"/>
     <use xlink:href="#DejaVuSans-20" transform="translate(760.994141 0)"/>
     <use xlink:href="#DejaVuSans-46" transform="translate(792.78125 0)"/>
     <use xlink:href="#DejaVuSans-65" transform="translate(844.800781 0)"/>
     <use xlink:href="#DejaVuSans-61" transform="translate(906.324219 0)"/>
     <use xlink:href="#DejaVuSans-74" transform="translate(967.603516 0)"/>
     <use xlink:href="#DejaVuSans-75" transform="translate(1006.8125 0)"/>
     <use xlink:href="#DejaVuSans-72" transform="translate(1070.191406 0)"/>
     <use xlink:href="#DejaVuSans-65" transform="translate(1109.054688 0)"/>
     <use xlink:href="#DejaVuSans-20" transform="translate(1170.578125 0)"/>
     <use xlink:href="#DejaVuSans-28" transform="translate(1202.365234 0)"/>
     <use xlink:href="#DejaVuSans-62" transform="translate(1241.378906 0)"/>
     <use xlink:href="#DejaVuSans-69" transform="translate(1304.855469 0)"/>
     <use xlink:href="#DejaVuSans-6e" transform="translate(1332.638672 0)"/>
     <use xlink:href="#DejaVuSans-6e" transform="translate(1396.017578 0)"/>
     <use xlink:href="#DejaVuSans-65" transform="translate(1459.396484 0)"/>
     <use xlink:href="#DejaVuSans-64" transform="translate(1520.919922 0)"/>
     <use xlink:href="#DejaVuSans-20" transform="translate(1584.396484 0)"/>
     <use xlink:href="#DejaVuSans-69" transform="translate(1616.183594 0)"/>
     <use xlink:href="#DejaVuSans-6e" transform="translate(1643.966797 0)"/>
     <use xlink:href="#DejaVuSans-74" transform="translate(1707.345703 0)"/>
     <use xlink:href="#DejaVuSans-6f" transform="translate(1746.554688 0)"/>
     <use xlink:href="#DejaVuSans-20" transform="translate(1807.736328 0)"/>
     <use xlink:href="#DejaVuSans-31" transform="translate(1839.523438 0)"/>
     <use xlink:href="#DejaVuSans-30" transform="translate(1903.146484 0)"/>
     <use xlink:href="#DejaVuSans-30" transform="translate(1966.769531 0)"/>
     <use xlink:href="#DejaVuSans-20" transform="translate(2030.392578 0)"/>
     <use xlink:href="#DejaVuSans-69" transform="translate(2062.179688 0)"/>
     <use xlink:href="#DejaVuSans-6e" transform="translate(2089.962891 0)"/>
     <use xlink:href="#DejaVuSans-74" transform="translate(2153.341797 0)"/>
     <use xlink:href="#DejaVuSans-65" transform="translate(2192.550781 0)"/>
     <use xlink:href="#DejaVuSans-72" transform="translate(2254.074219 0)"/>
     <use xlink:href="#DejaVuSans-76" transform="translate(2295.1875 0)"/>
     <use xlink:href="#DejaVuSans-61" transform="translate(2354.367188 0)"/>
     <use xlink:href="#DejaVuSans-6c" transform="translate(2415.646484 0)"/>
     <use xlink:href="#DejaVuSans-73" transform="translate(2443.429688 0)"/>
     <use xlink:href="#DejaVuSans-29" transform="translate(2495.529297 0)"/>
    </g>
   </g>
   <g id="legend_1">
    <g id="patch_8">
     <path d="M 531.195312 59.674375 
L 594.78125 59.674375 
Q 596.78125 59.674375 596.78125 57.674375 
L 596.78125 29.318125 
Q 596.78125 27.318125 594.78125 27.318125 
L 531.195312 27.318125 
Q 529.195312 27.318125 529.195312 29.318125 
L 529.195312 57.674375 
Q 529.195312 59.674375 531.195312 59.674375 
z
" style="fill: #ffffff; opacity: 0.8; stroke: #cccccc; stroke-linejoin: miter"/>
    </g>
    <g id="line2d_31">
     <path d="M 533.195312 35.416562 
L 543.195312 35.416562 
L 553.195312 35.416562 
" style="fill: none; stroke: #1f77b4; stroke-width: 1.5; stroke-linecap: square"/>
     <g>
      <use xlink:href="#m0a73260e8d" x="543.195312" y="35.416562" style="fill: #1f77b4; stroke: #1f77b4"/>
     </g>
    </g>
    <g id="text_19">
     <!-- PanCK -->
     <g transform="translate(561.195312 38.916562) scale(0.1 -0.1)">
      <defs>
       <path id="DejaVuSans-43" d="M 4122 4306 
L 4122 3641 
Q 3803 3938 3442 4084 
Q 3081 4231 2675 4231 
Q 1875 4231 1450 3742 
Q 1025 3253 1025 2328 
Q 1025 1406 1450 917 
Q 1875 428 2675 428 
Q 3081 428 3442 575 
Q 3803 722 4122 1019 
L 4122 359 
Q 3791 134 3420 21 
Q 3050 -91 2638 -91 
Q 1578 -91 968 557 
Q 359 1206 359 2328 
Q 359 3453 968 4101 
Q 1578 4750 2638 4750 
Q 3056 4750 3426 4639 
Q 3797 4528 4122 4306 
z
" transform="scale(0.015625)"/>
       <path id="DejaVuSans-4b" d="M 628 4666 
L 1259 4666 
L 1259 2694 
L 3353 4666 
L 4166 4666 
L 1850 2491 
L 4331 0 
L 3500 0 
L 1259 2247 
L 1259 0 
L 628 0 
L 628 4666 
z
" transform="scale(0.015625)"/>
      </defs>
      <use xlink:href="#DejaVuSans-50"/>
      <use xlink:href="#DejaVuSans-61" transform="translate(55.802734 0)"/>
      <use xlink:href="#DejaVuSans-6e" transform="translate(117.082031 0)"/>
      <use xlink:href="#DejaVuSans-43" transform="translate(180.460938 0)"/>
      <use xlink:href="#DejaVuSans-4b" transform="translate(250.285156 0)"/>
     </g>
    </g>
    <g id="line2d_32">
     <path d="M 533.195312 50.094687 
L 543.195312 50.094687 
L 553.195312 50.094687 
" style="fill: none; stroke: #ff7f0e; stroke-width: 1.5; stroke-linecap: square"/>
     <g>
      <use xlink:href="#m2ddee262e8" x="543.195312" y="50.094687" style="fill: #ff7f0e; stroke: #ff7f0e"/>
     </g>
    </g>
    <g id="text_20">
     <!-- aSMA -->
     <g transform="translate(561.195312 53.594687) scale(0.1 -0.1)">
      <defs>
       <path id="DejaVuSans-53" d="M 3425 4513 
L 3425 3897 
Q 3066 4069 2747 4153 
Q 2428 4238 2131 4238 
Q 1616 4238 1336 4038 
Q 1056 3838 1056 3469 
Q 1056 3159 1242 3001 
Q 1428 2844 1947 2747 
L 2328 2669 
Q 3034 2534 3370 2195 
Q 3706 1856 3706 1288 
Q 3706 609 3251 259 
Q 2797 -91 1919 -91 
Q 1588 -91 1214 -16 
Q 841 59 441 206 
L 441 856 
Q 825 641 1194 531 
Q 1563 422 1919 422 
Q 2459 422 2753 634 
Q 3047 847 3047 1241 
Q 3047 1584 2836 1778 
Q 2625 1972 2144 2069 
L 1759 2144 
Q 1053 2284 737 2584 
Q 422 2884 422 3419 
Q 422 4038 858 4394 
Q 1294 4750 2059 4750 
Q 2388 4750 2728 4690 
Q 3069 4631 3425 4513 
z
" transform="scale(0.015625)"/>
       <path id="DejaVuSans-4d" d="M 628 4666 
L 1569 4666 
L 2759 1491 
L 3956 4666 
L 4897 4666 
L 4897 0 
L 4281 0 
L 4281 4097 
L 3078 897 
L 2444 897 
L 1241 4097 
L 1241 0 
L 628 0 
L 628 4666 
z
" transform="scale(0.015625)"/>
       <path id="DejaVuSans-41" d="M 2188 4044 
L 1331 1722 
L 3047 1722 
L 2188 4044 
z
M 1831 4666 
L 2547 4666 
L 4325 0 
L 3669 0 
L 3244 1197 
L 1141 1197 
L 716 0 
L 50 0 
L 1831 4666 
z
" transform="scale(0.015625)"/>
      </defs>
      <use xlink:href="#DejaVuSans-61"/>
      <use xlink:href="#DejaVuSans-53" transform="translate(61.279297 0)"/>
      <use xlink:href="#DejaVuSans-4d" transform="translate(124.755859 0)"/>
      <use xlink:href="#DejaVuSans-41" transform="translate(211.035156 0)"/>
     </g>
    </g>
   </g>
  </g>
 </g>
 <defs>
  <clipPath id="p58b7e9ea5c">
   <rect x="43.78125" y="22.318125" width="558" height="332.64"/>
  </clipPath>
 </defs>
</svg>
