<?xml version="1.0" encoding="utf-8" standalone="no"?>
<!DOCTYPE svg PUBLIC "-//W3C//DTD SVG 1.1//EN"
  "http://www.w3.org/Graphics/SVG/1.1/DTD/svg11.dtd">
<svg xmlns:xlink="http://www.w3.org/1999/xlink" width="608.98125pt" height="392.514375pt" viewBox="0 0 608.98125 392.514375" xmlns="http://www.w3.org/2000/svg" version="1.1">
 <metadata>
  <rdf:RDF xmlns:dc="http://purl.org/dc/elements/1.1/" xmlns:cc="http://creativecommons.org/ns#" xmlns:rdf="http://www.w3.org/1999/02/22-rdf-syntax-ns#">
   <cc:Work>
    <dc:type rdf:resource="http://purl.org/dc/dcmitype/StillImage"/>
    <dc:date>2025-03-05T17:41:37.386452</dc:date>
    <dc:format>image/svg+xml</dc:format>
    <dc:creator>
     <cc:Agent>
      <dc:title>Matplotlib v3.10.0, https://matplotlib.org/</dc:title>
     </cc:Agent>
    </dc:creator>
   </cc:Work>
  </rdf:RDF>
 </metadata>
 <defs>
  <style type="text/css">*{stroke-linejoin: round; stroke-linecap: butt}</style>
 </defs>
 <g id="figure_1">
  <g id="patch_1">
   <path d="M 0 392.514375 
L 608.98125 392.514375 
L 608.98125 0 
L 0 0 
z
" style="fill: #ffffff"/>
  </g>
  <g id="axes_1">
   <g id="patch_2">
    <path d="M 43.78125 354.958125 
L 601.78125 354.958125 
L 601.78125 22.318125 
L 43.78125 22.318125 
z
" style="fill: #ffffff"/>
   </g>
   <g id="matplotlib.axis_1">
    <g id="xtick_1">
     <g id="line2d_1">
      <path d="M 66.582903 354.958125 
L 66.582903 22.318125 
" clip-path="url(#pb026f4da6c)" style="fill: none; stroke: #b0b0b0; stroke-width: 0.8; stroke-linecap: square"/>
     </g>
     <g id="line2d_2">
      <defs>
       <path id="m9356c1cde6" d="M 0 0 
L 0 3.5 
" style="stroke: #000000; stroke-width: 0.8"/>
      </defs>
      <g>
       <use xlink:href="#m9356c1cde6" x="66.582903" y="354.958125" style="stroke: #000000; stroke-width: 0.8"/>
      </g>
     </g>
     <g id="text_1">
      <!-- 0 -->
      <g transform="translate(63.401653 369.556562) scale(0.1 -0.1)">
       <defs>
        <path id="DejaVuSans-30" d="M 2034 4250 
Q 1547 4250 1301 3770 
Q 1056 3291 1056 2328 
Q 1056 1369 1301 889 
Q 1547 409 2034 409 
Q 2525 409 2770 889 
Q 3016 1369 3016 2328 
Q 3016 3291 2770 3770 
Q 2525 4250 2034 4250 
z
M 2034 4750 
Q 2819 4750 3233 4129 
Q 3647 3509 3647 2328 
Q 3647 1150 3233 529 
Q 2819 -91 2034 -91 
Q 1250 -91 836 529 
Q 422 1150 422 2328 
Q 422 3509 836 4129 
Q 1250 4750 2034 4750 
z
" transform="scale(0.015625)"/>
       </defs>
       <use xlink:href="#DejaVuSans-30"/>
      </g>
     </g>
    </g>
    <g id="xtick_2">
     <g id="line2d_3">
      <path d="M 135.697539 354.958125 
L 135.697539 22.318125 
" clip-path="url(#pb026f4da6c)" style="fill: none; stroke: #b0b0b0; stroke-width: 0.8; stroke-linecap: square"/>
     </g>
     <g id="line2d_4">
      <g>
       <use xlink:href="#m9356c1cde6" x="135.697539" y="354.958125" style="stroke: #000000; stroke-width: 0.8"/>
      </g>
     </g>
     <g id="text_2">
      <!-- 1 -->
      <g transform="translate(132.516289 369.556562) scale(0.1 -0.1)">
       <defs>
        <path id="DejaVuSans-31" d="M 794 531 
L 1825 531 
L 1825 4091 
L 703 3866 
L 703 4441 
L 1819 4666 
L 2450 4666 
L 2450 531 
L 3481 531 
L 3481 0 
L 794 0 
L 794 531 
z
" transform="scale(0.015625)"/>
       </defs>
       <use xlink:href="#DejaVuSans-31"/>
      </g>
     </g>
    </g>
    <g id="xtick_3">
     <g id="line2d_5">
      <path d="M 204.812176 354.958125 
L 204.812176 22.318125 
" clip-path="url(#pb026f4da6c)" style="fill: none; stroke: #b0b0b0; stroke-width: 0.8; stroke-linecap: square"/>
     </g>
     <g id="line2d_6">
      <g>
       <use xlink:href="#m9356c1cde6" x="204.812176" y="354.958125" style="stroke: #000000; stroke-width: 0.8"/>
      </g>
     </g>
     <g id="text_3">
      <!-- 2 -->
      <g transform="translate(201.630926 369.556562) scale(0.1 -0.1)">
       <defs>
        <path id="DejaVuSans-32" d="M 1228 531 
L 3431 531 
L 3431 0 
L 469 0 
L 469 531 
Q 828 903 1448 1529 
Q 2069 2156 2228 2338 
Q 2531 2678 2651 2914 
Q 2772 3150 2772 3378 
Q 2772 3750 2511 3984 
Q 2250 4219 1831 4219 
Q 1534 4219 1204 4116 
Q 875 4013 500 3803 
L 500 4441 
Q 881 4594 1212 4672 
Q 1544 4750 1819 4750 
Q 2544 4750 2975 4387 
Q 3406 4025 3406 3419 
Q 3406 3131 3298 2873 
Q 3191 2616 2906 2266 
Q 2828 2175 2409 1742 
Q 1991 1309 1228 531 
z
" transform="scale(0.015625)"/>
       </defs>
       <use xlink:href="#DejaVuSans-32"/>
      </g>
     </g>
    </g>
    <g id="xtick_4">
     <g id="line2d_7">
      <path d="M 273.926812 354.958125 
L 273.926812 22.318125 
" clip-path="url(#pb026f4da6c)" style="fill: none; stroke: #b0b0b0; stroke-width: 0.8; stroke-linecap: square"/>
     </g>
     <g id="line2d_8">
      <g>
       <use xlink:href="#m9356c1cde6" x="273.926812" y="354.958125" style="stroke: #000000; stroke-width: 0.8"/>
      </g>
     </g>
     <g id="text_4">
      <!-- 3 -->
      <g transform="translate(270.745562 369.556562) scale(0.1 -0.1)">
       <defs>
        <path id="DejaVuSans-33" d="M 2597 2516 
Q 3050 2419 3304 2112 
Q 3559 1806 3559 1356 
Q 3559 666 3084 287 
Q 2609 -91 1734 -91 
Q 1441 -91 1130 -33 
Q 819 25 488 141 
L 488 750 
Q 750 597 1062 519 
Q 1375 441 1716 441 
Q 2309 441 2620 675 
Q 2931 909 2931 1356 
Q 2931 1769 2642 2001 
Q 2353 2234 1838 2234 
L 1294 2234 
L 1294 2753 
L 1863 2753 
Q 2328 2753 2575 2939 
Q 2822 3125 2822 3475 
Q 2822 3834 2567 4026 
Q 2313 4219 1838 4219 
Q 1578 4219 1281 4162 
Q 984 4106 628 3988 
L 628 4550 
Q 988 4650 1302 4700 
Q 1616 4750 1894 4750 
Q 2613 4750 3031 4423 
Q 3450 4097 3450 3541 
Q 3450 3153 3228 2886 
Q 3006 2619 2597 2516 
z
" transform="scale(0.015625)"/>
       </defs>
       <use xlink:href="#DejaVuSans-33"/>
      </g>
     </g>
    </g>
    <g id="xtick_5">
     <g id="line2d_9">
      <path d="M 343.041448 354.958125 
L 343.041448 22.318125 
" clip-path="url(#pb026f4da6c)" style="fill: none; stroke: #b0b0b0; stroke-width: 0.8; stroke-linecap: square"/>
     </g>
     <g id="line2d_10">
      <g>
       <use xlink:href="#m9356c1cde6" x="343.041448" y="354.958125" style="stroke: #000000; stroke-width: 0.8"/>
      </g>
     </g>
     <g id="text_5">
      <!-- 4 -->
      <g transform="translate(339.860198 369.556562) scale(0.1 -0.1)">
       <defs>
        <path id="DejaVuSans-34" d="M 2419 4116 
L 825 1625 
L 2419 1625 
L 2419 4116 
z
M 2253 4666 
L 3047 4666 
L 3047 1625 
L 3713 1625 
L 3713 1100 
L 3047 1100 
L 3047 0 
L 2419 0 
L 2419 1100 
L 313 1100 
L 313 1709 
L 2253 4666 
z
" transform="scale(0.015625)"/>
       </defs>
       <use xlink:href="#DejaVuSans-34"/>
      </g>
     </g>
    </g>
    <g id="xtick_6">
     <g id="line2d_11">
      <path d="M 412.156084 354.958125 
L 412.156084 22.318125 
" clip-path="url(#pb026f4da6c)" style="fill: none; stroke: #b0b0b0; stroke-width: 0.8; stroke-linecap: square"/>
     </g>
     <g id="line2d_12">
      <g>
       <use xlink:href="#m9356c1cde6" x="412.156084" y="354.958125" style="stroke: #000000; stroke-width: 0.8"/>
      </g>
     </g>
     <g id="text_6">
      <!-- 5 -->
      <g transform="translate(408.974834 369.556562) scale(0.1 -0.1)">
       <defs>
        <path id="DejaVuSans-35" d="M 691 4666 
L 3169 4666 
L 3169 4134 
L 1269 4134 
L 1269 2991 
Q 1406 3038 1543 3061 
Q 1681 3084 1819 3084 
Q 2600 3084 3056 2656 
Q 3513 2228 3513 1497 
Q 3513 744 3044 326 
Q 2575 -91 1722 -91 
Q 1428 -91 1123 -41 
Q 819 9 494 109 
L 494 744 
Q 775 591 1075 516 
Q 1375 441 1709 441 
Q 2250 441 2565 725 
Q 2881 1009 2881 1497 
Q 2881 1984 2565 2268 
Q 2250 2553 1709 2553 
Q 1456 2553 1204 2497 
Q 953 2441 691 2322 
L 691 4666 
z
" transform="scale(0.015625)"/>
       </defs>
       <use xlink:href="#DejaVuSans-35"/>
      </g>
     </g>
    </g>
    <g id="xtick_7">
     <g id="line2d_13">
      <path d="M 481.270721 354.958125 
L 481.270721 22.318125 
" clip-path="url(#pb026f4da6c)" style="fill: none; stroke: #b0b0b0; stroke-width: 0.8; stroke-linecap: square"/>
     </g>
     <g id="line2d_14">
      <g>
       <use xlink:href="#m9356c1cde6" x="481.270721" y="354.958125" style="stroke: #000000; stroke-width: 0.8"/>
      </g>
     </g>
     <g id="text_7">
      <!-- 6 -->
      <g transform="translate(478.089471 369.556562) scale(0.1 -0.1)">
       <defs>
        <path id="DejaVuSans-36" d="M 2113 2584 
Q 1688 2584 1439 2293 
Q 1191 2003 1191 1497 
Q 1191 994 1439 701 
Q 1688 409 2113 409 
Q 2538 409 2786 701 
Q 3034 994 3034 1497 
Q 3034 2003 2786 2293 
Q 2538 2584 2113 2584 
z
M 3366 4563 
L 3366 3988 
Q 3128 4100 2886 4159 
Q 2644 4219 2406 4219 
Q 1781 4219 1451 3797 
Q 1122 3375 1075 2522 
Q 1259 2794 1537 2939 
Q 1816 3084 2150 3084 
Q 2853 3084 3261 2657 
Q 3669 2231 3669 1497 
Q 3669 778 3244 343 
Q 2819 -91 2113 -91 
Q 1303 -91 875 529 
Q 447 1150 447 2328 
Q 447 3434 972 4092 
Q 1497 4750 2381 4750 
Q 2619 4750 2861 4703 
Q 3103 4656 3366 4563 
z
" transform="scale(0.015625)"/>
       </defs>
       <use xlink:href="#DejaVuSans-36"/>
      </g>
     </g>
    </g>
    <g id="xtick_8">
     <g id="line2d_15">
      <path d="M 550.385357 354.958125 
L 550.385357 22.318125 
" clip-path="url(#pb026f4da6c)" style="fill: none; stroke: #b0b0b0; stroke-width: 0.8; stroke-linecap: square"/>
     </g>
     <g id="line2d_16">
      <g>
       <use xlink:href="#m9356c1cde6" x="550.385357" y="354.958125" style="stroke: #000000; stroke-width: 0.8"/>
      </g>
     </g>
     <g id="text_8">
      <!-- 7 -->
      <g transform="translate(547.204107 369.556562) scale(0.1 -0.1)">
       <defs>
        <path id="DejaVuSans-37" d="M 525 4666 
L 3525 4666 
L 3525 4397 
L 1831 0 
L 1172 0 
L 2766 4134 
L 525 4134 
L 525 4666 
z
" transform="scale(0.015625)"/>
       </defs>
       <use xlink:href="#DejaVuSans-37"/>
      </g>
     </g>
    </g>
    <g id="text_9">
     <!-- Pseudotime -->
     <g transform="translate(293.474219 383.234687) scale(0.1 -0.1)">
      <defs>
       <path id="DejaVuSans-50" d="M 1259 4147 
L 1259 2394 
L 2053 2394 
Q 2494 2394 2734 2622 
Q 2975 2850 2975 3272 
Q 2975 3691 2734 3919 
Q 2494 4147 2053 4147 
L 1259 4147 
z
M 628 4666 
L 2053 4666 
Q 2838 4666 3239 4311 
Q 3641 3956 3641 3272 
Q 3641 2581 3239 2228 
Q 2838 1875 2053 1875 
L 1259 1875 
L 1259 0 
L 628 0 
L 628 4666 
z
" transform="scale(0.015625)"/>
       <path id="DejaVuSans-73" d="M 2834 3397 
L 2834 2853 
Q 2591 2978 2328 3040 
Q 2066 3103 1784 3103 
Q 1356 3103 1142 2972 
Q 928 2841 928 2578 
Q 928 2378 1081 2264 
Q 1234 2150 1697 2047 
L 1894 2003 
Q 2506 1872 2764 1633 
Q 3022 1394 3022 966 
Q 3022 478 2636 193 
Q 2250 -91 1575 -91 
Q 1294 -91 989 -36 
Q 684 19 347 128 
L 347 722 
Q 666 556 975 473 
Q 1284 391 1588 391 
Q 1994 391 2212 530 
Q 2431 669 2431 922 
Q 2431 1156 2273 1281 
Q 2116 1406 1581 1522 
L 1381 1569 
Q 847 1681 609 1914 
Q 372 2147 372 2553 
Q 372 3047 722 3315 
Q 1072 3584 1716 3584 
Q 2034 3584 2315 3537 
Q 2597 3491 2834 3397 
z
" transform="scale(0.015625)"/>
       <path id="DejaVuSans-65" d="M 3597 1894 
L 3597 1613 
L 953 1613 
Q 991 1019 1311 708 
Q 1631 397 2203 397 
Q 2534 397 2845 478 
Q 3156 559 3463 722 
L 3463 178 
Q 3153 47 2828 -22 
Q 2503 -91 2169 -91 
Q 1331 -91 842 396 
Q 353 884 353 1716 
Q 353 2575 817 3079 
Q 1281 3584 2069 3584 
Q 2775 3584 3186 3129 
Q 3597 2675 3597 1894 
z
M 3022 2063 
Q 3016 2534 2758 2815 
Q 2500 3097 2075 3097 
Q 1594 3097 1305 2825 
Q 1016 2553 972 2059 
L 3022 2063 
z
" transform="scale(0.015625)"/>
       <path id="DejaVuSans-75" d="M 544 1381 
L 544 3500 
L 1119 3500 
L 1119 1403 
Q 1119 906 1312 657 
Q 1506 409 1894 409 
Q 2359 409 2629 706 
Q 2900 1003 2900 1516 
L 2900 3500 
L 3475 3500 
L 3475 0 
L 2900 0 
L 2900 538 
Q 2691 219 2414 64 
Q 2138 -91 1772 -91 
Q 1169 -91 856 284 
Q 544 659 544 1381 
z
M 1991 3584 
L 1991 3584 
z
" transform="scale(0.015625)"/>
       <path id="DejaVuSans-64" d="M 2906 2969 
L 2906 4863 
L 3481 4863 
L 3481 0 
L 2906 0 
L 2906 525 
Q 2725 213 2448 61 
Q 2172 -91 1784 -91 
Q 1150 -91 751 415 
Q 353 922 353 1747 
Q 353 2572 751 3078 
Q 1150 3584 1784 3584 
Q 2172 3584 2448 3432 
Q 2725 3281 2906 2969 
z
M 947 1747 
Q 947 1113 1208 752 
Q 1469 391 1925 391 
Q 2381 391 2643 752 
Q 2906 1113 2906 1747 
Q 2906 2381 2643 2742 
Q 2381 3103 1925 3103 
Q 1469 3103 1208 2742 
Q 947 2381 947 1747 
z
" transform="scale(0.015625)"/>
       <path id="DejaVuSans-6f" d="M 1959 3097 
Q 1497 3097 1228 2736 
Q 959 2375 959 1747 
Q 959 1119 1226 758 
Q 1494 397 1959 397 
Q 2419 397 2687 759 
Q 2956 1122 2956 1747 
Q 2956 2369 2687 2733 
Q 2419 3097 1959 3097 
z
M 1959 3584 
Q 2709 3584 3137 3096 
Q 3566 2609 3566 1747 
Q 3566 888 3137 398 
Q 2709 -91 1959 -91 
Q 1206 -91 779 398 
Q 353 888 353 1747 
Q 353 2609 779 3096 
Q 1206 3584 1959 3584 
z
" transform="scale(0.015625)"/>
       <path id="DejaVuSans-74" d="M 1172 4494 
L 1172 3500 
L 2356 3500 
L 2356 3053 
L 1172 3053 
L 1172 1153 
Q 1172 725 1289 603 
Q 1406 481 1766 481 
L 2356 481 
L 2356 0 
L 1766 0 
Q 1100 0 847 248 
Q 594 497 594 1153 
L 594 3053 
L 172 3053 
L 172 3500 
L 594 3500 
L 594 4494 
L 1172 4494 
z
" transform="scale(0.015625)"/>
       <path id="DejaVuSans-69" d="M 603 3500 
L 1178 3500 
L 1178 0 
L 603 0 
L 603 3500 
z
M 603 4863 
L 1178 4863 
L 1178 4134 
L 603 4134 
L 603 4863 
z
" transform="scale(0.015625)"/>
       <path id="DejaVuSans-6d" d="M 3328 2828 
Q 3544 3216 3844 3400 
Q 4144 3584 4550 3584 
Q 5097 3584 5394 3201 
Q 5691 2819 5691 2113 
L 5691 0 
L 5113 0 
L 5113 2094 
Q 5113 2597 4934 2840 
Q 4756 3084 4391 3084 
Q 3944 3084 3684 2787 
Q 3425 2491 3425 1978 
L 3425 0 
L 2847 0 
L 2847 2094 
Q 2847 2600 2669 2842 
Q 2491 3084 2119 3084 
Q 1678 3084 1418 2786 
Q 1159 2488 1159 1978 
L 1159 0 
L 581 0 
L 581 3500 
L 1159 3500 
L 1159 2956 
Q 1356 3278 1631 3431 
Q 1906 3584 2284 3584 
Q 2666 3584 2933 3390 
Q 3200 3197 3328 2828 
z
" transform="scale(0.015625)"/>
      </defs>
      <use xlink:href="#DejaVuSans-50"/>
      <use xlink:href="#DejaVuSans-73" transform="translate(58.552734 0)"/>
      <use xlink:href="#DejaVuSans-65" transform="translate(110.652344 0)"/>
      <use xlink:href="#DejaVuSans-75" transform="translate(172.175781 0)"/>
      <use xlink:href="#DejaVuSans-64" transform="translate(235.554688 0)"/>
      <use xlink:href="#DejaVuSans-6f" transform="translate(299.03125 0)"/>
      <use xlink:href="#DejaVuSans-74" transform="translate(360.212891 0)"/>
      <use xlink:href="#DejaVuSans-69" transform="translate(399.421875 0)"/>
      <use xlink:href="#DejaVuSans-6d" transform="translate(427.205078 0)"/>
      <use xlink:href="#DejaVuSans-65" transform="translate(524.617188 0)"/>
     </g>
    </g>
   </g>
   <g id="matplotlib.axis_2">
    <g id="ytick_1">
     <g id="line2d_17">
      <path d="M 43.78125 339.838125 
L 601.78125 339.838125 
" clip-path="url(#pb026f4da6c)" style="fill: none; stroke: #b0b0b0; stroke-width: 0.8; stroke-linecap: square"/>
     </g>
     <g id="line2d_18">
      <defs>
       <path id="m7a32f6b442" d="M 0 0 
L -3.5 0 
" style="stroke: #000000; stroke-width: 0.8"/>
      </defs>
      <g>
       <use xlink:href="#m7a32f6b442" x="43.78125" y="339.838125" style="stroke: #000000; stroke-width: 0.8"/>
      </g>
     </g>
     <g id="text_10">
      <!-- 0.0 -->
      <g transform="translate(20.878125 343.637344) scale(0.1 -0.1)">
       <defs>
        <path id="DejaVuSans-2e" d="M 684 794 
L 1344 794 
L 1344 0 
L 684 0 
L 684 794 
z
" transform="scale(0.015625)"/>
       </defs>
       <use xlink:href="#DejaVuSans-30"/>
       <use xlink:href="#DejaVuSans-2e" transform="translate(63.623047 0)"/>
       <use xlink:href="#DejaVuSans-30" transform="translate(95.410156 0)"/>
      </g>
     </g>
    </g>
    <g id="ytick_2">
     <g id="line2d_19">
      <path d="M 43.78125 279.358125 
L 601.78125 279.358125 
" clip-path="url(#pb026f4da6c)" style="fill: none; stroke: #b0b0b0; stroke-width: 0.8; stroke-linecap: square"/>
     </g>
     <g id="line2d_20">
      <g>
       <use xlink:href="#m7a32f6b442" x="43.78125" y="279.358125" style="stroke: #000000; stroke-width: 0.8"/>
      </g>
     </g>
     <g id="text_11">
      <!-- 0.2 -->
      <g transform="translate(20.878125 283.157344) scale(0.1 -0.1)">
       <use xlink:href="#DejaVuSans-30"/>
       <use xlink:href="#DejaVuSans-2e" transform="translate(63.623047 0)"/>
       <use xlink:href="#DejaVuSans-32" transform="translate(95.410156 0)"/>
      </g>
     </g>
    </g>
    <g id="ytick_3">
     <g id="line2d_21">
      <path d="M 43.78125 218.878125 
L 601.78125 218.878125 
" clip-path="url(#pb026f4da6c)" style="fill: none; stroke: #b0b0b0; stroke-width: 0.8; stroke-linecap: square"/>
     </g>
     <g id="line2d_22">
      <g>
       <use xlink:href="#m7a32f6b442" x="43.78125" y="218.878125" style="stroke: #000000; stroke-width: 0.8"/>
      </g>
     </g>
     <g id="text_12">
      <!-- 0.4 -->
      <g transform="translate(20.878125 222.677344) scale(0.1 -0.1)">
       <use xlink:href="#DejaVuSans-30"/>
       <use xlink:href="#DejaVuSans-2e" transform="translate(63.623047 0)"/>
       <use xlink:href="#DejaVuSans-34" transform="translate(95.410156 0)"/>
      </g>
     </g>
    </g>
    <g id="ytick_4">
     <g id="line2d_23">
      <path d="M 43.78125 158.398125 
L 601.78125 158.398125 
" clip-path="url(#pb026f4da6c)" style="fill: none; stroke: #b0b0b0; stroke-width: 0.8; stroke-linecap: square"/>
     </g>
     <g id="line2d_24">
      <g>
       <use xlink:href="#m7a32f6b442" x="43.78125" y="158.398125" style="stroke: #000000; stroke-width: 0.8"/>
      </g>
     </g>
     <g id="text_13">
      <!-- 0.6 -->
      <g transform="translate(20.878125 162.197344) scale(0.1 -0.1)">
       <use xlink:href="#DejaVuSans-30"/>
       <use xlink:href="#DejaVuSans-2e" transform="translate(63.623047 0)"/>
       <use xlink:href="#DejaVuSans-36" transform="translate(95.410156 0)"/>
      </g>
     </g>
    </g>
    <g id="ytick_5">
     <g id="line2d_25">
      <path d="M 43.78125 97.918125 
L 601.78125 97.918125 
" clip-path="url(#pb026f4da6c)" style="fill: none; stroke: #b0b0b0; stroke-width: 0.8; stroke-linecap: square"/>
     </g>
     <g id="line2d_26">
      <g>
       <use xlink:href="#m7a32f6b442" x="43.78125" y="97.918125" style="stroke: #000000; stroke-width: 0.8"/>
      </g>
     </g>
     <g id="text_14">
      <!-- 0.8 -->
      <g transform="translate(20.878125 101.717344) scale(0.1 -0.1)">
       <defs>
        <path id="DejaVuSans-38" d="M 2034 2216 
Q 1584 2216 1326 1975 
Q 1069 1734 1069 1313 
Q 1069 891 1326 650 
Q 1584 409 2034 409 
Q 2484 409 2743 651 
Q 3003 894 3003 1313 
Q 3003 1734 2745 1975 
Q 2488 2216 2034 2216 
z
M 1403 2484 
Q 997 2584 770 2862 
Q 544 3141 544 3541 
Q 544 4100 942 4425 
Q 1341 4750 2034 4750 
Q 2731 4750 3128 4425 
Q 3525 4100 3525 3541 
Q 3525 3141 3298 2862 
Q 3072 2584 2669 2484 
Q 3125 2378 3379 2068 
Q 3634 1759 3634 1313 
Q 3634 634 3220 271 
Q 2806 -91 2034 -91 
Q 1263 -91 848 271 
Q 434 634 434 1313 
Q 434 1759 690 2068 
Q 947 2378 1403 2484 
z
M 1172 3481 
Q 1172 3119 1398 2916 
Q 1625 2713 2034 2713 
Q 2441 2713 2670 2916 
Q 2900 3119 2900 3481 
Q 2900 3844 2670 4047 
Q 2441 4250 2034 4250 
Q 1625 4250 1398 4047 
Q 1172 3844 1172 3481 
z
" transform="scale(0.015625)"/>
       </defs>
       <use xlink:href="#DejaVuSans-30"/>
       <use xlink:href="#DejaVuSans-2e" transform="translate(63.623047 0)"/>
       <use xlink:href="#DejaVuSans-38" transform="translate(95.410156 0)"/>
      </g>
     </g>
    </g>
    <g id="ytick_6">
     <g id="line2d_27">
      <path d="M 43.78125 37.438125 
L 601.78125 37.438125 
" clip-path="url(#pb026f4da6c)" style="fill: none; stroke: #b0b0b0; stroke-width: 0.8; stroke-linecap: square"/>
     </g>
     <g id="line2d_28">
      <g>
       <use xlink:href="#m7a32f6b442" x="43.78125" y="37.438125" style="stroke: #000000; stroke-width: 0.8"/>
      </g>
     </g>
     <g id="text_15">
      <!-- 1.0 -->
      <g transform="translate(20.878125 41.237344) scale(0.1 -0.1)">
       <use xlink:href="#DejaVuSans-31"/>
       <use xlink:href="#DejaVuSans-2e" transform="translate(63.623047 0)"/>
       <use xlink:href="#DejaVuSans-30" transform="translate(95.410156 0)"/>
      </g>
     </g>
    </g>
    <g id="text_16">
     <!-- Feature Value -->
     <g transform="translate(14.798438 222.848281) rotate(-90) scale(0.1 -0.1)">
      <defs>
       <path id="DejaVuSans-46" d="M 628 4666 
L 3309 4666 
L 3309 4134 
L 1259 4134 
L 1259 2759 
L 3109 2759 
L 3109 2228 
L 1259 2228 
L 1259 0 
L 628 0 
L 628 4666 
z
" transform="scale(0.015625)"/>
       <path id="DejaVuSans-61" d="M 2194 1759 
Q 1497 1759 1228 1600 
Q 959 1441 959 1056 
Q 959 750 1161 570 
Q 1363 391 1709 391 
Q 2188 391 2477 730 
Q 2766 1069 2766 1631 
L 2766 1759 
L 2194 1759 
z
M 3341 1997 
L 3341 0 
L 2766 0 
L 2766 531 
Q 2569 213 2275 61 
Q 1981 -91 1556 -91 
Q 1019 -91 701 211 
Q 384 513 384 1019 
Q 384 1609 779 1909 
Q 1175 2209 1959 2209 
L 2766 2209 
L 2766 2266 
Q 2766 2663 2505 2880 
Q 2244 3097 1772 3097 
Q 1472 3097 1187 3025 
Q 903 2953 641 2809 
L 641 3341 
Q 956 3463 1253 3523 
Q 1550 3584 1831 3584 
Q 2591 3584 2966 3190 
Q 3341 2797 3341 1997 
z
" transform="scale(0.015625)"/>
       <path id="DejaVuSans-72" d="M 2631 2963 
Q 2534 3019 2420 3045 
Q 2306 3072 2169 3072 
Q 1681 3072 1420 2755 
Q 1159 2438 1159 1844 
L 1159 0 
L 581 0 
L 581 3500 
L 1159 3500 
L 1159 2956 
Q 1341 3275 1631 3429 
Q 1922 3584 2338 3584 
Q 2397 3584 2469 3576 
Q 2541 3569 2628 3553 
L 2631 2963 
z
" transform="scale(0.015625)"/>
       <path id="DejaVuSans-20" transform="scale(0.015625)"/>
       <path id="DejaVuSans-56" d="M 1831 0 
L 50 4666 
L 709 4666 
L 2188 738 
L 3669 4666 
L 4325 4666 
L 2547 0 
L 1831 0 
z
" transform="scale(0.015625)"/>
       <path id="DejaVuSans-6c" d="M 603 4863 
L 1178 4863 
L 1178 0 
L 603 0 
L 603 4863 
z
" transform="scale(0.015625)"/>
      </defs>
      <use xlink:href="#DejaVuSans-46"/>
      <use xlink:href="#DejaVuSans-65" transform="translate(52.019531 0)"/>
      <use xlink:href="#DejaVuSans-61" transform="translate(113.542969 0)"/>
      <use xlink:href="#DejaVuSans-74" transform="translate(174.822266 0)"/>
      <use xlink:href="#DejaVuSans-75" transform="translate(214.03125 0)"/>
      <use xlink:href="#DejaVuSans-72" transform="translate(277.410156 0)"/>
      <use xlink:href="#DejaVuSans-65" transform="translate(316.273438 0)"/>
      <use xlink:href="#DejaVuSans-20" transform="translate(377.796875 0)"/>
      <use xlink:href="#DejaVuSans-56" transform="translate(409.583984 0)"/>
      <use xlink:href="#DejaVuSans-61" transform="translate(470.242188 0)"/>
      <use xlink:href="#DejaVuSans-6c" transform="translate(531.521484 0)"/>
      <use xlink:href="#DejaVuSans-75" transform="translate(559.304688 0)"/>
      <use xlink:href="#DejaVuSans-65" transform="translate(622.683594 0)"/>
     </g>
    </g>
   </g>
   <g id="line2d_29">
    <path d="M 69.144886 339.838125 
L 74.268853 299.57685 
L 79.39282 264.348235 
L 84.516787 297.683616 
L 89.640754 335.475126 
L 94.764721 307.570024 
L 99.888688 333.498612 
L 105.012655 312.67094 
L 110.136622 271.654124 
L 115.260589 246.46821 
L 120.384556 252.835685 
L 125.508523 247.387203 
L 130.63249 245.695227 
L 135.756457 288.786109 
L 140.880424 262.079499 
L 146.00439 263.114886 
L 151.128357 225.026271 
L 156.252324 229.975335 
L 161.376291 220.88457 
L 166.500258 244.26682 
L 171.624225 214.216075 
L 176.748192 225.127339 
L 181.872159 244.490665 
L 186.996126 249.203866 
L 192.120093 246.655819 
L 197.24406 275.207727 
L 202.368027 272.998402 
L 207.491994 254.812477 
L 212.615961 242.926682 
L 217.739928 246.708781 
L 222.863895 254.285152 
L 227.987862 263.575026 
L 233.111829 282.02093 
L 238.235795 292.988988 
L 243.359762 283.28936 
L 248.483729 263.331555 
L 253.607696 254.954194 
L 258.731663 260.65269 
L 263.85563 245.271655 
L 268.979597 254.999995 
L 274.103564 259.207264 
L 279.227531 258.375089 
L 284.351498 235.954665 
L 289.475465 240.855726 
L 294.599432 223.915446 
L 299.723399 233.278553 
L 304.847366 224.937744 
L 309.971333 206.274031 
L 315.0953 182.582909 
L 320.219267 180.016228 
L 325.343233 175.72057 
L 330.4672 172.289225 
L 335.591167 166.852589 
L 340.715134 178.791631 
L 345.839101 164.626725 
L 350.963068 133.705215 
L 356.087035 129.92321 
L 361.211002 141.417307 
L 366.334969 122.852337 
L 371.458936 135.465775 
L 376.582903 146.000445 
L 381.70687 113.316521 
L 386.830837 115.721438 
L 391.954804 76.171264 
L 397.078771 40.823329 
L 402.202738 38.936365 
L 407.326705 78.371395 
L 412.450671 69.659234 
L 417.574638 109.459897 
L 422.698605 160.631772 
L 427.822572 158.076074 
L 432.946539 177.50812 
L 438.070506 189.950285 
L 443.194473 166.032268 
L 448.31844 135.947815 
L 453.442407 144.082301 
L 458.566374 119.712132 
L 463.690341 116.721714 
L 468.814308 141.270422 
L 473.938275 133.307591 
L 479.062242 119.997379 
L 484.186209 37.438125 
L 489.310176 57.835173 
L 494.434143 72.852263 
L 499.55811 105.590033 
L 504.682076 161.584477 
L 509.806043 254.887379 
L 514.93001 289.65602 
L 520.053977 329.445353 
L 525.177944 328.555026 
L 530.301911 297.351421 
L 535.425878 321.347195 
L 540.549845 273.456043 
L 545.673812 233.66671 
L 550.797779 277.056054 
L 555.921746 277.056054 
L 561.045713 253.060281 
L 566.16968 253.060281 
L 571.293647 305.145315 
L 576.417614 314.731333 
" clip-path="url(#pb026f4da6c)" style="fill: none; stroke: #1f77b4; stroke-width: 1.5; stroke-linecap: square"/>
    <defs>
     <path id="maba04e1bde" d="M 0 1.5 
C 0.397805 1.5 0.77937 1.341951 1.06066 1.06066 
C 1.341951 0.77937 1.5 0.397805 1.5 0 
C 1.5 -0.397805 1.341951 -0.77937 1.06066 -1.06066 
C 0.77937 -1.341951 0.397805 -1.5 0 -1.5 
C -0.397805 -1.5 -0.77937 -1.341951 -1.06066 -1.06066 
C -1.341951 -0.77937 -1.5 -0.397805 -1.5 0 
C -1.5 0.397805 -1.341951 0.77937 -1.06066 1.06066 
C -0.77937 1.341951 -0.397805 1.5 0 1.5 
z
" style="stroke: #1f77b4"/>
    </defs>
    <g clip-path="url(#pb026f4da6c)">
     <use xlink:href="#maba04e1bde" x="69.144886" y="339.838125" style="fill: #1f77b4; stroke: #1f77b4"/>
     <use xlink:href="#maba04e1bde" x="74.268853" y="299.57685" style="fill: #1f77b4; stroke: #1f77b4"/>
     <use xlink:href="#maba04e1bde" x="79.39282" y="264.348235" style="fill: #1f77b4; stroke: #1f77b4"/>
     <use xlink:href="#maba04e1bde" x="84.516787" y="297.683616" style="fill: #1f77b4; stroke: #1f77b4"/>
     <use xlink:href="#maba04e1bde" x="89.640754" y="335.475126" style="fill: #1f77b4; stroke: #1f77b4"/>
     <use xlink:href="#maba04e1bde" x="94.764721" y="307.570024" style="fill: #1f77b4; stroke: #1f77b4"/>
     <use xlink:href="#maba04e1bde" x="99.888688" y="333.498612" style="fill: #1f77b4; stroke: #1f77b4"/>
     <use xlink:href="#maba04e1bde" x="105.012655" y="312.67094" style="fill: #1f77b4; stroke: #1f77b4"/>
     <use xlink:href="#maba04e1bde" x="110.136622" y="271.654124" style="fill: #1f77b4; stroke: #1f77b4"/>
     <use xlink:href="#maba04e1bde" x="115.260589" y="246.46821" style="fill: #1f77b4; stroke: #1f77b4"/>
     <use xlink:href="#maba04e1bde" x="120.384556" y="252.835685" style="fill: #1f77b4; stroke: #1f77b4"/>
     <use xlink:href="#maba04e1bde" x="125.508523" y="247.387203" style="fill: #1f77b4; stroke: #1f77b4"/>
     <use xlink:href="#maba04e1bde" x="130.63249" y="245.695227" style="fill: #1f77b4; stroke: #1f77b4"/>
     <use xlink:href="#maba04e1bde" x="135.756457" y="288.786109" style="fill: #1f77b4; stroke: #1f77b4"/>
     <use xlink:href="#maba04e1bde" x="140.880424" y="262.079499" style="fill: #1f77b4; stroke: #1f77b4"/>
     <use xlink:href="#maba04e1bde" x="146.00439" y="263.114886" style="fill: #1f77b4; stroke: #1f77b4"/>
     <use xlink:href="#maba04e1bde" x="151.128357" y="225.026271" style="fill: #1f77b4; stroke: #1f77b4"/>
     <use xlink:href="#maba04e1bde" x="156.252324" y="229.975335" style="fill: #1f77b4; stroke: #1f77b4"/>
     <use xlink:href="#maba04e1bde" x="161.376291" y="220.88457" style="fill: #1f77b4; stroke: #1f77b4"/>
     <use xlink:href="#maba04e1bde" x="166.500258" y="244.26682" style="fill: #1f77b4; stroke: #1f77b4"/>
     <use xlink:href="#maba04e1bde" x="171.624225" y="214.216075" style="fill: #1f77b4; stroke: #1f77b4"/>
     <use xlink:href="#maba04e1bde" x="176.748192" y="225.127339" style="fill: #1f77b4; stroke: #1f77b4"/>
     <use xlink:href="#maba04e1bde" x="181.872159" y="244.490665" style="fill: #1f77b4; stroke: #1f77b4"/>
     <use xlink:href="#maba04e1bde" x="186.996126" y="249.203866" style="fill: #1f77b4; stroke: #1f77b4"/>
     <use xlink:href="#maba04e1bde" x="192.120093" y="246.655819" style="fill: #1f77b4; stroke: #1f77b4"/>
     <use xlink:href="#maba04e1bde" x="197.24406" y="275.207727" style="fill: #1f77b4; stroke: #1f77b4"/>
     <use xlink:href="#maba04e1bde" x="202.368027" y="272.998402" style="fill: #1f77b4; stroke: #1f77b4"/>
     <use xlink:href="#maba04e1bde" x="207.491994" y="254.812477" style="fill: #1f77b4; stroke: #1f77b4"/>
     <use xlink:href="#maba04e1bde" x="212.615961" y="242.926682" style="fill: #1f77b4; stroke: #1f77b4"/>
     <use xlink:href="#maba04e1bde" x="217.739928" y="246.708781" style="fill: #1f77b4; stroke: #1f77b4"/>
     <use xlink:href="#maba04e1bde" x="222.863895" y="254.285152" style="fill: #1f77b4; stroke: #1f77b4"/>
     <use xlink:href="#maba04e1bde" x="227.987862" y="263.575026" style="fill: #1f77b4; stroke: #1f77b4"/>
     <use xlink:href="#maba04e1bde" x="233.111829" y="282.02093" style="fill: #1f77b4; stroke: #1f77b4"/>
     <use xlink:href="#maba04e1bde" x="238.235795" y="292.988988" style="fill: #1f77b4; stroke: #1f77b4"/>
     <use xlink:href="#maba04e1bde" x="243.359762" y="283.28936" style="fill: #1f77b4; stroke: #1f77b4"/>
     <use xlink:href="#maba04e1bde" x="248.483729" y="263.331555" style="fill: #1f77b4; stroke: #1f77b4"/>
     <use xlink:href="#maba04e1bde" x="253.607696" y="254.954194" style="fill: #1f77b4; stroke: #1f77b4"/>
     <use xlink:href="#maba04e1bde" x="258.731663" y="260.65269" style="fill: #1f77b4; stroke: #1f77b4"/>
     <use xlink:href="#maba04e1bde" x="263.85563" y="245.271655" style="fill: #1f77b4; stroke: #1f77b4"/>
     <use xlink:href="#maba04e1bde" x="268.979597" y="254.999995" style="fill: #1f77b4; stroke: #1f77b4"/>
     <use xlink:href="#maba04e1bde" x="274.103564" y="259.207264" style="fill: #1f77b4; stroke: #1f77b4"/>
     <use xlink:href="#maba04e1bde" x="279.227531" y="258.375089" style="fill: #1f77b4; stroke: #1f77b4"/>
     <use xlink:href="#maba04e1bde" x="284.351498" y="235.954665" style="fill: #1f77b4; stroke: #1f77b4"/>
     <use xlink:href="#maba04e1bde" x="289.475465" y="240.855726" style="fill: #1f77b4; stroke: #1f77b4"/>
     <use xlink:href="#maba04e1bde" x="294.599432" y="223.915446" style="fill: #1f77b4; stroke: #1f77b4"/>
     <use xlink:href="#maba04e1bde" x="299.723399" y="233.278553" style="fill: #1f77b4; stroke: #1f77b4"/>
     <use xlink:href="#maba04e1bde" x="304.847366" y="224.937744" style="fill: #1f77b4; stroke: #1f77b4"/>
     <use xlink:href="#maba04e1bde" x="309.971333" y="206.274031" style="fill: #1f77b4; stroke: #1f77b4"/>
     <use xlink:href="#maba04e1bde" x="315.0953" y="182.582909" style="fill: #1f77b4; stroke: #1f77b4"/>
     <use xlink:href="#maba04e1bde" x="320.219267" y="180.016228" style="fill: #1f77b4; stroke: #1f77b4"/>
     <use xlink:href="#maba04e1bde" x="325.343233" y="175.72057" style="fill: #1f77b4; stroke: #1f77b4"/>
     <use xlink:href="#maba04e1bde" x="330.4672" y="172.289225" style="fill: #1f77b4; stroke: #1f77b4"/>
     <use xlink:href="#maba04e1bde" x="335.591167" y="166.852589" style="fill: #1f77b4; stroke: #1f77b4"/>
     <use xlink:href="#maba04e1bde" x="340.715134" y="178.791631" style="fill: #1f77b4; stroke: #1f77b4"/>
     <use xlink:href="#maba04e1bde" x="345.839101" y="164.626725" style="fill: #1f77b4; stroke: #1f77b4"/>
     <use xlink:href="#maba04e1bde" x="350.963068" y="133.705215" style="fill: #1f77b4; stroke: #1f77b4"/>
     <use xlink:href="#maba04e1bde" x="356.087035" y="129.92321" style="fill: #1f77b4; stroke: #1f77b4"/>
     <use xlink:href="#maba04e1bde" x="361.211002" y="141.417307" style="fill: #1f77b4; stroke: #1f77b4"/>
     <use xlink:href="#maba04e1bde" x="366.334969" y="122.852337" style="fill: #1f77b4; stroke: #1f77b4"/>
     <use xlink:href="#maba04e1bde" x="371.458936" y="135.465775" style="fill: #1f77b4; stroke: #1f77b4"/>
     <use xlink:href="#maba04e1bde" x="376.582903" y="146.000445" style="fill: #1f77b4; stroke: #1f77b4"/>
     <use xlink:href="#maba04e1bde" x="381.70687" y="113.316521" style="fill: #1f77b4; stroke: #1f77b4"/>
     <use xlink:href="#maba04e1bde" x="386.830837" y="115.721438" style="fill: #1f77b4; stroke: #1f77b4"/>
     <use xlink:href="#maba04e1bde" x="391.954804" y="76.171264" style="fill: #1f77b4; stroke: #1f77b4"/>
     <use xlink:href="#maba04e1bde" x="397.078771" y="40.823329" style="fill: #1f77b4; stroke: #1f77b4"/>
     <use xlink:href="#maba04e1bde" x="402.202738" y="38.936365" style="fill: #1f77b4; stroke: #1f77b4"/>
     <use xlink:href="#maba04e1bde" x="407.326705" y="78.371395" style="fill: #1f77b4; stroke: #1f77b4"/>
     <use xlink:href="#maba04e1bde" x="412.450671" y="69.659234" style="fill: #1f77b4; stroke: #1f77b4"/>
     <use xlink:href="#maba04e1bde" x="417.574638" y="109.459897" style="fill: #1f77b4; stroke: #1f77b4"/>
     <use xlink:href="#maba04e1bde" x="422.698605" y="160.631772" style="fill: #1f77b4; stroke: #1f77b4"/>
     <use xlink:href="#maba04e1bde" x="427.822572" y="158.076074" style="fill: #1f77b4; stroke: #1f77b4"/>
     <use xlink:href="#maba04e1bde" x="432.946539" y="177.50812" style="fill: #1f77b4; stroke: #1f77b4"/>
     <use xlink:href="#maba04e1bde" x="438.070506" y="189.950285" style="fill: #1f77b4; stroke: #1f77b4"/>
     <use xlink:href="#maba04e1bde" x="443.194473" y="166.032268" style="fill: #1f77b4; stroke: #1f77b4"/>
     <use xlink:href="#maba04e1bde" x="448.31844" y="135.947815" style="fill: #1f77b4; stroke: #1f77b4"/>
     <use xlink:href="#maba04e1bde" x="453.442407" y="144.082301" style="fill: #1f77b4; stroke: #1f77b4"/>
     <use xlink:href="#maba04e1bde" x="458.566374" y="119.712132" style="fill: #1f77b4; stroke: #1f77b4"/>
     <use xlink:href="#maba04e1bde" x="463.690341" y="116.721714" style="fill: #1f77b4; stroke: #1f77b4"/>
     <use xlink:href="#maba04e1bde" x="468.814308" y="141.270422" style="fill: #1f77b4; stroke: #1f77b4"/>
     <use xlink:href="#maba04e1bde" x="473.938275" y="133.307591" style="fill: #1f77b4; stroke: #1f77b4"/>
     <use xlink:href="#maba04e1bde" x="479.062242" y="119.997379" style="fill: #1f77b4; stroke: #1f77b4"/>
     <use xlink:href="#maba04e1bde" x="484.186209" y="37.438125" style="fill: #1f77b4; stroke: #1f77b4"/>
     <use xlink:href="#maba04e1bde" x="489.310176" y="57.835173" style="fill: #1f77b4; stroke: #1f77b4"/>
     <use xlink:href="#maba04e1bde" x="494.434143" y="72.852263" style="fill: #1f77b4; stroke: #1f77b4"/>
     <use xlink:href="#maba04e1bde" x="499.55811" y="105.590033" style="fill: #1f77b4; stroke: #1f77b4"/>
     <use xlink:href="#maba04e1bde" x="504.682076" y="161.584477" style="fill: #1f77b4; stroke: #1f77b4"/>
     <use xlink:href="#maba04e1bde" x="509.806043" y="254.887379" style="fill: #1f77b4; stroke: #1f77b4"/>
     <use xlink:href="#maba04e1bde" x="514.93001" y="289.65602" style="fill: #1f77b4; stroke: #1f77b4"/>
     <use xlink:href="#maba04e1bde" x="520.053977" y="329.445353" style="fill: #1f77b4; stroke: #1f77b4"/>
     <use xlink:href="#maba04e1bde" x="525.177944" y="328.555026" style="fill: #1f77b4; stroke: #1f77b4"/>
     <use xlink:href="#maba04e1bde" x="530.301911" y="297.351421" style="fill: #1f77b4; stroke: #1f77b4"/>
     <use xlink:href="#maba04e1bde" x="535.425878" y="321.347195" style="fill: #1f77b4; stroke: #1f77b4"/>
     <use xlink:href="#maba04e1bde" x="540.549845" y="273.456043" style="fill: #1f77b4; stroke: #1f77b4"/>
     <use xlink:href="#maba04e1bde" x="545.673812" y="233.66671" style="fill: #1f77b4; stroke: #1f77b4"/>
     <use xlink:href="#maba04e1bde" x="550.797779" y="277.056054" style="fill: #1f77b4; stroke: #1f77b4"/>
     <use xlink:href="#maba04e1bde" x="555.921746" y="277.056054" style="fill: #1f77b4; stroke: #1f77b4"/>
     <use xlink:href="#maba04e1bde" x="561.045713" y="253.060281" style="fill: #1f77b4; stroke: #1f77b4"/>
     <use xlink:href="#maba04e1bde" x="566.16968" y="253.060281" style="fill: #1f77b4; stroke: #1f77b4"/>
     <use xlink:href="#maba04e1bde" x="571.293647" y="305.145315" style="fill: #1f77b4; stroke: #1f77b4"/>
     <use xlink:href="#maba04e1bde" x="576.417614" y="314.731333" style="fill: #1f77b4; stroke: #1f77b4"/>
    </g>
   </g>
   <g id="line2d_30">
    <path d="M 69.144886 294.134147 
L 74.268853 184.828208 
L 79.39282 100.204255 
L 84.516787 67.675395 
L 89.640754 37.438125 
L 94.764721 54.259236 
L 99.888688 41.778765 
L 105.012655 38.797061 
L 110.136622 93.025685 
L 115.260589 105.602803 
L 120.384556 110.634052 
L 125.508523 118.187444 
L 130.63249 120.933886 
L 135.756457 83.235222 
L 140.880424 101.671526 
L 146.00439 113.203952 
L 151.128357 142.862519 
L 156.252324 135.782076 
L 161.376291 137.880739 
L 166.500258 121.230217 
L 171.624225 123.508114 
L 176.748192 109.764131 
L 181.872159 95.714167 
L 186.996126 96.470049 
L 192.120093 98.52351 
L 197.24406 85.081331 
L 202.368027 85.762132 
L 207.491994 98.834831 
L 212.615961 105.807953 
L 217.739928 106.593699 
L 222.863895 98.815081 
L 227.987862 97.550385 
L 233.111829 79.76939 
L 238.235795 73.147479 
L 243.359762 79.972444 
L 248.483729 96.214441 
L 253.607696 94.799779 
L 258.731663 101.180051 
L 263.85563 113.267655 
L 268.979597 111.561088 
L 274.103564 106.763009 
L 279.227531 118.598648 
L 284.351498 128.872643 
L 289.475465 111.260377 
L 294.599432 119.764932 
L 299.723399 112.287305 
L 304.847366 122.398846 
L 309.971333 138.166 
L 315.0953 164.043959 
L 320.219267 173.391517 
L 325.343233 193.215839 
L 330.4672 193.307169 
L 335.591167 199.555643 
L 340.715134 194.062678 
L 345.839101 203.184734 
L 350.963068 220.762515 
L 356.087035 232.089825 
L 361.211002 227.610704 
L 366.334969 249.914237 
L 371.458936 249.741462 
L 376.582903 242.6221 
L 381.70687 270.771417 
L 386.830837 275.194107 
L 391.954804 303.966396 
L 397.078771 315.706688 
L 402.202738 324.022012 
L 407.326705 301.666852 
L 412.450671 312.671075 
L 417.574638 284.680941 
L 422.698605 264.519915 
L 427.822572 283.968664 
L 432.946539 263.449841 
L 438.070506 249.378563 
L 443.194473 271.972383 
L 448.31844 282.022329 
L 453.442407 265.318711 
L 458.566374 301.255314 
L 463.690341 309.07781 
L 468.814308 322.631333 
L 473.938275 336.076478 
L 479.062242 325.441096 
L 484.186209 339.838125 
L 489.310176 297.97494 
L 494.434143 243.703986 
L 499.55811 209.745 
L 504.682076 171.661499 
L 509.806043 118.312375 
L 514.93001 112.909636 
L 520.053977 97.898028 
L 525.177944 100.934666 
L 530.301911 123.379431 
L 535.425878 89.990825 
L 540.549845 119.894433 
L 545.673812 134.906041 
L 550.797779 129.250305 
L 555.921746 129.250305 
L 561.045713 162.63891 
L 566.16968 162.63891 
L 571.293647 247.330239 
L 576.417614 334.640667 
" clip-path="url(#pb026f4da6c)" style="fill: none; stroke: #ff7f0e; stroke-width: 1.5; stroke-linecap: square"/>
    <defs>
     <path id="mba7a42df79" d="M 0 1.5 
C 0.397805 1.5 0.77937 1.341951 1.06066 1.06066 
C 1.341951 0.77937 1.5 0.397805 1.5 0 
C 1.5 -0.397805 1.341951 -0.77937 1.06066 -1.06066 
C 0.77937 -1.341951 0.397805 -1.5 0 -1.5 
C -0.397805 -1.5 -0.77937 -1.341951 -1.06066 -1.06066 
C -1.341951 -0.77937 -1.5 -0.397805 -1.5 0 
C -1.5 0.397805 -1.341951 0.77937 -1.06066 1.06066 
C -0.77937 1.341951 -0.397805 1.5 0 1.5 
z
" style="stroke: #ff7f0e"/>
    </defs>
    <g clip-path="url(#pb026f4da6c)">
     <use xlink:href="#mba7a42df79" x="69.144886" y="294.134147" style="fill: #ff7f0e; stroke: #ff7f0e"/>
     <use xlink:href="#mba7a42df79" x="74.268853" y="184.828208" style="fill: #ff7f0e; stroke: #ff7f0e"/>
     <use xlink:href="#mba7a42df79" x="79.39282" y="100.204255" style="fill: #ff7f0e; stroke: #ff7f0e"/>
     <use xlink:href="#mba7a42df79" x="84.516787" y="67.675395" style="fill: #ff7f0e; stroke: #ff7f0e"/>
     <use xlink:href="#mba7a42df79" x="89.640754" y="37.438125" style="fill: #ff7f0e; stroke: #ff7f0e"/>
     <use xlink:href="#mba7a42df79" x="94.764721" y="54.259236" style="fill: #ff7f0e; stroke: #ff7f0e"/>
     <use xlink:href="#mba7a42df79" x="99.888688" y="41.778765" style="fill: #ff7f0e; stroke: #ff7f0e"/>
     <use xlink:href="#mba7a42df79" x="105.012655" y="38.797061" style="fill: #ff7f0e; stroke: #ff7f0e"/>
     <use xlink:href="#mba7a42df79" x="110.136622" y="93.025685" style="fill: #ff7f0e; stroke: #ff7f0e"/>
     <use xlink:href="#mba7a42df79" x="115.260589" y="105.602803" style="fill: #ff7f0e; stroke: #ff7f0e"/>
     <use xlink:href="#mba7a42df79" x="120.384556" y="110.634052" style="fill: #ff7f0e; stroke: #ff7f0e"/>
     <use xlink:href="#mba7a42df79" x="125.508523" y="118.187444" style="fill: #ff7f0e; stroke: #ff7f0e"/>
     <use xlink:href="#mba7a42df79" x="130.63249" y="120.933886" style="fill: #ff7f0e; stroke: #ff7f0e"/>
     <use xlink:href="#mba7a42df79" x="135.756457" y="83.235222" style="fill: #ff7f0e; stroke: #ff7f0e"/>
     <use xlink:href="#mba7a42df79" x="140.880424" y="101.671526" style="fill: #ff7f0e; stroke: #ff7f0e"/>
     <use xlink:href="#mba7a42df79" x="146.00439" y="113.203952" style="fill: #ff7f0e; stroke: #ff7f0e"/>
     <use xlink:href="#mba7a42df79" x="151.128357" y="142.862519" style="fill: #ff7f0e; stroke: #ff7f0e"/>
     <use xlink:href="#mba7a42df79" x="156.252324" y="135.782076" style="fill: #ff7f0e; stroke: #ff7f0e"/>
     <use xlink:href="#mba7a42df79" x="161.376291" y="137.880739" style="fill: #ff7f0e; stroke: #ff7f0e"/>
     <use xlink:href="#mba7a42df79" x="166.500258" y="121.230217" style="fill: #ff7f0e; stroke: #ff7f0e"/>
     <use xlink:href="#mba7a42df79" x="171.624225" y="123.508114" style="fill: #ff7f0e; stroke: #ff7f0e"/>
     <use xlink:href="#mba7a42df79" x="176.748192" y="109.764131" style="fill: #ff7f0e; stroke: #ff7f0e"/>
     <use xlink:href="#mba7a42df79" x="181.872159" y="95.714167" style="fill: #ff7f0e; stroke: #ff7f0e"/>
     <use xlink:href="#mba7a42df79" x="186.996126" y="96.470049" style="fill: #ff7f0e; stroke: #ff7f0e"/>
     <use xlink:href="#mba7a42df79" x="192.120093" y="98.52351" style="fill: #ff7f0e; stroke: #ff7f0e"/>
     <use xlink:href="#mba7a42df79" x="197.24406" y="85.081331" style="fill: #ff7f0e; stroke: #ff7f0e"/>
     <use xlink:href="#mba7a42df79" x="202.368027" y="85.762132" style="fill: #ff7f0e; stroke: #ff7f0e"/>
     <use xlink:href="#mba7a42df79" x="207.491994" y="98.834831" style="fill: #ff7f0e; stroke: #ff7f0e"/>
     <use xlink:href="#mba7a42df79" x="212.615961" y="105.807953" style="fill: #ff7f0e; stroke: #ff7f0e"/>
     <use xlink:href="#mba7a42df79" x="217.739928" y="106.593699" style="fill: #ff7f0e; stroke: #ff7f0e"/>
     <use xlink:href="#mba7a42df79" x="222.863895" y="98.815081" style="fill: #ff7f0e; stroke: #ff7f0e"/>
     <use xlink:href="#mba7a42df79" x="227.987862" y="97.550385" style="fill: #ff7f0e; stroke: #ff7f0e"/>
     <use xlink:href="#mba7a42df79" x="233.111829" y="79.76939" style="fill: #ff7f0e; stroke: #ff7f0e"/>
     <use xlink:href="#mba7a42df79" x="238.235795" y="73.147479" style="fill: #ff7f0e; stroke: #ff7f0e"/>
     <use xlink:href="#mba7a42df79" x="243.359762" y="79.972444" style="fill: #ff7f0e; stroke: #ff7f0e"/>
     <use xlink:href="#mba7a42df79" x="248.483729" y="96.214441" style="fill: #ff7f0e; stroke: #ff7f0e"/>
     <use xlink:href="#mba7a42df79" x="253.607696" y="94.799779" style="fill: #ff7f0e; stroke: #ff7f0e"/>
     <use xlink:href="#mba7a42df79" x="258.731663" y="101.180051" style="fill: #ff7f0e; stroke: #ff7f0e"/>
     <use xlink:href="#mba7a42df79" x="263.85563" y="113.267655" style="fill: #ff7f0e; stroke: #ff7f0e"/>
     <use xlink:href="#mba7a42df79" x="268.979597" y="111.561088" style="fill: #ff7f0e; stroke: #ff7f0e"/>
     <use xlink:href="#mba7a42df79" x="274.103564" y="106.763009" style="fill: #ff7f0e; stroke: #ff7f0e"/>
     <use xlink:href="#mba7a42df79" x="279.227531" y="118.598648" style="fill: #ff7f0e; stroke: #ff7f0e"/>
     <use xlink:href="#mba7a42df79" x="284.351498" y="128.872643" style="fill: #ff7f0e; stroke: #ff7f0e"/>
     <use xlink:href="#mba7a42df79" x="289.475465" y="111.260377" style="fill: #ff7f0e; stroke: #ff7f0e"/>
     <use xlink:href="#mba7a42df79" x="294.599432" y="119.764932" style="fill: #ff7f0e; stroke: #ff7f0e"/>
     <use xlink:href="#mba7a42df79" x="299.723399" y="112.287305" style="fill: #ff7f0e; stroke: #ff7f0e"/>
     <use xlink:href="#mba7a42df79" x="304.847366" y="122.398846" style="fill: #ff7f0e; stroke: #ff7f0e"/>
     <use xlink:href="#mba7a42df79" x="309.971333" y="138.166" style="fill: #ff7f0e; stroke: #ff7f0e"/>
     <use xlink:href="#mba7a42df79" x="315.0953" y="164.043959" style="fill: #ff7f0e; stroke: #ff7f0e"/>
     <use xlink:href="#mba7a42df79" x="320.219267" y="173.391517" style="fill: #ff7f0e; stroke: #ff7f0e"/>
     <use xlink:href="#mba7a42df79" x="325.343233" y="193.215839" style="fill: #ff7f0e; stroke: #ff7f0e"/>
     <use xlink:href="#mba7a42df79" x="330.4672" y="193.307169" style="fill: #ff7f0e; stroke: #ff7f0e"/>
     <use xlink:href="#mba7a42df79" x="335.591167" y="199.555643" style="fill: #ff7f0e; stroke: #ff7f0e"/>
     <use xlink:href="#mba7a42df79" x="340.715134" y="194.062678" style="fill: #ff7f0e; stroke: #ff7f0e"/>
     <use xlink:href="#mba7a42df79" x="345.839101" y="203.184734" style="fill: #ff7f0e; stroke: #ff7f0e"/>
     <use xlink:href="#mba7a42df79" x="350.963068" y="220.762515" style="fill: #ff7f0e; stroke: #ff7f0e"/>
     <use xlink:href="#mba7a42df79" x="356.087035" y="232.089825" style="fill: #ff7f0e; stroke: #ff7f0e"/>
     <use xlink:href="#mba7a42df79" x="361.211002" y="227.610704" style="fill: #ff7f0e; stroke: #ff7f0e"/>
     <use xlink:href="#mba7a42df79" x="366.334969" y="249.914237" style="fill: #ff7f0e; stroke: #ff7f0e"/>
     <use xlink:href="#mba7a42df79" x="371.458936" y="249.741462" style="fill: #ff7f0e; stroke: #ff7f0e"/>
     <use xlink:href="#mba7a42df79" x="376.582903" y="242.6221" style="fill: #ff7f0e; stroke: #ff7f0e"/>
     <use xlink:href="#mba7a42df79" x="381.70687" y="270.771417" style="fill: #ff7f0e; stroke: #ff7f0e"/>
     <use xlink:href="#mba7a42df79" x="386.830837" y="275.194107" style="fill: #ff7f0e; stroke: #ff7f0e"/>
     <use xlink:href="#mba7a42df79" x="391.954804" y="303.966396" style="fill: #ff7f0e; stroke: #ff7f0e"/>
     <use xlink:href="#mba7a42df79" x="397.078771" y="315.706688" style="fill: #ff7f0e; stroke: #ff7f0e"/>
     <use xlink:href="#mba7a42df79" x="402.202738" y="324.022012" style="fill: #ff7f0e; stroke: #ff7f0e"/>
     <use xlink:href="#mba7a42df79" x="407.326705" y="301.666852" style="fill: #ff7f0e; stroke: #ff7f0e"/>
     <use xlink:href="#mba7a42df79" x="412.450671" y="312.671075" style="fill: #ff7f0e; stroke: #ff7f0e"/>
     <use xlink:href="#mba7a42df79" x="417.574638" y="284.680941" style="fill: #ff7f0e; stroke: #ff7f0e"/>
     <use xlink:href="#mba7a42df79" x="422.698605" y="264.519915" style="fill: #ff7f0e; stroke: #ff7f0e"/>
     <use xlink:href="#mba7a42df79" x="427.822572" y="283.968664" style="fill: #ff7f0e; stroke: #ff7f0e"/>
     <use xlink:href="#mba7a42df79" x="432.946539" y="263.449841" style="fill: #ff7f0e; stroke: #ff7f0e"/>
     <use xlink:href="#mba7a42df79" x="438.070506" y="249.378563" style="fill: #ff7f0e; stroke: #ff7f0e"/>
     <use xlink:href="#mba7a42df79" x="443.194473" y="271.972383" style="fill: #ff7f0e; stroke: #ff7f0e"/>
     <use xlink:href="#mba7a42df79" x="448.31844" y="282.022329" style="fill: #ff7f0e; stroke: #ff7f0e"/>
     <use xlink:href="#mba7a42df79" x="453.442407" y="265.318711" style="fill: #ff7f0e; stroke: #ff7f0e"/>
     <use xlink:href="#mba7a42df79" x="458.566374" y="301.255314" style="fill: #ff7f0e; stroke: #ff7f0e"/>
     <use xlink:href="#mba7a42df79" x="463.690341" y="309.07781" style="fill: #ff7f0e; stroke: #ff7f0e"/>
     <use xlink:href="#mba7a42df79" x="468.814308" y="322.631333" style="fill: #ff7f0e; stroke: #ff7f0e"/>
     <use xlink:href="#mba7a42df79" x="473.938275" y="336.076478" style="fill: #ff7f0e; stroke: #ff7f0e"/>
     <use xlink:href="#mba7a42df79" x="479.062242" y="325.441096" style="fill: #ff7f0e; stroke: #ff7f0e"/>
     <use xlink:href="#mba7a42df79" x="484.186209" y="339.838125" style="fill: #ff7f0e; stroke: #ff7f0e"/>
     <use xlink:href="#mba7a42df79" x="489.310176" y="297.97494" style="fill: #ff7f0e; stroke: #ff7f0e"/>
     <use xlink:href="#mba7a42df79" x="494.434143" y="243.703986" style="fill: #ff7f0e; stroke: #ff7f0e"/>
     <use xlink:href="#mba7a42df79" x="499.55811" y="209.745" style="fill: #ff7f0e; stroke: #ff7f0e"/>
     <use xlink:href="#mba7a42df79" x="504.682076" y="171.661499" style="fill: #ff7f0e; stroke: #ff7f0e"/>
     <use xlink:href="#mba7a42df79" x="509.806043" y="118.312375" style="fill: #ff7f0e; stroke: #ff7f0e"/>
     <use xlink:href="#mba7a42df79" x="514.93001" y="112.909636" style="fill: #ff7f0e; stroke: #ff7f0e"/>
     <use xlink:href="#mba7a42df79" x="520.053977" y="97.898028" style="fill: #ff7f0e; stroke: #ff7f0e"/>
     <use xlink:href="#mba7a42df79" x="525.177944" y="100.934666" style="fill: #ff7f0e; stroke: #ff7f0e"/>
     <use xlink:href="#mba7a42df79" x="530.301911" y="123.379431" style="fill: #ff7f0e; stroke: #ff7f0e"/>
     <use xlink:href="#mba7a42df79" x="535.425878" y="89.990825" style="fill: #ff7f0e; stroke: #ff7f0e"/>
     <use xlink:href="#mba7a42df79" x="540.549845" y="119.894433" style="fill: #ff7f0e; stroke: #ff7f0e"/>
     <use xlink:href="#mba7a42df79" x="545.673812" y="134.906041" style="fill: #ff7f0e; stroke: #ff7f0e"/>
     <use xlink:href="#mba7a42df79" x="550.797779" y="129.250305" style="fill: #ff7f0e; stroke: #ff7f0e"/>
     <use xlink:href="#mba7a42df79" x="555.921746" y="129.250305" style="fill: #ff7f0e; stroke: #ff7f0e"/>
     <use xlink:href="#mba7a42df79" x="561.045713" y="162.63891" style="fill: #ff7f0e; stroke: #ff7f0e"/>
     <use xlink:href="#mba7a42df79" x="566.16968" y="162.63891" style="fill: #ff7f0e; stroke: #ff7f0e"/>
     <use xlink:href="#mba7a42df79" x="571.293647" y="247.330239" style="fill: #ff7f0e; stroke: #ff7f0e"/>
     <use xlink:href="#mba7a42df79" x="576.417614" y="334.640667" style="fill: #ff7f0e; stroke: #ff7f0e"/>
    </g>
   </g>
   <g id="line2d_31">
    <path d="M 69.144886 339.838125 
L 74.268853 328.806499 
L 79.39282 306.743246 
L 84.516787 306.743246 
L 89.640754 286.422375 
L 94.764721 281.830833 
L 99.888688 283.250432 
L 105.012655 292.118172 
L 110.136622 267.467116 
L 115.260589 290.768797 
L 120.384556 282.22745 
L 125.508523 284.596491 
L 130.63249 271.546827 
L 135.756457 268.461223 
L 140.880424 268.464634 
L 146.00439 233.228928 
L 151.128357 225.409624 
L 156.252324 235.087492 
L 161.376291 253.716317 
L 166.500258 261.680817 
L 171.624225 302.467401 
L 176.748192 308.345966 
L 181.872159 307.481927 
L 186.996126 295.090892 
L 192.120093 301.131519 
L 197.24406 285.256832 
L 202.368027 279.541585 
L 207.491994 280.965933 
L 212.615961 288.829451 
L 217.739928 284.715475 
L 222.863895 295.418362 
L 227.987862 294.79805 
L 233.111829 302.19592 
L 238.235795 302.658376 
L 243.359762 298.07514 
L 248.483729 291.110999 
L 253.607696 303.029328 
L 258.731663 295.735616 
L 263.85563 275.976174 
L 268.979597 270.053681 
L 274.103564 278.688547 
L 279.227531 261.607023 
L 284.351498 263.052434 
L 289.475465 293.730381 
L 294.599432 299.274376 
L 299.723399 293.332303 
L 304.847366 288.442323 
L 309.971333 286.98672 
L 315.0953 266.339527 
L 320.219267 244.770214 
L 325.343233 214.061325 
L 330.4672 216.118642 
L 335.591167 204.611443 
L 340.715134 210.82138 
L 345.839101 201.702288 
L 350.963068 203.729637 
L 356.087035 182.091423 
L 361.211002 183.246555 
L 366.334969 154.803033 
L 371.458936 166.337614 
L 376.582903 162.783487 
L 381.70687 137.385395 
L 386.830837 105.56154 
L 391.954804 101.759283 
L 397.078771 109.344741 
L 402.202738 128.668512 
L 407.326705 171.190328 
L 412.450671 195.160653 
L 417.574638 209.552032 
L 422.698605 189.53108 
L 427.822572 143.528711 
L 432.946539 125.14262 
L 438.070506 116.714855 
L 443.194473 83.420421 
L 448.31844 97.485245 
L 453.442407 113.396721 
L 458.566374 37.438125 
L 463.690341 61.348891 
L 468.814308 94.580351 
L 473.938275 78.874126 
L 479.062242 93.803382 
L 484.186209 203.920339 
L 489.310176 222.555967 
L 494.434143 231.920449 
L 499.55811 257.237527 
L 504.682076 297.321845 
L 509.806043 284.334665 
L 514.93001 284.334665 
L 520.053977 302.893373 
L 525.177944 328.137915 
L 530.301911 307.907749 
L 535.425878 322.890313 
L 540.549845 297.645771 
L 545.673812 279.087063 
L 550.797779 279.087063 
L 555.921746 279.087063 
L 561.045713 264.104498 
L 566.16968 264.104498 
L 571.293647 289.349041 
L 576.417614 289.349041 
" clip-path="url(#pb026f4da6c)" style="fill: none; stroke: #2ca02c; stroke-width: 1.5; stroke-linecap: square"/>
    <defs>
     <path id="m4b09069613" d="M 0 1.5 
C 0.397805 1.5 0.77937 1.341951 1.06066 1.06066 
C 1.341951 0.77937 1.5 0.397805 1.5 0 
C 1.5 -0.397805 1.341951 -0.77937 1.06066 -1.06066 
C 0.77937 -1.341951 0.397805 -1.5 0 -1.5 
C -0.397805 -1.5 -0.77937 -1.341951 -1.06066 -1.06066 
C -1.341951 -0.77937 -1.5 -0.397805 -1.5 0 
C -1.5 0.397805 -1.341951 0.77937 -1.06066 1.06066 
C -0.77937 1.341951 -0.397805 1.5 0 1.5 
z
" style="stroke: #2ca02c"/>
    </defs>
    <g clip-path="url(#pb026f4da6c)">
     <use xlink:href="#m4b09069613" x="69.144886" y="339.838125" style="fill: #2ca02c; stroke: #2ca02c"/>
     <use xlink:href="#m4b09069613" x="74.268853" y="328.806499" style="fill: #2ca02c; stroke: #2ca02c"/>
     <use xlink:href="#m4b09069613" x="79.39282" y="306.743246" style="fill: #2ca02c; stroke: #2ca02c"/>
     <use xlink:href="#m4b09069613" x="84.516787" y="306.743246" style="fill: #2ca02c; stroke: #2ca02c"/>
     <use xlink:href="#m4b09069613" x="89.640754" y="286.422375" style="fill: #2ca02c; stroke: #2ca02c"/>
     <use xlink:href="#m4b09069613" x="94.764721" y="281.830833" style="fill: #2ca02c; stroke: #2ca02c"/>
     <use xlink:href="#m4b09069613" x="99.888688" y="283.250432" style="fill: #2ca02c; stroke: #2ca02c"/>
     <use xlink:href="#m4b09069613" x="105.012655" y="292.118172" style="fill: #2ca02c; stroke: #2ca02c"/>
     <use xlink:href="#m4b09069613" x="110.136622" y="267.467116" style="fill: #2ca02c; stroke: #2ca02c"/>
     <use xlink:href="#m4b09069613" x="115.260589" y="290.768797" style="fill: #2ca02c; stroke: #2ca02c"/>
     <use xlink:href="#m4b09069613" x="120.384556" y="282.22745" style="fill: #2ca02c; stroke: #2ca02c"/>
     <use xlink:href="#m4b09069613" x="125.508523" y="284.596491" style="fill: #2ca02c; stroke: #2ca02c"/>
     <use xlink:href="#m4b09069613" x="130.63249" y="271.546827" style="fill: #2ca02c; stroke: #2ca02c"/>
     <use xlink:href="#m4b09069613" x="135.756457" y="268.461223" style="fill: #2ca02c; stroke: #2ca02c"/>
     <use xlink:href="#m4b09069613" x="140.880424" y="268.464634" style="fill: #2ca02c; stroke: #2ca02c"/>
     <use xlink:href="#m4b09069613" x="146.00439" y="233.228928" style="fill: #2ca02c; stroke: #2ca02c"/>
     <use xlink:href="#m4b09069613" x="151.128357" y="225.409624" style="fill: #2ca02c; stroke: #2ca02c"/>
     <use xlink:href="#m4b09069613" x="156.252324" y="235.087492" style="fill: #2ca02c; stroke: #2ca02c"/>
     <use xlink:href="#m4b09069613" x="161.376291" y="253.716317" style="fill: #2ca02c; stroke: #2ca02c"/>
     <use xlink:href="#m4b09069613" x="166.500258" y="261.680817" style="fill: #2ca02c; stroke: #2ca02c"/>
     <use xlink:href="#m4b09069613" x="171.624225" y="302.467401" style="fill: #2ca02c; stroke: #2ca02c"/>
     <use xlink:href="#m4b09069613" x="176.748192" y="308.345966" style="fill: #2ca02c; stroke: #2ca02c"/>
     <use xlink:href="#m4b09069613" x="181.872159" y="307.481927" style="fill: #2ca02c; stroke: #2ca02c"/>
     <use xlink:href="#m4b09069613" x="186.996126" y="295.090892" style="fill: #2ca02c; stroke: #2ca02c"/>
     <use xlink:href="#m4b09069613" x="192.120093" y="301.131519" style="fill: #2ca02c; stroke: #2ca02c"/>
     <use xlink:href="#m4b09069613" x="197.24406" y="285.256832" style="fill: #2ca02c; stroke: #2ca02c"/>
     <use xlink:href="#m4b09069613" x="202.368027" y="279.541585" style="fill: #2ca02c; stroke: #2ca02c"/>
     <use xlink:href="#m4b09069613" x="207.491994" y="280.965933" style="fill: #2ca02c; stroke: #2ca02c"/>
     <use xlink:href="#m4b09069613" x="212.615961" y="288.829451" style="fill: #2ca02c; stroke: #2ca02c"/>
     <use xlink:href="#m4b09069613" x="217.739928" y="284.715475" style="fill: #2ca02c; stroke: #2ca02c"/>
     <use xlink:href="#m4b09069613" x="222.863895" y="295.418362" style="fill: #2ca02c; stroke: #2ca02c"/>
     <use xlink:href="#m4b09069613" x="227.987862" y="294.79805" style="fill: #2ca02c; stroke: #2ca02c"/>
     <use xlink:href="#m4b09069613" x="233.111829" y="302.19592" style="fill: #2ca02c; stroke: #2ca02c"/>
     <use xlink:href="#m4b09069613" x="238.235795" y="302.658376" style="fill: #2ca02c; stroke: #2ca02c"/>
     <use xlink:href="#m4b09069613" x="243.359762" y="298.07514" style="fill: #2ca02c; stroke: #2ca02c"/>
     <use xlink:href="#m4b09069613" x="248.483729" y="291.110999" style="fill: #2ca02c; stroke: #2ca02c"/>
     <use xlink:href="#m4b09069613" x="253.607696" y="303.029328" style="fill: #2ca02c; stroke: #2ca02c"/>
     <use xlink:href="#m4b09069613" x="258.731663" y="295.735616" style="fill: #2ca02c; stroke: #2ca02c"/>
     <use xlink:href="#m4b09069613" x="263.85563" y="275.976174" style="fill: #2ca02c; stroke: #2ca02c"/>
     <use xlink:href="#m4b09069613" x="268.979597" y="270.053681" style="fill: #2ca02c; stroke: #2ca02c"/>
     <use xlink:href="#m4b09069613" x="274.103564" y="278.688547" style="fill: #2ca02c; stroke: #2ca02c"/>
     <use xlink:href="#m4b09069613" x="279.227531" y="261.607023" style="fill: #2ca02c; stroke: #2ca02c"/>
     <use xlink:href="#m4b09069613" x="284.351498" y="263.052434" style="fill: #2ca02c; stroke: #2ca02c"/>
     <use xlink:href="#m4b09069613" x="289.475465" y="293.730381" style="fill: #2ca02c; stroke: #2ca02c"/>
     <use xlink:href="#m4b09069613" x="294.599432" y="299.274376" style="fill: #2ca02c; stroke: #2ca02c"/>
     <use xlink:href="#m4b09069613" x="299.723399" y="293.332303" style="fill: #2ca02c; stroke: #2ca02c"/>
     <use xlink:href="#m4b09069613" x="304.847366" y="288.442323" style="fill: #2ca02c; stroke: #2ca02c"/>
     <use xlink:href="#m4b09069613" x="309.971333" y="286.98672" style="fill: #2ca02c; stroke: #2ca02c"/>
     <use xlink:href="#m4b09069613" x="315.0953" y="266.339527" style="fill: #2ca02c; stroke: #2ca02c"/>
     <use xlink:href="#m4b09069613" x="320.219267" y="244.770214" style="fill: #2ca02c; stroke: #2ca02c"/>
     <use xlink:href="#m4b09069613" x="325.343233" y="214.061325" style="fill: #2ca02c; stroke: #2ca02c"/>
     <use xlink:href="#m4b09069613" x="330.4672" y="216.118642" style="fill: #2ca02c; stroke: #2ca02c"/>
     <use xlink:href="#m4b09069613" x="335.591167" y="204.611443" style="fill: #2ca02c; stroke: #2ca02c"/>
     <use xlink:href="#m4b09069613" x="340.715134" y="210.82138" style="fill: #2ca02c; stroke: #2ca02c"/>
     <use xlink:href="#m4b09069613" x="345.839101" y="201.702288" style="fill: #2ca02c; stroke: #2ca02c"/>
     <use xlink:href="#m4b09069613" x="350.963068" y="203.729637" style="fill: #2ca02c; stroke: #2ca02c"/>
     <use xlink:href="#m4b09069613" x="356.087035" y="182.091423" style="fill: #2ca02c; stroke: #2ca02c"/>
     <use xlink:href="#m4b09069613" x="361.211002" y="183.246555" style="fill: #2ca02c; stroke: #2ca02c"/>
     <use xlink:href="#m4b09069613" x="366.334969" y="154.803033" style="fill: #2ca02c; stroke: #2ca02c"/>
     <use xlink:href="#m4b09069613" x="371.458936" y="166.337614" style="fill: #2ca02c; stroke: #2ca02c"/>
     <use xlink:href="#m4b09069613" x="376.582903" y="162.783487" style="fill: #2ca02c; stroke: #2ca02c"/>
     <use xlink:href="#m4b09069613" x="381.70687" y="137.385395" style="fill: #2ca02c; stroke: #2ca02c"/>
     <use xlink:href="#m4b09069613" x="386.830837" y="105.56154" style="fill: #2ca02c; stroke: #2ca02c"/>
     <use xlink:href="#m4b09069613" x="391.954804" y="101.759283" style="fill: #2ca02c; stroke: #2ca02c"/>
     <use xlink:href="#m4b09069613" x="397.078771" y="109.344741" style="fill: #2ca02c; stroke: #2ca02c"/>
     <use xlink:href="#m4b09069613" x="402.202738" y="128.668512" style="fill: #2ca02c; stroke: #2ca02c"/>
     <use xlink:href="#m4b09069613" x="407.326705" y="171.190328" style="fill: #2ca02c; stroke: #2ca02c"/>
     <use xlink:href="#m4b09069613" x="412.450671" y="195.160653" style="fill: #2ca02c; stroke: #2ca02c"/>
     <use xlink:href="#m4b09069613" x="417.574638" y="209.552032" style="fill: #2ca02c; stroke: #2ca02c"/>
     <use xlink:href="#m4b09069613" x="422.698605" y="189.53108" style="fill: #2ca02c; stroke: #2ca02c"/>
     <use xlink:href="#m4b09069613" x="427.822572" y="143.528711" style="fill: #2ca02c; stroke: #2ca02c"/>
     <use xlink:href="#m4b09069613" x="432.946539" y="125.14262" style="fill: #2ca02c; stroke: #2ca02c"/>
     <use xlink:href="#m4b09069613" x="438.070506" y="116.714855" style="fill: #2ca02c; stroke: #2ca02c"/>
     <use xlink:href="#m4b09069613" x="443.194473" y="83.420421" style="fill: #2ca02c; stroke: #2ca02c"/>
     <use xlink:href="#m4b09069613" x="448.31844" y="97.485245" style="fill: #2ca02c; stroke: #2ca02c"/>
     <use xlink:href="#m4b09069613" x="453.442407" y="113.396721" style="fill: #2ca02c; stroke: #2ca02c"/>
     <use xlink:href="#m4b09069613" x="458.566374" y="37.438125" style="fill: #2ca02c; stroke: #2ca02c"/>
     <use xlink:href="#m4b09069613" x="463.690341" y="61.348891" style="fill: #2ca02c; stroke: #2ca02c"/>
     <use xlink:href="#m4b09069613" x="468.814308" y="94.580351" style="fill: #2ca02c; stroke: #2ca02c"/>
     <use xlink:href="#m4b09069613" x="473.938275" y="78.874126" style="fill: #2ca02c; stroke: #2ca02c"/>
     <use xlink:href="#m4b09069613" x="479.062242" y="93.803382" style="fill: #2ca02c; stroke: #2ca02c"/>
     <use xlink:href="#m4b09069613" x="484.186209" y="203.920339" style="fill: #2ca02c; stroke: #2ca02c"/>
     <use xlink:href="#m4b09069613" x="489.310176" y="222.555967" style="fill: #2ca02c; stroke: #2ca02c"/>
     <use xlink:href="#m4b09069613" x="494.434143" y="231.920449" style="fill: #2ca02c; stroke: #2ca02c"/>
     <use xlink:href="#m4b09069613" x="499.55811" y="257.237527" style="fill: #2ca02c; stroke: #2ca02c"/>
     <use xlink:href="#m4b09069613" x="504.682076" y="297.321845" style="fill: #2ca02c; stroke: #2ca02c"/>
     <use xlink:href="#m4b09069613" x="509.806043" y="284.334665" style="fill: #2ca02c; stroke: #2ca02c"/>
     <use xlink:href="#m4b09069613" x="514.93001" y="284.334665" style="fill: #2ca02c; stroke: #2ca02c"/>
     <use xlink:href="#m4b09069613" x="520.053977" y="302.893373" style="fill: #2ca02c; stroke: #2ca02c"/>
     <use xlink:href="#m4b09069613" x="525.177944" y="328.137915" style="fill: #2ca02c; stroke: #2ca02c"/>
     <use xlink:href="#m4b09069613" x="530.301911" y="307.907749" style="fill: #2ca02c; stroke: #2ca02c"/>
     <use xlink:href="#m4b09069613" x="535.425878" y="322.890313" style="fill: #2ca02c; stroke: #2ca02c"/>
     <use xlink:href="#m4b09069613" x="540.549845" y="297.645771" style="fill: #2ca02c; stroke: #2ca02c"/>
     <use xlink:href="#m4b09069613" x="545.673812" y="279.087063" style="fill: #2ca02c; stroke: #2ca02c"/>
     <use xlink:href="#m4b09069613" x="550.797779" y="279.087063" style="fill: #2ca02c; stroke: #2ca02c"/>
     <use xlink:href="#m4b09069613" x="555.921746" y="279.087063" style="fill: #2ca02c; stroke: #2ca02c"/>
     <use xlink:href="#m4b09069613" x="561.045713" y="264.104498" style="fill: #2ca02c; stroke: #2ca02c"/>
     <use xlink:href="#m4b09069613" x="566.16968" y="264.104498" style="fill: #2ca02c; stroke: #2ca02c"/>
     <use xlink:href="#m4b09069613" x="571.293647" y="289.349041" style="fill: #2ca02c; stroke: #2ca02c"/>
     <use xlink:href="#m4b09069613" x="576.417614" y="289.349041" style="fill: #2ca02c; stroke: #2ca02c"/>
    </g>
   </g>
   <g id="line2d_32">
    <path d="M 69.144886 313.132731 
L 74.268853 313.132731 
L 79.39282 266.67923 
L 84.516787 266.67923 
L 89.640754 282.752786 
L 94.764721 299.783917 
L 99.888688 299.783917 
L 105.012655 339.838125 
L 110.136622 309.542363 
L 115.260589 314.591657 
L 120.384556 306.07999 
L 125.508523 298.021522 
L 130.63249 296.353261 
L 135.756457 326.649023 
L 140.880424 310.518054 
L 146.00439 315.670332 
L 151.128357 304.008784 
L 156.252324 304.741575 
L 161.376291 288.151039 
L 166.500258 297.595518 
L 171.624225 294.969081 
L 176.748192 312.641755 
L 181.872159 317.258082 
L 186.996126 325.094281 
L 192.120093 322.890182 
L 197.24406 321.895442 
L 202.368027 312.032452 
L 207.491994 290.178097 
L 212.615961 278.245186 
L 217.739928 287.135774 
L 222.863895 266.656421 
L 227.987862 267.151558 
L 233.111829 287.574999 
L 238.235795 304.145714 
L 243.359762 294.345031 
L 248.483729 319.414389 
L 253.607696 323.428248 
L 258.731663 305.896229 
L 263.85563 298.830454 
L 268.979597 295.748791 
L 274.103564 300.257798 
L 279.227531 291.20067 
L 284.351498 301.207587 
L 289.475465 308.85058 
L 294.599432 311.040494 
L 299.723399 304.362832 
L 304.847366 292.330002 
L 309.971333 283.541635 
L 315.0953 268.515349 
L 320.219267 263.800822 
L 325.343233 263.141571 
L 330.4672 268.954632 
L 335.591167 268.946572 
L 340.715134 252.3704 
L 345.839101 250.078562 
L 350.963068 226.073975 
L 356.087035 214.623105 
L 361.211002 231.77588 
L 366.334969 240.736116 
L 371.458936 222.181731 
L 376.582903 239.73099 
L 381.70687 225.749181 
L 386.830837 184.007104 
L 391.954804 187.934847 
L 397.078771 199.947413 
L 402.202738 180.401307 
L 407.326705 176.401701 
L 412.450671 137.954258 
L 417.574638 114.564194 
L 422.698605 85.123394 
L 427.822572 37.438125 
L 432.946539 53.815181 
L 438.070506 120.307862 
L 443.194473 142.192796 
L 448.31844 163.799176 
L 453.442407 180.475212 
L 458.566374 164.593673 
L 463.690341 145.875156 
L 468.814308 133.19996 
L 473.938275 95.296965 
L 479.062242 141.155756 
L 484.186209 166.963257 
L 489.310176 202.69672 
L 494.434143 218.007989 
L 499.55811 266.86317 
L 504.682076 291.312381 
L 509.806043 295.997032 
L 514.93001 295.997032 
L 520.053977 317.119882 
L 525.177944 240.445887 
L 530.301911 219.323036 
L 535.425878 240.445887 
L 540.549845 219.323036 
L 545.673812 198.200186 
L 550.797779 295.997032 
L 555.921746 295.997032 
L 561.045713 274.874181 
L 566.16968 274.874181 
L 571.293647 295.997032 
L 576.417614 295.997032 
" clip-path="url(#pb026f4da6c)" style="fill: none; stroke: #d62728; stroke-width: 1.5; stroke-linecap: square"/>
    <defs>
     <path id="m002efc3410" d="M 0 1.5 
C 0.397805 1.5 0.77937 1.341951 1.06066 1.06066 
C 1.341951 0.77937 1.5 0.397805 1.5 0 
C 1.5 -0.397805 1.341951 -0.77937 1.06066 -1.06066 
C 0.77937 -1.341951 0.397805 -1.5 0 -1.5 
C -0.397805 -1.5 -0.77937 -1.341951 -1.06066 -1.06066 
C -1.341951 -0.77937 -1.5 -0.397805 -1.5 0 
C -1.5 0.397805 -1.341951 0.77937 -1.06066 1.06066 
C -0.77937 1.341951 -0.397805 1.5 0 1.5 
z
" style="stroke: #d62728"/>
    </defs>
    <g clip-path="url(#pb026f4da6c)">
     <use xlink:href="#m002efc3410" x="69.144886" y="313.132731" style="fill: #d62728; stroke: #d62728"/>
     <use xlink:href="#m002efc3410" x="74.268853" y="313.132731" style="fill: #d62728; stroke: #d62728"/>
     <use xlink:href="#m002efc3410" x="79.39282" y="266.67923" style="fill: #d62728; stroke: #d62728"/>
     <use xlink:href="#m002efc3410" x="84.516787" y="266.67923" style="fill: #d62728; stroke: #d62728"/>
     <use xlink:href="#m002efc3410" x="89.640754" y="282.752786" style="fill: #d62728; stroke: #d62728"/>
     <use xlink:href="#m002efc3410" x="94.764721" y="299.783917" style="fill: #d62728; stroke: #d62728"/>
     <use xlink:href="#m002efc3410" x="99.888688" y="299.783917" style="fill: #d62728; stroke: #d62728"/>
     <use xlink:href="#m002efc3410" x="105.012655" y="339.838125" style="fill: #d62728; stroke: #d62728"/>
     <use xlink:href="#m002efc3410" x="110.136622" y="309.542363" style="fill: #d62728; stroke: #d62728"/>
     <use xlink:href="#m002efc3410" x="115.260589" y="314.591657" style="fill: #d62728; stroke: #d62728"/>
     <use xlink:href="#m002efc3410" x="120.384556" y="306.07999" style="fill: #d62728; stroke: #d62728"/>
     <use xlink:href="#m002efc3410" x="125.508523" y="298.021522" style="fill: #d62728; stroke: #d62728"/>
     <use xlink:href="#m002efc3410" x="130.63249" y="296.353261" style="fill: #d62728; stroke: #d62728"/>
     <use xlink:href="#m002efc3410" x="135.756457" y="326.649023" style="fill: #d62728; stroke: #d62728"/>
     <use xlink:href="#m002efc3410" x="140.880424" y="310.518054" style="fill: #d62728; stroke: #d62728"/>
     <use xlink:href="#m002efc3410" x="146.00439" y="315.670332" style="fill: #d62728; stroke: #d62728"/>
     <use xlink:href="#m002efc3410" x="151.128357" y="304.008784" style="fill: #d62728; stroke: #d62728"/>
     <use xlink:href="#m002efc3410" x="156.252324" y="304.741575" style="fill: #d62728; stroke: #d62728"/>
     <use xlink:href="#m002efc3410" x="161.376291" y="288.151039" style="fill: #d62728; stroke: #d62728"/>
     <use xlink:href="#m002efc3410" x="166.500258" y="297.595518" style="fill: #d62728; stroke: #d62728"/>
     <use xlink:href="#m002efc3410" x="171.624225" y="294.969081" style="fill: #d62728; stroke: #d62728"/>
     <use xlink:href="#m002efc3410" x="176.748192" y="312.641755" style="fill: #d62728; stroke: #d62728"/>
     <use xlink:href="#m002efc3410" x="181.872159" y="317.258082" style="fill: #d62728; stroke: #d62728"/>
     <use xlink:href="#m002efc3410" x="186.996126" y="325.094281" style="fill: #d62728; stroke: #d62728"/>
     <use xlink:href="#m002efc3410" x="192.120093" y="322.890182" style="fill: #d62728; stroke: #d62728"/>
     <use xlink:href="#m002efc3410" x="197.24406" y="321.895442" style="fill: #d62728; stroke: #d62728"/>
     <use xlink:href="#m002efc3410" x="202.368027" y="312.032452" style="fill: #d62728; stroke: #d62728"/>
     <use xlink:href="#m002efc3410" x="207.491994" y="290.178097" style="fill: #d62728; stroke: #d62728"/>
     <use xlink:href="#m002efc3410" x="212.615961" y="278.245186" style="fill: #d62728; stroke: #d62728"/>
     <use xlink:href="#m002efc3410" x="217.739928" y="287.135774" style="fill: #d62728; stroke: #d62728"/>
     <use xlink:href="#m002efc3410" x="222.863895" y="266.656421" style="fill: #d62728; stroke: #d62728"/>
     <use xlink:href="#m002efc3410" x="227.987862" y="267.151558" style="fill: #d62728; stroke: #d62728"/>
     <use xlink:href="#m002efc3410" x="233.111829" y="287.574999" style="fill: #d62728; stroke: #d62728"/>
     <use xlink:href="#m002efc3410" x="238.235795" y="304.145714" style="fill: #d62728; stroke: #d62728"/>
     <use xlink:href="#m002efc3410" x="243.359762" y="294.345031" style="fill: #d62728; stroke: #d62728"/>
     <use xlink:href="#m002efc3410" x="248.483729" y="319.414389" style="fill: #d62728; stroke: #d62728"/>
     <use xlink:href="#m002efc3410" x="253.607696" y="323.428248" style="fill: #d62728; stroke: #d62728"/>
     <use xlink:href="#m002efc3410" x="258.731663" y="305.896229" style="fill: #d62728; stroke: #d62728"/>
     <use xlink:href="#m002efc3410" x="263.85563" y="298.830454" style="fill: #d62728; stroke: #d62728"/>
     <use xlink:href="#m002efc3410" x="268.979597" y="295.748791" style="fill: #d62728; stroke: #d62728"/>
     <use xlink:href="#m002efc3410" x="274.103564" y="300.257798" style="fill: #d62728; stroke: #d62728"/>
     <use xlink:href="#m002efc3410" x="279.227531" y="291.20067" style="fill: #d62728; stroke: #d62728"/>
     <use xlink:href="#m002efc3410" x="284.351498" y="301.207587" style="fill: #d62728; stroke: #d62728"/>
     <use xlink:href="#m002efc3410" x="289.475465" y="308.85058" style="fill: #d62728; stroke: #d62728"/>
     <use xlink:href="#m002efc3410" x="294.599432" y="311.040494" style="fill: #d62728; stroke: #d62728"/>
     <use xlink:href="#m002efc3410" x="299.723399" y="304.362832" style="fill: #d62728; stroke: #d62728"/>
     <use xlink:href="#m002efc3410" x="304.847366" y="292.330002" style="fill: #d62728; stroke: #d62728"/>
     <use xlink:href="#m002efc3410" x="309.971333" y="283.541635" style="fill: #d62728; stroke: #d62728"/>
     <use xlink:href="#m002efc3410" x="315.0953" y="268.515349" style="fill: #d62728; stroke: #d62728"/>
     <use xlink:href="#m002efc3410" x="320.219267" y="263.800822" style="fill: #d62728; stroke: #d62728"/>
     <use xlink:href="#m002efc3410" x="325.343233" y="263.141571" style="fill: #d62728; stroke: #d62728"/>
     <use xlink:href="#m002efc3410" x="330.4672" y="268.954632" style="fill: #d62728; stroke: #d62728"/>
     <use xlink:href="#m002efc3410" x="335.591167" y="268.946572" style="fill: #d62728; stroke: #d62728"/>
     <use xlink:href="#m002efc3410" x="340.715134" y="252.3704" style="fill: #d62728; stroke: #d62728"/>
     <use xlink:href="#m002efc3410" x="345.839101" y="250.078562" style="fill: #d62728; stroke: #d62728"/>
     <use xlink:href="#m002efc3410" x="350.963068" y="226.073975" style="fill: #d62728; stroke: #d62728"/>
     <use xlink:href="#m002efc3410" x="356.087035" y="214.623105" style="fill: #d62728; stroke: #d62728"/>
     <use xlink:href="#m002efc3410" x="361.211002" y="231.77588" style="fill: #d62728; stroke: #d62728"/>
     <use xlink:href="#m002efc3410" x="366.334969" y="240.736116" style="fill: #d62728; stroke: #d62728"/>
     <use xlink:href="#m002efc3410" x="371.458936" y="222.181731" style="fill: #d62728; stroke: #d62728"/>
     <use xlink:href="#m002efc3410" x="376.582903" y="239.73099" style="fill: #d62728; stroke: #d62728"/>
     <use xlink:href="#m002efc3410" x="381.70687" y="225.749181" style="fill: #d62728; stroke: #d62728"/>
     <use xlink:href="#m002efc3410" x="386.830837" y="184.007104" style="fill: #d62728; stroke: #d62728"/>
     <use xlink:href="#m002efc3410" x="391.954804" y="187.934847" style="fill: #d62728; stroke: #d62728"/>
     <use xlink:href="#m002efc3410" x="397.078771" y="199.947413" style="fill: #d62728; stroke: #d62728"/>
     <use xlink:href="#m002efc3410" x="402.202738" y="180.401307" style="fill: #d62728; stroke: #d62728"/>
     <use xlink:href="#m002efc3410" x="407.326705" y="176.401701" style="fill: #d62728; stroke: #d62728"/>
     <use xlink:href="#m002efc3410" x="412.450671" y="137.954258" style="fill: #d62728; stroke: #d62728"/>
     <use xlink:href="#m002efc3410" x="417.574638" y="114.564194" style="fill: #d62728; stroke: #d62728"/>
     <use xlink:href="#m002efc3410" x="422.698605" y="85.123394" style="fill: #d62728; stroke: #d62728"/>
     <use xlink:href="#m002efc3410" x="427.822572" y="37.438125" style="fill: #d62728; stroke: #d62728"/>
     <use xlink:href="#m002efc3410" x="432.946539" y="53.815181" style="fill: #d62728; stroke: #d62728"/>
     <use xlink:href="#m002efc3410" x="438.070506" y="120.307862" style="fill: #d62728; stroke: #d62728"/>
     <use xlink:href="#m002efc3410" x="443.194473" y="142.192796" style="fill: #d62728; stroke: #d62728"/>
     <use xlink:href="#m002efc3410" x="448.31844" y="163.799176" style="fill: #d62728; stroke: #d62728"/>
     <use xlink:href="#m002efc3410" x="453.442407" y="180.475212" style="fill: #d62728; stroke: #d62728"/>
     <use xlink:href="#m002efc3410" x="458.566374" y="164.593673" style="fill: #d62728; stroke: #d62728"/>
     <use xlink:href="#m002efc3410" x="463.690341" y="145.875156" style="fill: #d62728; stroke: #d62728"/>
     <use xlink:href="#m002efc3410" x="468.814308" y="133.19996" style="fill: #d62728; stroke: #d62728"/>
     <use xlink:href="#m002efc3410" x="473.938275" y="95.296965" style="fill: #d62728; stroke: #d62728"/>
     <use xlink:href="#m002efc3410" x="479.062242" y="141.155756" style="fill: #d62728; stroke: #d62728"/>
     <use xlink:href="#m002efc3410" x="484.186209" y="166.963257" style="fill: #d62728; stroke: #d62728"/>
     <use xlink:href="#m002efc3410" x="489.310176" y="202.69672" style="fill: #d62728; stroke: #d62728"/>
     <use xlink:href="#m002efc3410" x="494.434143" y="218.007989" style="fill: #d62728; stroke: #d62728"/>
     <use xlink:href="#m002efc3410" x="499.55811" y="266.86317" style="fill: #d62728; stroke: #d62728"/>
     <use xlink:href="#m002efc3410" x="504.682076" y="291.312381" style="fill: #d62728; stroke: #d62728"/>
     <use xlink:href="#m002efc3410" x="509.806043" y="295.997032" style="fill: #d62728; stroke: #d62728"/>
     <use xlink:href="#m002efc3410" x="514.93001" y="295.997032" style="fill: #d62728; stroke: #d62728"/>
     <use xlink:href="#m002efc3410" x="520.053977" y="317.119882" style="fill: #d62728; stroke: #d62728"/>
     <use xlink:href="#m002efc3410" x="525.177944" y="240.445887" style="fill: #d62728; stroke: #d62728"/>
     <use xlink:href="#m002efc3410" x="530.301911" y="219.323036" style="fill: #d62728; stroke: #d62728"/>
     <use xlink:href="#m002efc3410" x="535.425878" y="240.445887" style="fill: #d62728; stroke: #d62728"/>
     <use xlink:href="#m002efc3410" x="540.549845" y="219.323036" style="fill: #d62728; stroke: #d62728"/>
     <use xlink:href="#m002efc3410" x="545.673812" y="198.200186" style="fill: #d62728; stroke: #d62728"/>
     <use xlink:href="#m002efc3410" x="550.797779" y="295.997032" style="fill: #d62728; stroke: #d62728"/>
     <use xlink:href="#m002efc3410" x="555.921746" y="295.997032" style="fill: #d62728; stroke: #d62728"/>
     <use xlink:href="#m002efc3410" x="561.045713" y="274.874181" style="fill: #d62728; stroke: #d62728"/>
     <use xlink:href="#m002efc3410" x="566.16968" y="274.874181" style="fill: #d62728; stroke: #d62728"/>
     <use xlink:href="#m002efc3410" x="571.293647" y="295.997032" style="fill: #d62728; stroke: #d62728"/>
     <use xlink:href="#m002efc3410" x="576.417614" y="295.997032" style="fill: #d62728; stroke: #d62728"/>
    </g>
   </g>
   <g id="patch_3">
    <path d="M 43.78125 354.958125 
L 43.78125 22.318125 
" style="fill: none; stroke: #000000; stroke-width: 0.8; stroke-linejoin: miter; stroke-linecap: square"/>
   </g>
   <g id="patch_4">
    <path d="M 601.78125 354.958125 
L 601.78125 22.318125 
" style="fill: none; stroke: #000000; stroke-width: 0.8; stroke-linejoin: miter; stroke-linecap: square"/>
   </g>
   <g id="patch_5">
    <path d="M 43.78125 354.958125 
L 601.78125 354.958125 
" style="fill: none; stroke: #000000; stroke-width: 0.8; stroke-linejoin: miter; stroke-linecap: square"/>
   </g>
   <g id="patch_6">
    <path d="M 43.78125 22.318125 
L 601.78125 22.318125 
" style="fill: none; stroke: #000000; stroke-width: 0.8; stroke-linejoin: miter; stroke-linecap: square"/>
   </g>
   <g id="text_17">
    <g id="patch_7">
     <path d="M 45.40125 355.591725 
L 150.455625 355.591725 
L 150.455625 336.057975 
L 45.40125 336.057975 
z
" style="fill: #ffffff; opacity: 0.8"/>
    </g>
    <!-- Total cells: 1000 -->
    <g transform="translate(49.36125 349.1361) scale(0.12 -0.12)">
     <defs>
      <path id="DejaVuSans-54" d="M -19 4666 
L 3928 4666 
L 3928 4134 
L 2272 4134 
L 2272 0 
L 1638 0 
L 1638 4134 
L -19 4134 
L -19 4666 
z
" transform="scale(0.015625)"/>
      <path id="DejaVuSans-63" d="M 3122 3366 
L 3122 2828 
Q 2878 2963 2633 3030 
Q 2388 3097 2138 3097 
Q 1578 3097 1268 2742 
Q 959 2388 959 1747 
Q 959 1106 1268 751 
Q 1578 397 2138 397 
Q 2388 397 2633 464 
Q 2878 531 3122 666 
L 3122 134 
Q 2881 22 2623 -34 
Q 2366 -91 2075 -91 
Q 1284 -91 818 406 
Q 353 903 353 1747 
Q 353 2603 823 3093 
Q 1294 3584 2113 3584 
Q 2378 3584 2631 3529 
Q 2884 3475 3122 3366 
z
" transform="scale(0.015625)"/>
      <path id="DejaVuSans-3a" d="M 750 794 
L 1409 794 
L 1409 0 
L 750 0 
L 750 794 
z
M 750 3309 
L 1409 3309 
L 1409 2516 
L 750 2516 
L 750 3309 
z
" transform="scale(0.015625)"/>
     </defs>
     <use xlink:href="#DejaVuSans-54"/>
     <use xlink:href="#DejaVuSans-6f" transform="translate(44.083984 0)"/>
     <use xlink:href="#DejaVuSans-74" transform="translate(105.265625 0)"/>
     <use xlink:href="#DejaVuSans-61" transform="translate(144.474609 0)"/>
     <use xlink:href="#DejaVuSans-6c" transform="translate(205.753906 0)"/>
     <use xlink:href="#DejaVuSans-20" transform="translate(233.537109 0)"/>
     <use xlink:href="#DejaVuSans-63" transform="translate(265.324219 0)"/>
     <use xlink:href="#DejaVuSans-65" transform="translate(320.304688 0)"/>
     <use xlink:href="#DejaVuSans-6c" transform="translate(381.828125 0)"/>
     <use xlink:href="#DejaVuSans-6c" transform="translate(409.611328 0)"/>
     <use xlink:href="#DejaVuSans-73" transform="translate(437.394531 0)"/>
     <use xlink:href="#DejaVuSans-3a" transform="translate(489.494141 0)"/>
     <use xlink:href="#DejaVuSans-20" transform="translate(523.185547 0)"/>
     <use xlink:href="#DejaVuSans-31" transform="translate(554.972656 0)"/>
     <use xlink:href="#DejaVuSans-30" transform="translate(618.595703 0)"/>
     <use xlink:href="#DejaVuSans-30" transform="translate(682.21875 0)"/>
     <use xlink:href="#DejaVuSans-30" transform="translate(745.841797 0)"/>
    </g>
   </g>
   <g id="text_18">
    <!-- Pseudotime vs. Feature (binned into 100 intervals) -->
    <g transform="translate(170.710313 16.318125) scale(0.12 -0.12)">
     <defs>
      <path id="DejaVuSans-76" d="M 191 3500 
L 800 3500 
L 1894 563 
L 2988 3500 
L 3597 3500 
L 2284 0 
L 1503 0 
L 191 3500 
z
" transform="scale(0.015625)"/>
      <path id="DejaVuSans-28" d="M 1984 4856 
Q 1566 4138 1362 3434 
Q 1159 2731 1159 2009 
Q 1159 1288 1364 580 
Q 1569 -128 1984 -844 
L 1484 -844 
Q 1016 -109 783 600 
Q 550 1309 550 2009 
Q 550 2706 781 3412 
Q 1013 4119 1484 4856 
L 1984 4856 
z
" transform="scale(0.015625)"/>
      <path id="DejaVuSans-62" d="M 3116 1747 
Q 3116 2381 2855 2742 
Q 2594 3103 2138 3103 
Q 1681 3103 1420 2742 
Q 1159 2381 1159 1747 
Q 1159 1113 1420 752 
Q 1681 391 2138 391 
Q 2594 391 2855 752 
Q 3116 1113 3116 1747 
z
M 1159 2969 
Q 1341 3281 1617 3432 
Q 1894 3584 2278 3584 
Q 2916 3584 3314 3078 
Q 3713 2572 3713 1747 
Q 3713 922 3314 415 
Q 2916 -91 2278 -91 
Q 1894 -91 1617 61 
Q 1341 213 1159 525 
L 1159 0 
L 581 0 
L 581 4863 
L 1159 4863 
L 1159 2969 
z
" transform="scale(0.015625)"/>
      <path id="DejaVuSans-6e" d="M 3513 2113 
L 3513 0 
L 2938 0 
L 2938 2094 
Q 2938 2591 2744 2837 
Q 2550 3084 2163 3084 
Q 1697 3084 1428 2787 
Q 1159 2491 1159 1978 
L 1159 0 
L 581 0 
L 581 3500 
L 1159 3500 
L 1159 2956 
Q 1366 3272 1645 3428 
Q 1925 3584 2291 3584 
Q 2894 3584 3203 3211 
Q 3513 2838 3513 2113 
z
" transform="scale(0.015625)"/>
      <path id="DejaVuSans-29" d="M 513 4856 
L 1013 4856 
Q 1481 4119 1714 3412 
Q 1947 2706 1947 2009 
Q 1947 1309 1714 600 
Q 1481 -109 1013 -844 
L 513 -844 
Q 928 -128 1133 580 
Q 1338 1288 1338 2009 
Q 1338 2731 1133 3434 
Q 928 4138 513 4856 
z
" transform="scale(0.015625)"/>
     </defs>
     <use xlink:href="#DejaVuSans-50"/>
     <use xlink:href="#DejaVuSans-73" transform="translate(58.552734 0)"/>
     <use xlink:href="#DejaVuSans-65" transform="translate(110.652344 0)"/>
     <use xlink:href="#DejaVuSans-75" transform="translate(172.175781 0)"/>
     <use xlink:href="#DejaVuSans-64" transform="translate(235.554688 0)"/>
     <use xlink:href="#DejaVuSans-6f" transform="translate(299.03125 0)"/>
     <use xlink:href="#DejaVuSans-74" transform="translate(360.212891 0)"/>
     <use xlink:href="#DejaVuSans-69" transform="translate(399.421875 0)"/>
     <use xlink:href="#DejaVuSans-6d" transform="translate(427.205078 0)"/>
     <use xlink:href="#DejaVuSans-65" transform="translate(524.617188 0)"/>
     <use xlink:href="#DejaVuSans-20" transform="translate(586.140625 0)"/>
     <use xlink:href="#DejaVuSans-76" transform="translate(617.927734 0)"/>
     <use xlink:href="#DejaVuSans-73" transform="translate(677.107422 0)"/>
     <use xlink:href="#DejaVuSans-2e" transform="translate(729.207031 0)"/>
     <use xlink:href="#DejaVuSans-20" transform="translate(760.994141 0)"/>
     <use xlink:href="#DejaVuSans-46" transform="translate(792.78125 0)"/>
     <use xlink:href="#DejaVuSans-65" transform="translate(844.800781 0)"/>
     <use xlink:href="#DejaVuSans-61" transform="translate(906.324219 0)"/>
     <use xlink:href="#DejaVuSans-74" transform="translate(967.603516 0)"/>
     <use xlink:href="#DejaVuSans-75" transform="translate(1006.8125 0)"/>
     <use xlink:href="#DejaVuSans-72" transform="translate(1070.191406 0)"/>
     <use xlink:href="#DejaVuSans-65" transform="translate(1109.054688 0)"/>
     <use xlink:href="#DejaVuSans-20" transform="translate(1170.578125 0)"/>
     <use xlink:href="#DejaVuSans-28" transform="translate(1202.365234 0)"/>
     <use xlink:href="#DejaVuSans-62" transform="translate(1241.378906 0)"/>
     <use xlink:href="#DejaVuSans-69" transform="translate(1304.855469 0)"/>
     <use xlink:href="#DejaVuSans-6e" transform="translate(1332.638672 0)"/>
     <use xlink:href="#DejaVuSans-6e" transform="translate(1396.017578 0)"/>
     <use xlink:href="#DejaVuSans-65" transform="translate(1459.396484 0)"/>
     <use xlink:href="#DejaVuSans-64" transform="translate(1520.919922 0)"/>
     <use xlink:href="#DejaVuSans-20" transform="translate(1584.396484 0)"/>
     <use xlink:href="#DejaVuSans-69" transform="translate(1616.183594 0)"/>
     <use xlink:href="#DejaVuSans-6e" transform="translate(1643.966797 0)"/>
     <use xlink:href="#DejaVuSans-74" transform="translate(1707.345703 0)"/>
     <use xlink:href="#DejaVuSans-6f" transform="translate(1746.554688 0)"/>
     <use xlink:href="#DejaVuSans-20" transform="translate(1807.736328 0)"/>
     <use xlink:href="#DejaVuSans-31" transform="translate(1839.523438 0)"/>
     <use xlink:href="#DejaVuSans-30" transform="translate(1903.146484 0)"/>
     <use xlink:href="#DejaVuSans-30" transform="translate(1966.769531 0)"/>
     <use xlink:href="#DejaVuSans-20" transform="translate(2030.392578 0)"/>
     <use xlink:href="#DejaVuSans-69" transform="translate(2062.179688 0)"/>
     <use xlink:href="#DejaVuSans-6e" transform="translate(2089.962891 0)"/>
     <use xlink:href="#DejaVuSans-74" transform="translate(2153.341797 0)"/>
     <use xlink:href="#DejaVuSans-65" transform="translate(2192.550781 0)"/>
     <use xlink:href="#DejaVuSans-72" transform="translate(2254.074219 0)"/>
     <use xlink:href="#DejaVuSans-76" transform="translate(2295.1875 0)"/>
     <use xlink:href="#DejaVuSans-61" transform="translate(2354.367188 0)"/>
     <use xlink:href="#DejaVuSans-6c" transform="translate(2415.646484 0)"/>
     <use xlink:href="#DejaVuSans-73" transform="translate(2443.429688 0)"/>
     <use xlink:href="#DejaVuSans-29" transform="translate(2495.529297 0)"/>
    </g>
   </g>
   <g id="legend_1">
    <g id="patch_8">
     <path d="M 520.525 89.030625 
L 594.78125 89.030625 
Q 596.78125 89.030625 596.78125 87.030625 
L 596.78125 29.318125 
Q 596.78125 27.318125 594.78125 27.318125 
L 520.525 27.318125 
Q 518.525 27.318125 518.525 29.318125 
L 518.525 87.030625 
Q 518.525 89.030625 520.525 89.030625 
z
" style="fill: #ffffff; opacity: 0.8; stroke: #cccccc; stroke-linejoin: miter"/>
    </g>
    <g id="line2d_33">
     <path d="M 522.525 35.416562 
L 532.525 35.416562 
L 542.525 35.416562 
" style="fill: none; stroke: #1f77b4; stroke-width: 1.5; stroke-linecap: square"/>
     <g>
      <use xlink:href="#maba04e1bde" x="532.525" y="35.416562" style="fill: #1f77b4; stroke: #1f77b4"/>
     </g>
    </g>
    <g id="text_19">
     <!-- Immune -->
     <g transform="translate(550.525 38.916562) scale(0.1 -0.1)">
      <defs>
       <path id="DejaVuSans-49" d="M 628 4666 
L 1259 4666 
L 1259 0 
L 628 0 
L 628 4666 
z
" transform="scale(0.015625)"/>
      </defs>
      <use xlink:href="#DejaVuSans-49"/>
      <use xlink:href="#DejaVuSans-6d" transform="translate(29.492188 0)"/>
      <use xlink:href="#DejaVuSans-6d" transform="translate(126.904297 0)"/>
      <use xlink:href="#DejaVuSans-75" transform="translate(224.316406 0)"/>
      <use xlink:href="#DejaVuSans-6e" transform="translate(287.695312 0)"/>
      <use xlink:href="#DejaVuSans-65" transform="translate(351.074219 0)"/>
     </g>
    </g>
    <g id="line2d_34">
     <path d="M 522.525 50.094688 
L 532.525 50.094688 
L 542.525 50.094688 
" style="fill: none; stroke: #ff7f0e; stroke-width: 1.5; stroke-linecap: square"/>
     <g>
      <use xlink:href="#mba7a42df79" x="532.525" y="50.094688" style="fill: #ff7f0e; stroke: #ff7f0e"/>
     </g>
    </g>
    <g id="text_20">
     <!-- Tumor -->
     <g transform="translate(550.525 53.594688) scale(0.1 -0.1)">
      <use xlink:href="#DejaVuSans-54"/>
      <use xlink:href="#DejaVuSans-75" transform="translate(45.958984 0)"/>
      <use xlink:href="#DejaVuSans-6d" transform="translate(109.337891 0)"/>
      <use xlink:href="#DejaVuSans-6f" transform="translate(206.75 0)"/>
      <use xlink:href="#DejaVuSans-72" transform="translate(267.931641 0)"/>
     </g>
    </g>
    <g id="line2d_35">
     <path d="M 522.525 64.772812 
L 532.525 64.772812 
L 542.525 64.772812 
" style="fill: none; stroke: #2ca02c; stroke-width: 1.5; stroke-linecap: square"/>
     <g>
      <use xlink:href="#m4b09069613" x="532.525" y="64.772812" style="fill: #2ca02c; stroke: #2ca02c"/>
     </g>
    </g>
    <g id="text_21">
     <!-- Stromal -->
     <g transform="translate(550.525 68.272812) scale(0.1 -0.1)">
      <defs>
       <path id="DejaVuSans-53" d="M 3425 4513 
L 3425 3897 
Q 3066 4069 2747 4153 
Q 2428 4238 2131 4238 
Q 1616 4238 1336 4038 
Q 1056 3838 1056 3469 
Q 1056 3159 1242 3001 
Q 1428 2844 1947 2747 
L 2328 2669 
Q 3034 2534 3370 2195 
Q 3706 1856 3706 1288 
Q 3706 609 3251 259 
Q 2797 -91 1919 -91 
Q 1588 -91 1214 -16 
Q 841 59 441 206 
L 441 856 
Q 825 641 1194 531 
Q 1563 422 1919 422 
Q 2459 422 2753 634 
Q 3047 847 3047 1241 
Q 3047 1584 2836 1778 
Q 2625 1972 2144 2069 
L 1759 2144 
Q 1053 2284 737 2584 
Q 422 2884 422 3419 
Q 422 4038 858 4394 
Q 1294 4750 2059 4750 
Q 2388 4750 2728 4690 
Q 3069 4631 3425 4513 
z
" transform="scale(0.015625)"/>
      </defs>
      <use xlink:href="#DejaVuSans-53"/>
      <use xlink:href="#DejaVuSans-74" transform="translate(63.476562 0)"/>
      <use xlink:href="#DejaVuSans-72" transform="translate(102.685547 0)"/>
      <use xlink:href="#DejaVuSans-6f" transform="translate(141.548828 0)"/>
      <use xlink:href="#DejaVuSans-6d" transform="translate(202.730469 0)"/>
      <use xlink:href="#DejaVuSans-61" transform="translate(300.142578 0)"/>
      <use xlink:href="#DejaVuSans-6c" transform="translate(361.421875 0)"/>
     </g>
    </g>
    <g id="line2d_36">
     <path d="M 522.525 79.450938 
L 532.525 79.450938 
L 542.525 79.450938 
" style="fill: none; stroke: #d62728; stroke-width: 1.5; stroke-linecap: square"/>
     <g>
      <use xlink:href="#m002efc3410" x="532.525" y="79.450938" style="fill: #d62728; stroke: #d62728"/>
     </g>
    </g>
    <g id="text_22">
     <!-- Vascular -->
     <g transform="translate(550.525 82.950938) scale(0.1 -0.1)">
      <use xlink:href="#DejaVuSans-56"/>
      <use xlink:href="#DejaVuSans-61" transform="translate(60.658203 0)"/>
      <use xlink:href="#DejaVuSans-73" transform="translate(121.9375 0)"/>
      <use xlink:href="#DejaVuSans-63" transform="translate(174.037109 0)"/>
      <use xlink:href="#DejaVuSans-75" transform="translate(229.017578 0)"/>
      <use xlink:href="#DejaVuSans-6c" transform="translate(292.396484 0)"/>
      <use xlink:href="#DejaVuSans-61" transform="translate(320.179688 0)"/>
      <use xlink:href="#DejaVuSans-72" transform="translate(381.458984 0)"/>
     </g>
    </g>
   </g>
  </g>
 </g>
 <defs>
  <clipPath id="pb026f4da6c">
   <rect x="43.78125" y="22.318125" width="558" height="332.64"/>
  </clipPath>
 </defs>
</svg>
